<svg width="14" height="14" viewBox="0 0 14 14" fill="none" xmlns="http://www.w3.org/2000/svg">
<path fill-rule="evenodd" clip-rule="evenodd" d="M1.32959 1.32947C1.71761 0.941447 2.34672 0.941447 2.73474 1.32947L7.00011 5.59484L11.2655 1.32947C11.6535 0.941447 12.2826 0.941447 12.6706 1.32947C13.0587 1.71749 13.0587 2.3466 12.6706 2.73462L8.40526 6.99999L12.6706 11.2654C13.0587 11.6534 13.0587 12.2825 12.6706 12.6705C12.2826 13.0585 11.6535 13.0585 11.2655 12.6705L7.00011 8.40514L2.73474 12.6705C2.34672 13.0585 1.71761 13.0585 1.32959 12.6705C0.941569 12.2825 0.941569 11.6534 1.32959 11.2654L5.59496 6.99999L1.32959 2.73462C0.941569 2.3466 0.941569 1.71749 1.32959 1.32947Z" fill="#F27121" stroke="#F27121" stroke-width="2" stroke-linecap="round" stroke-linejoin="round"/>
</svg>
