<svg width="90" height="90" viewBox="0 0 90 90" fill="none" xmlns="http://www.w3.org/2000/svg">
<path d="M19.6875 2.8125C14.2372 2.8155 9.85199 7.23545 9.85199 12.6535C9.85199 14.6445 10.4318 16.4932 11.4505 18.045C6.27495 21.0233 2.8125 26.616 2.8125 33.0222V35.6589C2.8125 40.8732 7.01011 45 12.1564 45H27.2186C32.3649 45 36.5625 40.8732 36.5625 35.6589V33.0222C36.5625 26.616 33.1 21.0233 27.9245 18.045C28.9432 16.4932 29.523 14.6445 29.523 12.6535C29.523 7.23545 25.1378 2.8155 19.6875 2.8125ZM47.8152 5.625C44.7233 5.625 42.1875 8.09489 42.1875 11.2527V15.466H36.5597C35.3091 15.4667 34.6837 16.9796 35.5655 17.8665L42.1875 24.4885V30.9348C42.1875 34.0816 44.7233 36.5595 47.8152 36.5597L78.7472 36.5625C81.8391 36.5625 84.375 34.0871 84.375 30.9348V11.2527C84.375 8.1608 81.8831 5.625 78.7472 5.625H47.8152ZM19.6875 5.62775C23.5574 5.63073 26.7105 8.75546 26.7105 12.6535C26.7105 16.5516 23.5693 19.6845 19.6875 19.6875C15.8057 19.6845 12.6645 16.5516 12.6645 12.6535C12.6645 8.75546 15.8176 5.63073 19.6875 5.62775ZM52.034 16.875C54.4023 16.8795 56.2527 18.7832 56.2527 21.0937C56.2527 23.4043 54.3859 25.308 52.034 25.3125C49.6821 25.308 47.8125 23.4043 47.8125 21.0937C47.8125 18.7832 49.6657 16.8795 52.034 16.875ZM63.2812 16.875C65.6495 16.8795 67.5 18.7832 67.5 21.0937C67.5 23.4043 65.6331 25.308 63.2812 25.3125C60.9293 25.308 59.0597 23.4043 59.0597 21.0937C59.0597 18.7832 60.913 16.8795 63.2812 16.875ZM74.5312 16.875C76.8995 16.8795 78.75 18.7832 78.75 21.0937C78.75 23.4043 76.8832 25.308 74.5312 25.3125C72.1794 25.308 70.3097 23.4043 70.3097 21.0937C70.3097 18.7832 72.1629 16.8795 74.5312 16.875ZM52.0312 19.6875C51.2679 19.6905 50.625 20.3024 50.625 21.0937C50.625 21.8851 51.2679 22.497 52.0312 22.5C52.7958 22.4985 53.4402 21.8861 53.4402 21.0937C53.4402 20.3014 52.7958 19.689 52.0312 19.6875ZM63.2785 19.6875C62.5151 19.6905 61.8722 20.3024 61.8722 21.0937C61.8722 21.8851 62.5151 22.497 63.2785 22.5C64.0431 22.4985 64.6875 21.8861 64.6875 21.0937C64.6875 20.3014 64.0431 19.689 63.2785 19.6875ZM74.5285 19.6875C73.7651 19.6905 73.1222 20.3024 73.1222 21.0937C73.1222 21.8851 73.7651 22.497 74.5285 22.5C75.2931 22.4985 75.9375 21.8861 75.9375 21.0937C75.9375 20.3014 75.2931 19.689 74.5285 19.6875ZM13.3704 20.1984C14.1731 20.8705 15.0924 21.4287 16.084 21.8188L14.0982 31.0281C13.9946 31.5154 14.1567 32.021 14.5239 32.3575L18.7482 36.1972C19.015 36.439 19.3509 36.5612 19.6875 36.5625C20.0239 36.5612 20.3602 36.439 20.6268 36.1972L24.8511 32.3575C25.2183 32.021 25.3804 31.5154 25.2768 31.0281L23.291 21.8188C24.2826 21.4287 25.202 20.8705 26.0046 20.1984C30.5775 22.5865 33.75 27.4181 33.75 33.0222V35.6589C33.75 39.2605 30.8543 42.1875 27.2186 42.1875H12.1564C8.52073 42.1875 5.625 39.2605 5.625 35.6589V33.0222C5.625 27.4181 8.79753 22.5865 13.3704 20.1984ZM70.3125 45C64.8622 45.0029 60.477 49.4229 60.477 54.841C60.477 56.832 61.0568 58.6807 62.0755 60.2325C56.8999 63.2108 53.4375 68.8035 53.4375 75.2096V77.8464C53.4375 83.0607 57.6351 87.1875 62.7814 87.1875H77.8436C82.9899 87.1875 87.1875 83.0607 87.1875 77.8464V75.2096C87.1875 68.8035 83.725 63.2108 78.5495 60.2325C79.5682 58.6807 80.148 56.832 80.148 54.841C80.148 49.4229 75.7628 45.003 70.3125 45ZM11.2527 47.8125C8.11692 47.8125 5.625 50.3483 5.625 53.4402V73.1222C5.625 76.2746 8.16082 78.75 11.2527 78.75L42.1847 78.7472C45.2766 78.747 47.8125 76.2691 47.8125 73.1222V66.676L54.4345 60.054C55.3162 59.1671 54.6907 57.6542 53.4402 57.6535H47.8125V53.4402C47.8125 50.2824 45.2766 47.8125 42.1847 47.8125H11.2527ZM70.3125 47.8152C74.1824 47.8182 77.3355 50.9429 77.3355 54.841C77.3355 58.739 74.1943 61.872 70.3125 61.875C66.4307 61.872 63.2895 58.739 63.2895 54.841C63.2895 50.9429 66.4426 47.8182 70.3125 47.8152ZM15.4687 59.0625C17.837 59.067 19.6902 60.9707 19.6902 63.2812C19.6902 65.5918 17.8207 67.4955 15.4687 67.5C13.1169 67.4955 11.25 65.5918 11.25 63.2812C11.25 60.9707 13.1005 59.067 15.4687 59.0625ZM26.7187 59.0625C29.087 59.067 30.9402 60.9707 30.9402 63.2812C30.9402 65.5918 29.0706 67.4955 26.7187 67.5C24.3668 67.4955 22.5 65.5918 22.5 63.2812C22.5 60.9707 24.3505 59.067 26.7187 59.0625ZM37.966 59.0625C40.3343 59.067 42.1875 60.9707 42.1875 63.2812C42.1875 65.5918 40.3179 67.4955 37.966 67.5C35.6141 67.4955 33.7473 65.5918 33.7473 63.2812C33.7473 60.9707 35.5977 59.067 37.966 59.0625ZM15.4715 61.875C14.7069 61.8765 14.0625 62.4889 14.0625 63.2812C14.0625 64.0736 14.7069 64.686 15.4715 64.6875C16.2348 64.6845 16.8777 64.0726 16.8777 63.2812C16.8777 62.4899 16.2348 61.8779 15.4715 61.875ZM26.7215 61.875C25.9569 61.8765 25.3125 62.4889 25.3125 63.2812C25.3125 64.0736 25.9569 64.6859 26.7215 64.6875C27.4848 64.6845 28.1277 64.0726 28.1277 63.2812C28.1277 62.4899 27.4848 61.8779 26.7215 61.875ZM37.9687 61.875C37.2041 61.8765 36.5597 62.4889 36.5597 63.2812C36.5597 64.0736 37.2041 64.6859 37.9687 64.6875C38.7321 64.6845 39.375 64.0726 39.375 63.2812C39.375 62.4899 38.7321 61.8779 37.9687 61.875ZM63.9954 62.3859C64.7981 63.058 65.7174 63.6162 66.709 64.0063L64.7232 73.2156C64.6196 73.7029 64.7817 74.2085 65.1489 74.545L69.3732 78.3847C69.64 78.6265 69.9759 78.7487 70.3125 78.75C70.6489 78.7487 70.9852 78.6265 71.2518 78.3847L75.4761 74.545C75.8433 74.2085 76.0054 73.7029 75.9018 73.2156L73.916 64.0063C74.9076 63.6162 75.827 63.058 76.6296 62.3859C81.2025 64.774 84.375 69.6056 84.375 75.2096V77.8464C84.375 81.448 81.4793 84.375 77.8436 84.375H62.7814C59.1457 84.375 56.25 81.448 56.25 77.8464V75.2096C56.25 69.6056 59.4225 64.774 63.9954 62.3859Z" fill="#5E54DD"/>
</svg>
