<svg width="92" height="92" viewBox="0 0 92 92" fill="none" xmlns="http://www.w3.org/2000/svg">
<path d="M53.1875 8.625H38.8125C37.288 8.6266 35.8264 9.23291 34.7484 10.3109C33.6704 11.3889 33.0641 12.8505 33.0625 14.375V20.125C33.0625 20.5062 33.2139 20.8719 33.4835 21.1415C33.7531 21.411 34.1188 21.5625 34.5 21.5625H40.25C40.6312 21.5625 40.9969 21.411 41.2665 21.1415C41.5361 20.8719 41.6875 20.5062 41.6875 20.125V17.25H50.3125V20.125C50.3125 20.5062 50.4639 20.8719 50.7335 21.1415C51.0031 21.411 51.3688 21.5625 51.75 21.5625H57.5C57.8812 21.5625 58.2469 21.411 58.5165 21.1415C58.7861 20.8719 58.9375 20.5062 58.9375 20.125V14.375C58.9359 12.8505 58.3296 11.3889 57.2516 10.3109C56.1736 9.23291 54.712 8.6266 53.1875 8.625Z" fill="#D6D6D4"/>
<path d="M80.3239 27.7912C80.1891 27.6405 80.024 27.52 79.8395 27.4375C79.6549 27.355 79.455 27.3124 79.2528 27.3125H12.7474C12.5452 27.3125 12.3452 27.3552 12.1606 27.4378C11.9759 27.5204 11.8108 27.641 11.676 27.7918C11.5412 27.9426 11.4397 28.1201 11.3782 28.3128C11.3166 28.5055 11.2965 28.709 11.319 28.91L14.3842 56.3231C14.3983 56.455 14.4317 56.5841 14.4832 56.7064L20.1595 82.2487C20.2303 82.5681 20.4079 82.8538 20.663 83.0585C20.9182 83.2633 21.2355 83.3749 21.5626 83.375H70.4376C70.7647 83.3751 71.0821 83.2636 71.3372 83.0589C71.5924 82.8542 71.77 82.5685 71.8408 82.2491L77.5149 56.7167C77.5667 56.591 77.6006 56.4587 77.6155 56.3235L80.6807 28.9104C80.7034 28.7093 80.6833 28.5056 80.6218 28.3127C80.5603 28.1198 80.4588 27.9421 80.3239 27.7912Z" fill="#D6D6D4"/>
<path d="M80.1667 27.8291L76.4277 23.3426C75.215 21.8838 73.6956 20.7103 71.9777 19.9057C70.2598 19.1011 68.3856 18.6852 66.4886 18.6875H25.5115C23.6146 18.6852 21.7404 19.1011 20.0225 19.9057C18.3046 20.7103 16.7852 21.8838 15.5725 23.3426L11.8334 27.8291C11.6584 28.039 11.5467 28.2945 11.5116 28.5655C11.4766 28.8366 11.5195 29.112 11.6354 29.3595C11.7513 29.6071 11.9353 29.8164 12.166 29.9631C12.3966 30.1097 12.6643 30.1876 12.9376 30.1875H79.0626C79.3359 30.1876 79.6036 30.1097 79.8342 29.9631C80.0649 29.8164 80.2489 29.6071 80.3648 29.3595C80.4807 29.112 80.5236 28.8366 80.4885 28.5655C80.4534 28.2945 80.3418 28.039 80.1667 27.8291Z" fill="#5E54DD"/>
<path d="M44.9105 47.1931C44.495 47.676 34.7322 59.1199 34.7322 67.275C34.7322 75.7706 39.7873 82.6818 46.0006 82.6818C52.2139 82.6818 57.269 75.7706 57.269 67.275C57.269 59.1203 47.5062 47.6764 47.0907 47.1931C46.9515 47.043 46.7829 46.9233 46.5953 46.8414C46.4077 46.7595 46.2053 46.7172 46.0006 46.7172C45.7959 46.7172 45.5935 46.7595 45.4059 46.8414C45.2183 46.9233 45.0497 47.043 44.9105 47.1931Z" fill="#FFB531"/>
<path d="M88.8904 52.4323C88.8694 52.2265 88.8043 52.0276 88.6994 51.8492C88.5946 51.6709 88.4525 51.5173 88.2829 51.3988C88.1133 51.2803 87.9201 51.1999 87.7166 51.1628C87.5131 51.1258 87.3039 51.1331 87.1035 51.1842C86.4865 51.3423 71.9289 55.1317 67.2585 61.8181C65.0254 64.8989 63.7849 68.5875 63.7026 72.3917C63.6172 74.0264 63.9345 75.6572 64.6266 77.1407C65.3187 78.6242 66.3644 79.9151 67.6719 80.9001C69.1939 81.9508 71.0049 82.5022 72.8541 82.478C74.2795 82.4631 75.6915 82.2004 77.0269 81.7018C80.5712 80.3153 83.6084 77.8809 85.7332 74.7234C90.4031 68.0398 88.9543 53.0668 88.8904 52.4323Z" fill="#FFB531"/>
<path d="M4.89655 51.1843C4.69608 51.1331 4.48694 51.1258 4.28338 51.1628C4.07982 51.1998 3.88664 51.2803 3.71702 51.3988C3.54739 51.5172 3.40531 51.6709 3.30046 51.8492C3.19561 52.0276 3.13046 52.2265 3.10945 52.4323C3.04563 53.0668 1.59677 68.0398 6.26663 74.7233C8.39144 77.8808 11.4287 80.3152 14.973 81.7017C16.3082 82.201 17.7203 82.4637 19.1458 82.4779C20.995 82.5021 22.806 81.9507 24.328 80.9C25.6355 79.915 26.6812 78.6241 27.3733 77.1406C28.0654 75.6571 28.3827 74.0263 28.2973 72.3916C28.215 68.5874 26.9745 64.8988 24.7414 61.818C20.0709 55.1318 5.51339 51.343 4.89655 51.1843Z" fill="#FFB531"/>
<path d="M44.9108 61.6805C44.3092 62.3796 39.0337 68.6504 39.0337 73.387C39.0337 78.5992 42.094 82.6815 46.0008 82.6815C49.9077 82.6815 52.968 78.599 52.968 73.387C52.968 68.6504 47.6923 62.3796 47.0909 61.6805C46.9517 61.5304 46.7831 61.4107 46.5955 61.3288C46.408 61.2469 46.2055 61.2047 46.0008 61.2047C45.7962 61.2047 45.5937 61.2469 45.4061 61.3288C45.2186 61.4107 45.0499 61.5304 44.9108 61.6805Z" fill="#F35244"/>
<path d="M80.5933 64.3084C80.5723 64.1026 80.5072 63.9038 80.4023 63.7254C80.2975 63.5471 80.1554 63.3935 79.9858 63.275C79.8162 63.1566 79.623 63.0761 79.4195 63.0391C79.216 63.0021 79.0068 63.0094 78.8064 63.0605C77.9128 63.2892 69.9961 65.4077 67.284 69.292C65.9537 71.1314 65.2165 73.333 65.1708 75.6026C65.1215 76.6231 65.3239 77.64 65.76 78.5638C66.1962 79.4877 66.8528 80.2901 67.6721 80.9005C68.6416 81.5715 69.7955 81.9246 70.9745 81.9112C72.5377 81.8015 74.0529 81.3241 75.3967 80.5178C76.7405 79.7116 77.8748 78.5994 78.7073 77.2717C81.42 73.3883 80.6861 65.2266 80.5933 64.3084Z" fill="#F35244"/>
<path d="M13.1936 63.0605C12.9932 63.0094 12.7841 63.0021 12.5805 63.0391C12.377 63.0761 12.1838 63.1566 12.0142 63.275C11.8446 63.3935 11.7025 63.5471 11.5977 63.7254C11.4928 63.9038 11.4277 64.1026 11.4067 64.3084C11.314 65.2266 10.5805 73.3883 13.2927 77.2712C14.1252 78.5989 15.2595 79.7112 16.6033 80.5174C17.9471 81.3236 19.4623 81.8011 21.0256 81.9108C22.2045 81.9242 23.3585 81.571 24.3279 80.9001C25.1472 80.2897 25.8038 79.4872 26.24 78.5634C26.6762 77.6395 26.8785 76.6226 26.8292 75.6022C26.7835 73.3326 26.0463 71.131 24.7161 69.2915C22.0039 65.4077 14.0875 63.2892 13.1936 63.0605Z" fill="#F35244"/>
<path d="M73.3125 35.9375H64.6875C64.3063 35.9375 63.9406 35.7861 63.671 35.5165C63.4014 35.2469 63.25 34.8812 63.25 34.5C63.25 34.1188 63.4014 33.7531 63.671 33.4835C63.9406 33.2139 64.3063 33.0625 64.6875 33.0625H73.3125C73.6937 33.0625 74.0594 33.2139 74.329 33.4835C74.5986 33.7531 74.75 34.1188 74.75 34.5C74.75 34.8812 74.5986 35.2469 74.329 35.5165C74.0594 35.7861 73.6937 35.9375 73.3125 35.9375Z" fill="#5E54DD"/>
<path d="M73.3125 40.25H66.125C65.7438 40.25 65.3781 40.0986 65.1085 39.829C64.8389 39.5594 64.6875 39.1937 64.6875 38.8125C64.6875 38.4313 64.8389 38.0656 65.1085 37.796C65.3781 37.5264 65.7438 37.375 66.125 37.375H73.3125C73.6937 37.375 74.0594 37.5264 74.329 37.796C74.5986 38.0656 74.75 38.4313 74.75 38.8125C74.75 39.1937 74.5986 39.5594 74.329 39.829C74.0594 40.0986 73.6937 40.25 73.3125 40.25Z" fill="#5E54DD"/>
<path d="M88.8905 52.4322C88.8695 52.2264 88.8044 52.0276 88.6995 51.8492C88.5947 51.6709 88.4526 51.5172 88.283 51.3988C88.1134 51.2803 87.9202 51.1998 87.7167 51.1628C87.5132 51.1258 87.304 51.1331 87.1036 51.1842C83.9361 52.036 80.8357 53.1204 77.8278 54.4285L80.6811 28.91C80.7152 28.6075 80.6522 28.3019 80.5013 28.0375C80.3504 27.7731 80.1193 27.5635 79.8415 27.439L76.4275 23.3421C75.2148 21.8834 73.6954 20.7101 71.9775 19.9055C70.2596 19.101 68.3855 18.6851 66.4885 18.6875H58.9375V14.375C58.9359 12.8505 58.3296 11.3889 57.2516 10.3109C56.1736 9.23291 54.712 8.6266 53.1875 8.625H38.8125C37.288 8.6266 35.8264 9.23291 34.7484 10.3109C33.6704 11.3889 33.0641 12.8505 33.0625 14.375V18.6875H25.5114C23.6145 18.6852 21.7403 19.1011 20.0224 19.9057C18.3045 20.7103 16.7851 21.8838 15.5724 23.3426L12.1585 27.4394C11.8807 27.5639 11.6496 27.7735 11.4987 28.0379C11.3478 28.3023 11.2848 28.6079 11.3189 28.9104L14.1722 54.4289C11.1643 53.1209 8.064 52.0365 4.89655 51.1846C4.69608 51.1335 4.48694 51.1262 4.28338 51.1632C4.07982 51.2002 3.88664 51.2807 3.71702 51.3991C3.54739 51.5176 3.40531 51.6712 3.30046 51.8496C3.19561 52.028 3.13046 52.2268 3.10945 52.4327C3.04563 53.0672 1.59677 68.0402 6.26663 74.7237C8.39144 77.8812 11.4287 80.3156 14.973 81.702C16.3082 82.2014 17.7203 82.4641 19.1458 82.4783C19.5046 82.4727 19.8628 82.4474 20.2189 82.4027C20.3131 82.6849 20.4934 82.9304 20.7344 83.1048C20.9754 83.2792 21.265 83.3737 21.5625 83.375H70.4375C70.735 83.3737 71.0246 83.2791 71.2656 83.1047C71.5067 82.9302 71.6869 82.6846 71.7811 82.4024C72.1372 82.4471 72.4954 82.4724 72.8542 82.478C74.2796 82.4631 75.6916 82.2004 77.027 81.7018C80.5713 80.3153 83.6085 77.8809 85.7333 74.7234C90.4032 68.0397 88.9543 53.0668 88.8905 52.4322ZM35.9375 14.375C35.9384 13.6128 36.2415 12.882 36.7805 12.343C37.3195 11.8041 38.0503 11.5009 38.8125 11.5H53.1875C53.9497 11.5009 54.6805 11.8041 55.2194 12.343C55.7584 12.882 56.0616 13.6128 56.0625 14.375V18.6875H53.1875V14.375H38.8125V18.6875H35.9375V14.375ZM50.3125 18.6875H41.6875V17.25H50.3125V18.6875ZM17.7806 25.185C18.7235 24.0499 19.9053 23.1367 21.2415 22.5106C22.5778 21.8844 24.0357 21.5607 25.5114 21.5625H66.4885C67.9642 21.5607 69.4221 21.8844 70.7584 22.5106C72.0947 23.1367 73.2764 24.0499 74.2194 25.185L75.993 27.3125H16.007L17.7806 25.185ZM17.21 55.7291L14.3546 30.1875H77.6454L74.7704 55.8973C71.8495 57.2752 69.2806 59.3 67.2585 61.8181C65.0253 64.8989 63.7848 68.5875 63.7025 72.3916C63.6365 73.901 63.907 75.406 64.4944 76.7979C65.0818 78.1898 65.9713 79.4337 67.0986 80.4395C67.122 80.4609 67.1488 80.479 67.1725 80.5H51.7514C53.5727 78.8257 55.0092 76.7763 55.9618 74.4931C56.9144 72.2099 57.3604 69.7473 57.2691 67.275C57.2691 59.1203 47.5063 47.6764 47.0908 47.1931C46.9516 47.043 46.783 46.9233 46.5954 46.8414C46.4078 46.7595 46.2054 46.7172 46.0007 46.7172C45.796 46.7172 45.5936 46.7595 45.406 46.8414C45.2184 46.9233 45.0498 47.043 44.9106 47.1931C44.4951 47.676 34.7323 59.1199 34.7323 67.275C34.6411 69.7473 35.0871 72.2099 36.0397 74.4931C36.9923 76.7763 38.4287 78.8257 40.25 80.5H24.8273C24.8511 80.479 24.8778 80.4609 24.9012 80.4395C26.0285 79.4337 26.9181 78.1898 27.5054 76.7979C28.0928 75.406 28.3633 73.901 28.2973 72.3916C28.215 68.5875 26.9745 64.8989 24.7414 61.8181C22.7194 59.3002 20.1508 57.2757 17.2303 55.8979C17.2268 55.8411 17.22 55.7852 17.21 55.7291ZM76.3503 75.626C74.357 78.4771 71.1352 79.8136 69.3187 78.5441C68.8837 78.1913 68.5406 77.7383 68.3188 77.224C68.0971 76.7096 68.0032 76.1492 68.0453 75.5907C68.0931 73.9136 68.6496 72.2906 69.641 70.937C71.0687 68.8931 75.167 67.2113 77.8448 66.3395C77.9471 69.1544 77.7779 73.5806 76.3503 75.626ZM41.9079 73.387C41.9079 70.8938 44.3042 67.168 46 64.9201C47.6962 67.1676 50.0921 70.8933 50.0921 73.387C50.0921 76.867 48.218 79.8065 46 79.8065C43.7819 79.8065 41.9079 76.867 41.9079 73.387ZM47.09 61.6805C46.9509 61.5304 46.7823 61.4107 46.5947 61.3288C46.4071 61.2469 46.2047 61.2047 46 61.2047C45.7953 61.2047 45.5928 61.2469 45.4053 61.3288C45.2177 61.4107 45.0491 61.5304 44.9099 61.6805C44.3083 62.3796 39.0329 68.6504 39.0329 73.387C39.0329 73.7048 39.0451 74.0183 39.0674 74.3271C38.0841 72.1072 37.5863 69.7028 37.6073 67.275C37.6073 61.6544 43.5082 53.5725 46.0007 50.4082C48.4932 53.5722 54.3941 61.6544 54.3941 67.275C54.4149 69.703 53.9168 72.1074 52.9333 74.3274C52.9556 74.0186 52.9678 73.7051 52.9678 73.3872C52.9678 68.6504 47.6915 62.3796 47.09 61.6805ZM22.6813 78.545C20.8634 79.8169 17.6423 78.4792 15.6496 75.6269C14.222 73.5815 14.0529 69.1538 14.1553 66.3392C16.8317 67.2096 20.928 68.89 22.3592 70.9382C23.3505 72.2918 23.907 73.9147 23.9548 75.5918C23.9968 76.1503 23.9029 76.7107 23.6811 77.225C23.4594 77.7393 23.1163 78.1922 22.6813 78.545ZM8.62356 73.078C5.405 68.4694 5.61243 58.4644 5.84473 54.4439C9.69967 55.6091 19.1655 58.8561 22.3845 63.4633C23.8069 65.4576 24.7773 67.7382 25.2281 70.146C25.0602 69.8601 24.909 69.568 24.7159 69.292C22.0039 65.4077 14.0875 63.2892 13.1937 63.0605C12.9932 63.0094 12.7841 63.0021 12.5805 63.0391C12.377 63.0761 12.1838 63.1566 12.0142 63.275C11.8446 63.3934 11.7025 63.5471 11.5977 63.7254C11.4929 63.9038 11.4277 64.1026 11.4067 64.3084C11.314 65.2266 10.5806 73.3883 13.2927 77.2712C13.4763 77.534 13.6748 77.7744 13.8716 78.0163C11.7869 76.7675 9.99668 75.083 8.62356 73.078ZM83.3764 73.078C82.0032 75.083 80.2129 76.7676 78.1281 78.0163C78.3249 77.7739 78.5234 77.534 78.707 77.2712C81.4191 73.3883 80.6857 65.2266 80.593 64.3084C80.572 64.1026 80.5068 63.9038 80.402 63.7254C80.2971 63.5471 80.1551 63.3934 79.9855 63.275C79.8158 63.1566 79.6227 63.0761 79.4191 63.0391C79.2156 63.0021 79.0065 63.0094 78.806 63.0605C77.9125 63.2892 69.9957 65.4077 67.2836 69.292C67.0905 69.568 66.9393 69.8601 66.7714 70.146C67.2223 67.7382 68.1927 65.4576 69.6152 63.4633C72.8342 58.8561 82.3 55.6091 86.155 54.4439C86.3875 58.4644 86.595 68.4694 83.3764 73.078Z" fill="black"/>
<path d="M64.6875 35.9375H73.3125C73.6937 35.9375 74.0594 35.7861 74.329 35.5165C74.5986 35.2469 74.75 34.8812 74.75 34.5C74.75 34.1188 74.5986 33.7531 74.329 33.4835C74.0594 33.2139 73.6937 33.0625 73.3125 33.0625H64.6875C64.3063 33.0625 63.9406 33.2139 63.671 33.4835C63.4014 33.7531 63.25 34.1188 63.25 34.5C63.25 34.8812 63.4014 35.2469 63.671 35.5165C63.9406 35.7861 64.3063 35.9375 64.6875 35.9375Z" fill="black"/>
<path d="M73.3125 37.375H66.125C65.7438 37.375 65.3781 37.5264 65.1085 37.796C64.8389 38.0656 64.6875 38.4313 64.6875 38.8125C64.6875 39.1937 64.8389 39.5594 65.1085 39.829C65.3781 40.0986 65.7438 40.25 66.125 40.25H73.3125C73.6937 40.25 74.0594 40.0986 74.329 39.829C74.5986 39.5594 74.75 39.1937 74.75 38.8125C74.75 38.4313 74.5986 38.0656 74.329 37.796C74.0594 37.5264 73.6937 37.375 73.3125 37.375Z" fill="black"/>
</svg>
