<svg width="32" height="32" viewBox="0 0 32 32" fill="none" xmlns="http://www.w3.org/2000/svg">
<path d="M12 15H7C6.20435 15 5.44129 14.6839 4.87868 14.1213C4.31607 13.5587 4 12.7956 4 12V7C4 6.20435 4.31607 5.44129 4.87868 4.87868C5.44129 4.31607 6.20435 4 7 4H12C12.7956 4 13.5587 4.31607 14.1213 4.87868C14.6839 5.44129 15 6.20435 15 7V12C15 12.7956 14.6839 13.5587 14.1213 14.1213C13.5587 14.6839 12.7956 15 12 15Z" fill="#5E54DD"/>
<path d="M25 15H20C19.2044 15 18.4413 14.6839 17.8787 14.1213C17.3161 13.5587 17 12.7956 17 12V7C17 6.20435 17.3161 5.44129 17.8787 4.87868C18.4413 4.31607 19.2044 4 20 4H25C25.7956 4 26.5587 4.31607 27.1213 4.87868C27.6839 5.44129 28 6.20435 28 7V12C28 12.7956 27.6839 13.5587 27.1213 14.1213C26.5587 14.6839 25.7956 15 25 15Z" fill="#5E54DD"/>
<path d="M12 28H7C6.20435 28 5.44129 27.6839 4.87868 27.1213C4.31607 26.5587 4 25.7956 4 25V20C4 19.2044 4.31607 18.4413 4.87868 17.8787C5.44129 17.3161 6.20435 17 7 17H12C12.7956 17 13.5587 17.3161 14.1213 17.8787C14.6839 18.4413 15 19.2044 15 20V25C15 25.7956 14.6839 26.5587 14.1213 27.1213C13.5587 27.6839 12.7956 28 12 28Z" fill="#5E54DD"/>
<path d="M25 28H20C19.2044 28 18.4413 27.6839 17.8787 27.1213C17.3161 26.5587 17 25.7956 17 25V20C17 19.2044 17.3161 18.4413 17.8787 17.8787C18.4413 17.3161 19.2044 17 20 17H25C25.7956 17 26.5587 17.3161 27.1213 17.8787C27.6839 18.4413 28 19.2044 28 20V25C28 25.7956 27.6839 26.5587 27.1213 27.1213C26.5587 27.6839 25.7956 28 25 28Z" fill="#5E54DD"/>
</svg>
