<svg width="44" height="102" viewBox="0 0 44 102" fill="none" xmlns="http://www.w3.org/2000/svg">
<path d="M30.4766 30.088V16.0337H13.5234V30.0792H13.5229C6.03868 33.4694 0.808594 41.2122 0.808594 50.2211H22V84.9062H0.808594V98.6812C0.808587 99.0986 0.890787 99.5119 1.0505 99.8975C1.21021 100.283 1.44431 100.633 1.73943 100.929C2.03455 101.224 2.38491 101.458 2.7705 101.617C3.15609 101.777 3.56936 101.859 3.98672 101.859H40.0133C40.8562 101.859 41.6645 101.525 42.2606 100.929C42.8566 100.332 43.1914 99.5241 43.1914 98.6812V50.2211C43.1914 41.2135 37.9587 33.4791 30.4766 30.088Z" fill="#5E54DD"/>
<path d="M30.4766 3.31306C30.4766 2.47168 30.1423 1.66476 29.5474 1.06981C28.9524 0.474864 28.1455 0.140625 27.3041 0.140625H16.6959C16.2793 0.140619 15.8667 0.222672 15.4818 0.382099C15.0969 0.541527 14.7472 0.775207 14.4526 1.0698C14.158 1.36439 13.9243 1.71412 13.7649 2.09902C13.6055 2.48392 13.5234 2.89645 13.5234 3.31306V9.67627H30.4766V3.31306Z" fill="#5E54DD"/>
</svg>
