<svg width="124" height="124" viewBox="0 0 124 124" fill="none" xmlns="http://www.w3.org/2000/svg">
<path d="M70.4766 41.088V27.0337H53.5234V41.0792H53.5229C46.0387 44.4694 40.8086 52.2122 40.8086 61.2211H62V95.9062H40.8086V109.681C40.8086 110.099 40.8908 110.512 41.0505 110.897C41.2102 111.283 41.4443 111.633 41.7394 111.929C42.0345 112.224 42.3849 112.458 42.7705 112.617C43.1561 112.777 43.5694 112.859 43.9867 112.859H80.0133C80.8562 112.859 81.6645 112.525 82.2606 111.929C82.8566 111.332 83.1914 110.524 83.1914 109.681V61.2211C83.1914 52.2135 77.9587 44.4791 70.4766 41.088Z" fill="#5E54DD"/>
<path d="M70.4766 14.3131C70.4766 13.4717 70.1423 12.6648 69.5474 12.0698C68.9524 11.4749 68.1455 11.1406 67.3041 11.1406H56.6959C56.2793 11.1406 55.8667 11.2227 55.4818 11.3821C55.0969 11.5415 54.7472 11.7752 54.4526 12.0698C54.158 12.3644 53.9243 12.7141 53.7649 13.099C53.6055 13.4839 53.5234 13.8965 53.5234 14.3131V20.6763H70.4766V14.3131Z" fill="#5E54DD"/>
</svg>
