<svg width="130" height="130" viewBox="0 0 130 130" fill="none" xmlns="http://www.w3.org/2000/svg">
<path d="M66.0421 120.693C96.7465 120.693 121.637 95.802 121.637 65.0975C121.637 34.3931 96.7465 9.5022 66.0421 9.5022C35.3376 9.5022 10.4468 34.3931 10.4468 65.0975C10.4468 95.802 35.3376 120.693 66.0421 120.693Z" fill="#CF9F66"/>
<path d="M66.1457 112.7C92.3786 112.7 113.644 91.434 113.644 65.2011C113.644 38.9683 92.3786 17.7024 66.1457 17.7024C39.9129 17.7024 18.647 38.9683 18.647 65.2011C18.647 91.434 39.9129 112.7 66.1457 112.7Z" fill="#89643D"/>
<path d="M60.6674 99.5454C81.4055 99.5454 98.217 82.7339 98.217 61.9957C98.217 41.2576 81.4055 24.446 60.6674 24.446C39.9292 24.446 23.1177 41.2576 23.1177 61.9957C23.1177 82.7339 39.9292 99.5454 60.6674 99.5454Z" fill="#C45C00"/>
<path d="M20.4101 52.776C20.4101 52.776 30.7532 43.4322 41.9535 45.3985C53.1538 47.3647 54.8235 58.3985 50.2816 62.6011C50.2816 62.6011 48.7988 62.4224 48.0127 59.9788C47.2266 57.5352 44.7973 52.2438 39.9791 52.26C35.161 52.2763 30.0118 53.036 19.4798 61.4494C19.2051 58.5251 19.5215 55.5755 20.4101 52.776Z" fill="#C98019"/>
<path d="M59.5706 41.9372C59.5706 41.9372 74.3114 32.2482 83.8867 42.64C85.7959 46.1107 88.0953 49.3519 90.7401 52.3007C93.5656 54.8113 100.693 56.9604 100.287 65.6582C99.8807 74.356 95.8304 77.2363 93.5595 77.4394C91.2886 77.6426 78.4206 75.7657 75.52 79.8282C72.6193 83.8907 73.9884 93.7686 70.2996 98.3775C66.6109 102.986 49.3392 96.4763 54.334 83.7525C59.3289 71.0288 50.8037 63.8991 49.2112 60.4947C47.6187 57.0904 43.4343 48.5672 54.8439 44.5738C66.2534 40.5804 63.7062 48.939 60.6939 49.9383C57.6815 50.9377 51.9046 51.6019 53.0137 57.6754C54.1228 63.7488 61.4962 66.491 60.9843 75.3472C60.4725 84.2035 56.8142 86.4704 58.557 89.9844C60.2998 93.4985 66.2412 96.7749 67.5128 92.9175C68.7843 89.0602 67.2609 77.7969 74.9532 73.2611C82.6456 68.7254 91.0164 73.8461 93.4782 71.4168C95.9401 68.9874 95.5704 62.7596 90.6162 59.2699C86.1027 55.8973 82.4053 51.553 79.7978 46.5583C77.3603 42.1688 68.764 42.25 61.3134 46.7249C53.8628 51.1997 52.8126 46.014 59.5706 41.9372Z" fill="#EB9800"/>
<path d="M54.2162 37.113C54.2162 37.113 48.358 29.8208 54.659 22.88C60.9599 15.9392 80.8926 21.0072 79.0055 31.9353C77.1185 42.8635 79.4869 42.508 82.4587 44.4742C85.4304 46.4405 90.6162 46.0261 94.5791 48.4331C98.5421 50.8402 101.869 55.8188 96.458 62.7088C93.933 66.1116 90.2643 68.4884 86.1267 69.402C81.989 70.3156 77.6606 69.7045 73.9376 67.6813C65.3738 63.5111 59.1866 60.2713 54.9271 71.5549C50.6676 82.8385 48.5246 91.2458 42.2013 91.7617C35.878 92.2777 34.3871 90.0108 36.8957 87.1853C39.4043 84.3599 42.1769 87.2645 44.6429 83.5494C47.1088 79.8342 47.0316 74.4494 52.5851 66.3731C58.1385 58.2969 65.9019 59.1602 73.578 63.3831C74.9599 64.2545 76.5024 64.8398 78.1144 65.1046C79.7264 65.3694 81.3751 65.3083 82.963 64.9248C84.551 64.5413 86.0459 63.8432 87.3594 62.8719C88.6729 61.9006 89.7782 60.6758 90.6101 59.2699C93.7565 54.5147 92.6576 51.0088 79.6555 49.6722C79.6555 49.6722 70.5048 47.0316 71.9551 38.3846C73.4054 29.7375 70.9191 25.0941 65.4835 24.9174C60.0479 24.7406 55.6157 29.183 58.1141 37.1861C60.6126 45.1892 54.2162 37.113 54.2162 37.113Z" fill="#D68B00"/>
<path d="M96.6733 53.0156C96.6733 53.0156 99.0072 42.382 89.9925 36.6335C80.9778 30.8851 72.8569 40.2532 68.6888 48.821C64.5207 57.3889 68.1546 65.132 62.9688 68.7578C57.783 72.3835 48.685 68.0671 43.0625 68.8289C37.44 69.5906 23.4305 78.4875 41.2344 93.8904C59.0383 109.293 80.0699 92.0217 82.8222 87.8596C85.5746 83.6976 86.446 79.1496 90.0433 75.9748C93.6406 72.8 86.7669 71.8839 84.9957 73.9171C82.4683 77.0174 80.3519 80.4311 78.6988 84.0734C76.7366 88.339 66.2289 93.5573 58.6686 93.6832C51.1083 93.8092 40.6677 89.8929 39.2519 81.0529C37.8361 72.2129 50.6472 75.1318 53.4707 76.3567C56.2941 77.5815 73.125 75.0465 73.125 60.519C73.125 45.9915 82.0483 41.2221 88.0324 42.1809C94.0164 43.1396 91.8308 54.5207 90.1083 56.1579C88.3858 57.7951 80.9453 64.1956 71.4208 56.621L69.611 61.6179C69.611 61.6179 77.5978 69.8912 86.1839 66.5985C94.77 63.3059 96.6733 53.0156 96.6733 53.0156Z" fill="#EBBA1D"/>
<path d="M45.7662 64.5816C45.7662 64.5816 33.3166 55.5466 43.349 41.8316C53.3813 28.1166 71.9571 30.3164 73.1251 36.5381C74.2931 42.7598 69.9056 48.6708 75.1563 56.4708C80.4071 64.2708 91.1179 63.3445 95.672 74.8556C100.226 86.3667 81.047 100.592 69.0788 89.6269C57.1107 78.6622 67.0842 71.3253 70.2976 69.6089C73.511 67.8925 74.8232 71.0003 73.054 73.6714C71.2848 76.3425 63.6696 82.0442 74.4393 88.0466C85.209 94.0489 95.9848 81.1505 89.5132 74.4656C83.0416 67.7808 81.4552 70.4173 73.3445 61.8475C65.2337 53.2776 68.3943 45.5975 68.4207 42.4084C68.4471 39.2194 64.6487 34.3037 58.0979 37.182C51.5471 40.0603 36.6174 51.9736 50.6331 63.9681C50.6554 63.9722 51.0718 66.4909 45.7662 64.5816Z" fill="#FFCA1F"/>
<path d="M98.9789 52.067C98.9789 52.067 86.1536 44.6509 77.797 59.2089C69.4404 73.7668 94.8798 82.4728 96.6348 75.9423C98.3898 69.4118 96.0762 71.9428 92.9664 72.4465C89.8565 72.9503 78.7476 73.2895 80.6712 61.3234C82.347 50.9498 95.1357 52.9039 97.9693 55.4775C98.1541 55.6623 98.3792 55.8019 98.6268 55.8853C98.8745 55.9688 99.1381 55.9939 99.397 55.9588C99.656 55.9236 99.9033 55.829 100.12 55.6824C100.336 55.5359 100.516 55.3413 100.644 55.1139C101.016 54.3704 100.795 53.3568 98.9789 52.067Z" fill="#FFD85E"/>
<path d="M66.8282 80.7321C66.8282 80.7321 75.2254 76.0318 74.0127 68.6604C72.8001 61.289 71.5752 62.8875 71.7784 64.2952C71.9815 65.7029 73.8381 70.6266 71.0349 74.3804C69.6865 76.574 67.8552 78.431 65.6806 79.8099C62.7535 82.0443 66.2331 81.1424 66.8282 80.7321Z" fill="#FFE38A"/>
<path d="M64.0961 32.7824C64.0961 32.7824 70.653 31.8338 72.1135 36.1644C73.574 40.495 72.6761 37.9783 70.6693 36.6519C68.6624 35.3255 59.8752 34.3281 64.0961 32.7824Z" fill="#FFD85E"/>
<path d="M74.5734 106.531C92.8895 106.531 107.738 91.6828 107.738 73.3667C107.738 55.0506 92.8895 40.2025 74.5734 40.2025C56.2573 40.2025 41.4092 55.0506 41.4092 73.3667C41.4092 91.6828 56.2573 106.531 74.5734 106.531Z" fill="#D96600"/>
<path d="M90.8416 106.013C90.8416 106.013 96.714 95.1945 92.7063 85.9869C88.6986 76.7792 78.8755 77.6364 76.2085 82.4078C76.2085 82.4078 76.6716 83.6449 78.9324 83.8134C81.1932 83.982 86.2449 84.9692 87.224 89.1089C88.203 93.2486 88.6255 97.825 83.588 108.609C86.1555 108.239 88.6223 107.356 90.8416 106.013Z" fill="#C98019"/>
<path d="M92.0157 70.1452C92.0157 70.1452 97.2746 55.4816 86.3647 49.4264C82.9892 48.5069 79.7297 47.2052 76.6493 45.5467C73.9091 43.6414 70.586 37.9722 63.2044 40.1314C55.8228 42.2906 54.1938 46.3511 54.4883 48.3438C54.7829 50.3364 59.0668 60.9842 56.1804 64.3175C53.2939 67.6508 44.5311 68.5242 41.34 72.6456C38.1489 76.767 47.32 90.2444 57.2021 83.3178C67.0841 76.3913 74.9775 82.2291 78.2296 82.8913C81.4816 83.5535 89.6777 85.3714 90.74 74.7541C91.8024 64.1367 85.1541 68.051 84.9205 70.846C84.6869 73.641 85.3268 78.7374 79.8728 79.0461C74.4189 79.3549 70.5453 73.5922 63.0561 75.8672C55.5669 78.1422 54.3624 81.7578 50.9946 80.9819C47.6268 80.206 43.5683 75.7941 46.6172 73.903C49.6661 72.0119 59.6497 70.982 61.9389 63.438C64.2282 55.8939 58.1039 49.7656 59.6782 47.1555C61.2524 44.5453 66.6758 43.5622 70.6997 47.0905C74.5307 50.2658 79.0273 52.538 83.8561 53.7388C88.1218 54.921 89.8443 62.3188 87.5489 69.6394C85.2536 76.96 89.9235 76.7914 92.0157 70.1452Z" fill="#EB9800"/>
<path d="M97.2725 73.7343C99.3613 74.704 101.726 74.9013 103.947 74.2909C106.167 73.6805 108.099 72.3022 109.399 70.4011C114.051 63.5517 105.564 47.4926 96.5758 51.3804C87.5875 55.2683 87.3986 53.1598 85.0932 51.0168C82.7877 48.8739 82.0625 44.3401 79.1802 41.4375C76.2979 38.5348 71.3254 36.7108 66.5357 42.7842C64.1402 45.6581 62.8623 49.3 62.937 53.0407C63.0116 56.7813 64.4337 60.3693 66.9419 63.1454C72.2983 69.6333 76.3649 74.2726 67.5513 80.2709C58.7377 86.2692 51.9777 89.8523 52.845 95.3875C53.7124 100.923 55.9691 101.733 57.8744 98.9929C59.7797 96.2528 56.7085 94.4693 59.3877 91.589C62.0669 88.7087 66.7002 87.6504 72.4852 81.2053C78.2702 74.7601 75.914 68.2764 70.6977 62.5645C69.6632 61.5587 68.8408 60.3557 68.2792 59.0266C67.7177 57.6975 67.4283 56.2693 67.4283 54.8265C67.4283 53.3836 67.7177 51.9554 68.2792 50.6263C68.8408 49.2972 69.6632 48.0942 70.6977 47.0884C74.1265 43.4017 77.3643 43.617 81.2094 54.5004C81.2094 54.5004 85.3715 61.8129 92.4971 58.7661C99.6227 55.7192 104.122 56.8973 105.402 61.5265C106.681 66.1558 103.797 70.8906 96.4011 70.4051C89.0054 69.9197 97.2725 73.7343 97.2725 73.7343Z" fill="#D68B00"/>
<path d="M74.807 40.5945C74.807 40.5945 83.45 36.3858 90.2567 42.9305C97.0634 49.4752 90.7056 58.3903 84.2178 63.7467C77.73 69.1031 70.3281 67.5898 68.2887 72.7858C66.2493 77.9817 71.8454 84.9042 72.3512 89.897C72.857 94.8898 68.1364 108.755 51.2262 96.6733C34.3161 84.5914 44.7729 62.9545 47.7731 59.7228C50.7732 56.4911 54.4986 54.8031 56.479 51.0555C58.4595 47.3078 60.6695 53.0197 59.2923 54.9636C57.1547 57.7768 54.6635 60.3028 51.8803 62.4792C48.6303 65.0447 46.3268 75.1502 47.7873 81.6664C49.2478 88.1827 54.7768 96.332 62.6581 95.7145C70.5393 95.097 65.3779 84.7031 63.7407 82.5358C62.1036 80.3684 60.7812 65.3859 73.2551 62.3736C85.729 59.3612 87.9756 50.7061 85.9037 45.7702C83.8318 40.8342 74.5287 45.0694 73.4745 46.8873C72.4203 48.7053 68.4736 56.422 76.952 63.0175L73.0398 65.6094C73.0398 65.6094 64.2811 60.4703 65.3211 52.4062C66.3611 44.3422 74.807 40.5945 74.807 40.5945Z" fill="#EBBA1D"/>
<path d="M75.4447 86.6958C75.4447 86.6958 85.7858 95.5073 95.4749 84.0551C105.164 72.603 99.4257 57.1065 93.8499 57.393C88.2741 57.6794 84.0999 62.6742 76.3161 59.7817C68.5324 56.8892 67.1044 47.5048 56.2758 45.9692C45.4472 44.4336 37.2085 63.8625 49.1055 71.8656C61.0025 79.8687 65.2296 69.7795 66.036 66.6595C66.8424 63.5395 63.9011 63.0622 61.9735 65.1361C60.0458 67.21 56.7328 74.9308 49.3452 66.9297C41.9575 58.9286 50.7955 47.0031 57.8764 51.1733C64.9574 55.3434 63.0236 57.2487 72.0627 62.4345C81.1018 67.6203 87.0411 63.312 89.7732 62.6376C92.5052 61.9633 97.5122 64.1956 96.4011 70.4153C95.29 76.635 88.1563 91.914 74.9532 82.3712C74.9532 82.3712 72.7066 82.5358 75.4447 86.6958Z" fill="#FFCA1F"/>
<path d="M110.372 80.338C107.17 79.1973 104.368 77.1508 102.308 74.4474C97.951 69.4282 92.2493 64.1225 80.7422 69.2149C69.2352 74.3072 70.8805 87.4433 79.5966 92.9805C79.5966 92.9805 82.4627 93.7118 79.3285 90.151C76.1943 86.5902 73.123 80.1877 79.1254 75.461C85.1277 70.7343 90.803 70.5291 95.804 74.8516C100.805 79.1741 103.159 84.2726 109.052 85.5624C109.75 83.8964 110.195 82.1355 110.372 80.338Z" fill="#FFD03B"/>
<path d="M92.3143 102.869C92.3143 102.869 107.539 98.9788 106.939 79.8769C106.939 79.8769 105.824 69.8141 94.6848 71.2177C83.5454 72.6213 79.4219 69.4323 75.8612 65.6379C72.3004 61.8435 65.1849 59.0932 58.3782 67.1044C51.5715 75.1157 58.4858 100.086 75.9526 95.8629C93.4193 91.6399 76.7529 106.44 73.9863 106.123C71.2198 105.806 70.0274 105.18 65.9771 101.735C61.9268 98.2902 53.1904 87.5855 43.1194 88.5321C43.1194 88.5321 42.2298 89.3162 44.9212 92.1416C47.6126 94.9671 50.7224 90.9229 60.5049 100.512C70.2874 110.102 73.6695 113.563 84.7134 102.558C95.7573 91.5526 85.1196 90.6852 82.6273 91.1098C80.1349 91.5343 70.8013 94.2927 65.4937 88.3899C60.186 82.4871 59.4974 72.6579 63.954 68.9041C68.4105 65.1504 71.2137 66.4666 74.7927 70.7668C78.3718 75.0669 88.3107 77.3765 94.7498 75.3066C101.189 73.2368 106.104 82.1601 99.9051 93.1573C93.7057 104.154 78.1382 101.128 74.9532 100.75C72.2984 100.429 62.8815 99.1921 58.6768 102.02C58.372 102.237 58.1234 102.524 57.9515 102.856C57.7796 103.189 57.6893 103.558 57.6881 103.932C57.6869 104.306 57.7748 104.676 57.9446 105.009C58.1144 105.343 58.3612 105.631 58.6646 105.851C59.4087 106.527 60.3902 106.881 61.3946 106.836C63.1374 106.454 61.7379 103.586 82.3063 104.414C84.7264 104.509 87.1478 104.262 89.499 103.681C90.4334 103.444 91.4063 103.173 92.3143 102.869Z" fill="#FFD85E"/>
<path d="M75.1563 38.417C75.1563 38.417 84.1832 47.8888 73.4175 58.0755C62.6519 68.2622 49.9038 48.2381 55.1363 45.3761C60.3688 42.5141 58.6869 45.0247 58.8982 47.8014C59.1094 50.5781 61.1325 60.192 70.9983 56.0483C79.556 52.457 75.2254 41.8824 72.4202 39.9852C72.2232 39.8648 72.0567 39.7006 71.9337 39.5053C71.8106 39.31 71.7343 39.0889 71.7107 38.8593C71.6871 38.6297 71.7169 38.3977 71.7977 38.1815C71.8785 37.9652 72.0081 37.7706 72.1765 37.6127C72.7472 37.1475 73.6633 37.1252 75.1563 38.417Z" fill="#FFD85E"/>
<path d="M57.2122 71.9672C57.2122 71.9672 59.5035 63.7854 66.0827 63.2958C72.6619 62.8063 71.5447 64.1835 70.2955 64.3115C69.0463 64.4394 64.4333 63.8544 61.7927 67.0394C60.1894 68.6527 58.9751 70.6104 58.2421 72.7635C56.9299 75.7352 56.9827 72.5604 57.2122 71.9672Z" fill="#FFE38A"/>
<path d="M98.9401 64.3621C98.9401 64.3621 98.3958 58.5365 94.3739 58.181C90.352 57.8256 92.7001 58.0734 94.2561 59.5217C95.812 60.97 98.4994 68.3028 98.9401 64.3621Z" fill="#FFD85E"/>
<path d="M43.4689 24.4522C43.4689 24.4522 45.4087 28.2994 52.0936 31.7647C58.7784 35.23 66.1315 40.0929 63.5884 54.1085C61.0453 68.1241 46.1521 69.81 37.7468 61.6871C37.7468 61.6871 36.1787 58.7275 40.9318 61.2321C45.685 63.7366 53.5479 65.4104 57.1514 57.5413C60.7548 49.6722 59.4731 43.3754 53.3793 39.0224C47.2856 34.6694 41.0537 33.4344 38.0678 27.2919C38.0718 27.2879 42.3598 24.3568 43.4689 24.4522Z" fill="#FFD03B"/>
<path d="M23.4772 50.3202C23.4772 50.3202 23.7108 32.5285 44.8927 28.1166C44.8927 28.1166 56.2677 26.6663 57.6896 39.3007C59.1114 51.935 63.7142 55.6238 68.8411 58.5325C73.968 61.4413 78.8836 68.5405 71.8758 78.1646C64.868 87.7886 35.5469 86.8197 35.5469 66.4727C35.5469 46.1257 23.6946 68.4044 24.7813 71.366C25.868 74.3275 26.8714 75.4732 31.7403 79.0136C36.6092 82.5541 50.7163 89.3222 52.3514 100.659C52.3514 100.659 51.7238 101.845 47.8989 99.643C44.0741 97.4411 47.6958 92.9399 34.5394 84.7194C21.383 76.4989 16.6644 73.7019 25.8477 58.6219C35.031 43.5419 38.8071 55.0164 39.0021 57.8704C39.1971 60.7243 38.6446 71.7316 46.5542 76.0033C54.4639 80.275 65.4591 78.4063 68.4024 72.5157C71.3456 66.625 69.1499 63.8768 63.4685 61.0797C57.7871 58.2827 52.6094 47.9538 53.166 40.3163C53.7225 32.6788 42.6035 29.6441 32.1486 39.3921C21.6938 49.14 29.1647 65.4571 30.4383 68.8594C31.4986 71.7032 35.3641 81.7294 33.3694 87.1102C33.211 87.5032 32.9613 87.8529 32.641 88.1304C32.3208 88.4078 31.9391 88.6051 31.5275 88.7059C31.1159 88.8068 30.6862 88.8082 30.274 88.7102C29.8617 88.6121 29.4787 88.4174 29.1566 88.1421C28.2152 87.5025 27.5647 86.5169 27.3467 85.3999C27.3041 83.3808 30.8283 84.1588 24.4481 61.7419C23.7018 59.1034 23.3298 56.3731 23.3431 53.6311C23.3472 52.5424 23.3817 51.3907 23.4772 50.3202Z" fill="#FFE38C"/>
<path d="M53.9419 30.9847C53.9419 30.9847 57.3442 32.8413 58.041 41.9697C58.309 45.4568 59.4667 48.8168 61.4034 51.729C63.34 54.6411 65.991 57.008 69.1031 58.6036C70.5708 59.3714 71.8613 60.4381 72.8914 61.7352C73.9216 63.0322 74.6684 64.5307 75.0839 66.1341C75.4994 67.7375 75.5743 69.4101 75.3037 71.0442C75.0331 72.6783 74.4231 74.2376 73.513 75.6215C73.513 75.6215 78.6967 64.6365 68.4836 59.144C58.2705 53.6515 57.5006 46.144 57.0355 41.8154C56.5703 37.4868 56.4931 34.4663 53.9419 30.9847Z" fill="#FFF4D1"/>
<path d="M92.363 39.5972C91.1877 37.8264 89.4406 36.5122 87.4133 35.8742C85.3861 35.2361 83.2013 35.3127 81.2236 36.0912C81.2236 36.0912 78.9547 37.4318 81.9447 37.2267C83.6664 36.91 85.438 36.997 87.1203 37.481C88.8026 37.9649 90.3497 38.8325 91.6399 40.0156C94.7355 43.1051 92.7754 40.1131 92.363 39.5972Z" fill="#FFD03B"/>
<path d="M71.4249 72.1927C71.4249 72.1927 73.899 68.4796 72.0343 65.384C70.1696 62.2883 71.041 61.7521 72.0546 62.4346C73.0113 63.3306 73.7491 64.4347 74.2109 65.6615C74.6727 66.8883 74.846 68.2049 74.7176 69.5094C74.5652 73.3688 72.1379 78.7943 68.0144 80.1349C63.891 81.4755 66.4727 77.6588 71.4249 72.1927Z" fill="#FFF0C2"/>
<path d="M28.8255 54.6569C28.8255 54.6569 32.5386 50.4278 35.0147 51.5633C35.9583 52.1729 36.7476 52.9933 37.3204 53.9598C37.8931 54.9263 38.2338 56.0125 38.3155 57.133C38.4171 58.1648 38.7217 62.8062 38.9249 63.9397C39.128 65.0731 37.6878 64.7664 37.5842 62.7026C37.4806 60.6389 37.5842 53.4198 34.6958 52.9039C33.6529 52.7305 32.5822 52.8621 31.6124 53.283C30.6427 53.7039 29.8152 54.3962 29.2297 55.2764C28.5167 56.3083 28.4131 55.2764 28.8255 54.6569Z" fill="#FFF0C2"/>
<path opacity="0.51" d="M110.321 61.1914C115.649 84.8941 91.7861 116.035 66.3325 108.8C42.9732 102.156 19.9307 92.5945 19.9307 68.3008C19.9307 44.007 40.8282 19.2969 65.126 19.2969C89.4238 19.2969 106.513 44.2427 110.321 61.1914Z" fill="#FFF276"/>
<path d="M88.4854 28.0576C88.4854 28.0576 85.6924 25.3906 84.043 28.3115C82.3937 31.2325 85.5665 31.6123 87.0899 31.8662C87.0899 31.8662 85.3126 33.6436 87.7237 34.4053C90.1347 35.167 93.6915 34.1514 97.754 38.5937C101.816 43.0361 108.036 55.4795 105.371 62.4609C102.706 69.4423 109.688 75.4101 108.418 79.8545C107.148 84.2989 105.497 90.8984 102.324 93.4375C99.1515 95.9765 95.5947 99.7851 99.2774 99.2773C99.2774 99.2773 109.941 89.503 111.083 70.0781C112.014 64.049 111.037 57.8796 108.29 52.4326C105.41 47.3519 102.186 42.4736 98.6416 37.832C97.754 36.3086 96.7383 32.2461 88.4854 28.0576Z" fill="#FFF2FF"/>
<path d="M41.5127 99.6593C41.5127 99.6593 38.4659 96.9922 41.8946 95.5968C45.3234 94.2013 47.7345 98.6436 47.7345 100.039C47.7345 101.435 50.5274 103.468 55.7315 104.737C60.9356 106.007 61.3174 104.102 63.9845 104.863C66.6515 105.625 70.8399 109.18 75.0284 108.418C79.2168 107.656 80.3604 109.054 77.3135 109.562C74.2667 110.069 55.8595 108.164 41.5127 99.6593Z" fill="#FFF2FF"/>
<path d="M76.7427 38.0859C78.1797 38.0859 79.3447 37.0346 79.3447 35.7378C79.3447 34.4409 78.1797 33.3896 76.7427 33.3896C75.3056 33.3896 74.1406 34.4409 74.1406 35.7378C74.1406 37.0346 75.3056 38.0859 76.7427 38.0859Z" fill="#FFF2FF"/>
<path d="M56.483 53.2188C56.5551 55.5155 56.154 57.8026 55.3045 59.9376C54.455 62.0727 53.1754 64.0102 51.5451 65.6296C49.9149 67.249 47.9689 68.5157 45.8281 69.3509C43.6874 70.1861 41.3978 70.5719 39.1016 70.4844C34.2149 70.4496 29.5355 68.5055 26.0628 65.0673C22.59 61.6291 20.5993 56.9694 20.5156 52.0833C20.5156 42.0408 29.1119 34.7588 39.1544 34.7588C49.1969 34.7588 56.483 43.1844 56.483 53.2188Z" fill="#965030"/>
<path d="M39.1016 68.4368C48.0067 68.4368 55.2257 61.2179 55.2257 52.3128C55.2257 43.4077 48.0067 36.1887 39.1016 36.1887C30.1965 36.1887 22.9775 43.4077 22.9775 52.3128C22.9775 61.2179 30.1965 68.4368 39.1016 68.4368Z" fill="#FFB95C"/>
<path d="M39.1016 67.4071C47.1619 67.4071 53.6961 60.8729 53.6961 52.8125C53.6961 44.7522 47.1619 38.218 39.1016 38.218C31.0413 38.218 24.5071 44.7522 24.5071 52.8125C24.5071 60.8729 31.0413 67.4071 39.1016 67.4071Z" fill="#FFE9CC"/>
<path d="M39.1017 66.5701C46.2915 66.5701 52.1199 60.7416 52.1199 53.5519C52.1199 46.3621 46.2915 40.5336 39.1017 40.5336C31.9119 40.5336 26.0834 46.3621 26.0834 53.5519C26.0834 60.7416 31.9119 66.5701 39.1017 66.5701Z" fill="url(#paint0_linear_4_2280)"/>
<path opacity="0.47" d="M25.5511 60.9375C25.5511 60.9375 32.9266 44.7282 44.1615 37.438C44.1615 37.438 46.1338 36.8286 47.6776 39.325C49.2213 41.8215 29.2379 54.9352 34.8136 56.9075C40.3894 58.8799 51.3663 44.0416 54.8824 50.046C54.8824 50.046 55.9976 52.7049 51.3663 56.5643C46.7351 60.4236 41.8438 66.95 41.5879 68.3211C40.3367 68.4742 39.0757 68.5319 37.8158 68.4938C41.3718 63.3185 45.548 58.598 50.2511 54.4375C53.8526 51.9513 51.6243 50.3202 47.0011 54.0943C42.378 57.8683 32.4208 62.6722 31.9902 57.0965C31.5596 51.5207 40.2249 44.0599 42.1119 42.7741C43.999 41.4883 42.8838 40.7144 41.0821 42.3455C34.782 47.9217 29.9016 54.919 26.8451 62.7575C26.342 62.2052 25.9075 61.5941 25.5511 60.9375Z" fill="#FF9100"/>
<path d="M25.5511 60.9375C28.3474 55.2544 31.8019 49.9196 35.8434 45.0429C41.2181 39.2112 44.0192 37.0946 45.4492 37.5517C45.0801 37.3546 44.6981 37.1829 44.3056 37.0378C43.6759 36.8082 39.5017 39.325 34.2997 45.3862C30.6388 49.9603 27.5292 54.9495 25.0352 60.2509L25.5511 60.9375Z" fill="#FFE9CC"/>
<path d="M21.1473 56.8283C20.0524 52.8566 20.4267 48.6233 22.2017 44.9054C23.9767 41.1875 27.0332 38.2347 30.81 36.5889C34.5738 34.6115 38.934 34.0897 43.0581 35.1231C47.1823 36.1564 50.7813 38.6726 53.168 42.1911C53.168 42.1911 43.7328 30.2412 30.81 36.9322C27.2129 38.6979 24.3086 41.6145 22.558 45.219C20.8075 48.8235 20.311 52.9094 21.1473 56.8283Z" fill="#70270F"/>
<path d="M44.6225 21.5557C46.5712 20.3377 48.7496 19.5337 51.0222 19.1935C53.2949 18.8533 55.6132 18.9843 57.8331 19.5783C60.053 20.1724 62.1269 21.2167 63.926 22.6464C65.725 24.0762 67.2107 25.8607 68.2906 27.8891C70.7209 32.1317 71.3953 37.1565 70.1697 41.8897C68.9441 46.6229 65.9157 50.689 61.7317 53.2188C53.0522 58.2705 42.4349 54.5046 37.3811 45.8271C32.3274 37.1496 35.9531 26.6094 44.6225 21.5557Z" fill="#965030"/>
<path d="M52.579 53.1619C61.4841 53.1619 68.7031 45.943 68.7031 37.0379C68.7031 28.1328 61.4841 20.9138 52.579 20.9138C43.6739 20.9138 36.455 28.1328 36.455 37.0379C36.455 45.943 43.6739 53.1619 52.579 53.1619Z" fill="#FFB95C"/>
<path d="M53.0116 51.3805C61.072 51.3805 67.6062 44.8463 67.6062 36.7859C67.6062 28.7256 61.072 22.1914 53.0116 22.1914C44.9513 22.1914 38.4171 28.7256 38.4171 36.7859C38.4171 44.8463 44.9513 51.3805 53.0116 51.3805Z" fill="#FFE9CC"/>
<path d="M53.6494 49.4326C60.8392 49.4326 66.6677 43.6041 66.6677 36.4143C66.6677 29.2245 60.8392 23.396 53.6494 23.396C46.4596 23.396 40.6311 29.2245 40.6311 36.4143C40.6311 43.6041 46.4596 49.4326 53.6494 49.4326Z" fill="url(#paint1_linear_4_2280)"/>
<path opacity="0.47" d="M66.8587 44.4052C66.8587 44.4052 49.1381 46.1866 37.1862 40.1395C36.7188 39.5866 36.4509 38.8927 36.4255 38.1691C36.4 37.4456 36.6186 36.7345 37.0461 36.1502C38.4192 33.5644 59.8143 44.2325 58.7134 38.4211C57.6125 32.6097 39.2682 30.5906 42.6868 24.5294C42.6868 24.5294 44.4236 22.228 50.0887 24.2897C55.7539 26.3514 63.8464 27.2959 65.1626 26.8267C65.9244 27.8317 66.6089 28.8931 67.2101 30.0016C60.9454 29.5353 54.7615 28.3026 48.7968 26.3311C44.8359 24.4705 44.5495 27.2167 50.1395 29.3211C55.7295 31.4255 64.8884 37.6066 60.2856 40.7814C55.6828 43.9563 44.8765 40.2249 42.8168 39.2417C40.7572 38.2586 40.6495 39.6114 42.9631 40.3467C50.952 42.9856 59.4549 43.682 67.7667 42.378C67.5474 43.088 67.2425 43.7688 66.8587 44.4052Z" fill="#FF9100"/>
<path d="M66.8586 44.4051C60.5402 44.8475 54.1917 44.5462 47.9436 43.5073C40.1985 41.797 36.9607 40.4401 36.6377 38.9756C36.6508 39.3939 36.6943 39.8107 36.7677 40.2228C36.8855 40.8809 41.1613 43.2229 49.0161 44.6692C54.811 45.5313 60.6873 45.7078 66.5235 45.1953L66.8586 44.4051Z" fill="#FFE9CC"/>
<path d="M65.5159 50.2795C62.6347 53.2215 58.7892 55.0259 54.6851 55.3617C50.581 55.6975 46.4933 54.5421 43.1722 52.1077C39.5688 49.8506 36.9234 46.345 35.7415 42.2606C34.5597 38.1762 34.9243 33.7996 36.7656 29.967C36.7656 29.967 31.1858 44.133 43.4688 51.933C46.803 54.1519 50.7826 55.1943 54.7765 54.8947C58.7704 54.5952 62.55 52.971 65.5159 50.2795Z" fill="#70270F"/>
<path d="M84.9936 47.4683C83.5221 49.2334 81.7032 50.6768 79.65 51.7088C77.5968 52.7409 75.3532 53.3394 73.0587 53.4673C70.7643 53.5951 68.4681 53.2495 66.3129 52.452C64.1578 51.6544 62.1897 50.422 60.5313 48.8313C56.9011 45.5582 54.6949 40.9952 54.384 36.1172C54.0731 31.2392 55.6823 26.4331 58.8677 22.7257C65.5383 15.2202 76.8016 15.4863 84.3091 22.1549C91.8166 28.8235 91.6642 39.9608 84.9936 47.4683Z" fill="#965030"/>
<path d="M72.6071 51.3642C81.5122 51.3642 88.7312 44.1452 88.7312 35.2402C88.7312 26.3351 81.5122 19.1161 72.6071 19.1161C63.702 19.1161 56.483 26.3351 56.483 35.2402C56.483 44.1452 63.702 51.3642 72.6071 51.3642Z" fill="#FFB95C"/>
<path d="M72.2761 50.2085C80.3364 50.2085 86.8706 43.6743 86.8706 35.6139C86.8706 27.5536 80.3364 21.0194 72.2761 21.0194C64.2157 21.0194 57.6815 27.5536 57.6815 35.6139C57.6815 43.6743 64.2157 50.2085 72.2761 50.2085Z" fill="#FFE9CC"/>
<path d="M71.7844 49.1848C78.9742 49.1848 84.8027 43.3563 84.8027 36.1665C84.8027 28.9767 78.9742 23.1482 71.7844 23.1482C64.5946 23.1482 58.7661 28.9767 58.7661 36.1665C58.7661 43.3563 64.5946 49.1848 71.7844 49.1848Z" fill="url(#paint2_linear_4_2280)"/>
<path opacity="0.47" d="M56.743 32.7032C56.743 32.7032 73.0234 25.4841 86.2652 27.4971C86.8816 27.8764 87.3525 28.4521 87.6019 29.1316C87.8514 29.811 87.8649 30.5546 87.6403 31.2427C87.1427 34.1291 63.4867 30.6658 66.3447 35.8435C69.2027 41.0212 87.2666 37.2187 85.9056 44.0437C85.9056 44.0437 84.9733 46.7716 78.9466 46.5807C72.9199 46.3897 64.9309 48.0148 63.8341 48.8699C62.7964 48.1531 61.8152 47.3579 60.8989 46.4913C66.9966 44.9823 73.256 44.2251 79.5377 44.2366C83.8825 44.7708 83.2975 42.0713 77.3297 41.8154C71.3619 41.5594 60.7323 38.543 64.1144 34.0966C67.4964 29.6502 78.9283 29.831 81.1931 30.1113C83.458 30.3916 83.137 29.0855 80.7097 29.1079C72.2958 29.0921 63.9992 31.0815 56.5074 34.9112C56.4971 34.1684 56.5762 33.4271 56.743 32.7032Z" fill="#FF9100"/>
<path d="M56.743 32.7032C62.6081 30.3125 68.7336 28.619 74.9938 27.6575C82.8852 26.8674 86.3851 27.1457 87.1509 28.4375C87.007 28.0446 86.8353 27.6624 86.6369 27.294C86.318 26.7049 81.5284 25.8132 73.6126 26.8877C67.8373 27.875 62.1988 29.5406 56.8141 31.85L56.743 32.7032Z" fill="#FFE9CC"/>
<path d="M56.1865 26.6926C58.0053 22.9957 61.0967 20.0791 64.893 18.4783C68.6894 16.8775 72.9358 16.7001 76.8525 17.9786C80.9813 18.9975 84.5897 21.5024 86.9879 25.0144C89.3862 28.5263 90.406 32.7989 89.8525 37.0154C89.8525 37.0154 90.7361 21.8156 76.6331 18.2345C72.7698 17.1635 68.6594 17.4141 64.9549 18.9465C61.2504 20.479 58.1642 23.2054 56.1865 26.6926Z" fill="#70270F"/>
<path d="M108.469 68.5506C106.876 72.0551 103.973 74.7956 100.383 76.1838C96.7923 77.572 92.8007 77.4973 89.2648 75.9758C85.7288 74.4543 82.9303 71.6072 81.4698 68.0456C80.0093 64.484 80.0034 60.4917 81.4531 56.9258C86.3383 45.8554 95.0625 41.2465 102.525 44.4579C109.988 47.6694 112.775 58.5325 108.469 68.5506Z" fill="#FFF0DB"/>
<path d="M94.3577 75.5707C100.679 75.5707 105.804 70.4461 105.804 64.1246C105.804 57.8031 100.679 52.6785 94.3577 52.6785C88.0362 52.6785 82.9116 57.8031 82.9116 64.1246C82.9116 70.4461 88.0362 75.5707 94.3577 75.5707Z" fill="#FFBC00"/>
<path d="M84.1609 51.9471C87.29 49.6037 90.8873 47.9618 94.7078 47.1332C98.5284 46.3046 102.483 46.3087 106.301 47.1453L107.406 48.3518C107.406 48.3518 96.7465 45.7945 82.8284 54.1775L84.1609 51.9471Z" fill="#FFF8F0"/>
<path opacity="0.24" d="M94.2622 72.2374C98.8202 72.2374 102.515 68.5424 102.515 63.9844C102.515 59.4264 98.8202 55.7314 94.2622 55.7314C89.7043 55.7314 86.0093 59.4264 86.0093 63.9844C86.0093 68.5424 89.7043 72.2374 94.2622 72.2374Z" fill="#FFF276"/>
<path d="M94.4735 99.2164C90.8495 100.66 86.8004 100.605 83.217 99.0636C79.6335 97.522 76.8093 94.62 75.3655 90.996C73.9217 87.372 73.9767 83.3229 75.5184 79.7395C77.06 76.156 79.962 73.3318 83.586 71.888C94.8655 67.5147 104.305 70.4255 107.301 77.9818C110.297 85.538 104.609 95.1804 94.4735 99.2164Z" fill="#FFF8ED"/>
<path d="M87.6261 97.5589C93.9476 97.5589 99.0722 92.4343 99.0722 86.1128C99.0722 79.7913 93.9476 74.6667 87.6261 74.6667C81.3046 74.6667 76.1801 79.7913 76.1801 86.1128C76.1801 92.4343 81.3046 97.5589 87.6261 97.5589Z" fill="#FFBC00"/>
<path d="M89.0297 70.2812C92.9005 70.8368 96.6061 72.2198 99.8943 74.3363C103.183 76.4527 105.976 79.2528 108.085 82.5459L108.012 84.1709C108.012 84.1709 102.282 74.8272 86.515 70.9109L89.0297 70.2812Z" fill="white"/>
<path d="M76.5132 107.689C76.5132 107.689 60.3078 92.3568 64.1611 77.0412C68.0144 61.7256 73.2713 76.8482 69.938 79.1273C66.6047 81.4064 67.856 87.5793 69.7349 91.3148C71.6138 95.0503 75.1116 99.8278 77.6852 100.1C80.2588 100.372 86.0519 111.566 76.5132 107.689Z" fill="#351207"/>
<path d="M82.1784 104.796C82.1784 104.796 66.2981 95.0626 66.8079 81.8879C67.3178 68.7132 74.2159 80.1613 71.886 82.5968C69.5562 85.0322 71.6423 89.8605 73.8178 92.5905C75.9932 95.3205 79.6759 98.6173 81.825 98.3958C83.974 98.1744 90.6385 106.322 82.1784 104.796Z" fill="#4A190A"/>
<path d="M72.0159 107.181C72.0159 107.181 59.6944 97.0246 64.478 88.5056C69.2616 79.9865 72.2638 89.1332 69.2006 90.1773C66.1375 91.2214 66.5986 94.8817 67.8316 97.1892C69.0645 99.4967 71.5853 102.535 73.7527 102.901C75.92 103.267 79.7692 110.191 72.0159 107.181Z" fill="#6B240E"/>
<path d="M82.3592 106.535C82.3592 106.535 69.1012 93.2852 72.6924 80.5127C76.2837 67.7402 80.3462 80.5594 77.4943 82.3956C74.6425 84.2319 75.5504 89.4461 77.0393 92.6291C78.5282 95.8121 81.3578 99.901 83.515 100.189C85.6721 100.478 90.279 110.01 82.3592 106.535Z" fill="#6B240E"/>
<path d="M43.6719 63.6533C43.6719 63.6533 45.0938 61.228 41.2913 61.9877C37.4888 62.7474 38.9188 64.2363 38.9188 64.2363C38.9188 64.2363 39.8125 60.7344 37.4827 62.7474C36.0265 64.2331 35.2143 66.2327 35.2219 68.313C35.2219 68.313 34.058 64.0677 30.9928 67.4091C30.565 67.7634 30.2188 68.206 29.9777 68.7064C29.7366 69.2069 29.6064 69.7535 29.596 70.3089C29.5856 70.8643 29.6952 71.4154 29.9174 71.9246C30.1395 72.4337 30.4689 72.8889 30.8831 73.2591C30.8831 73.2591 29.9711 75.5341 28.9819 75.595C27.9927 75.656 28.9717 78.2844 28.9717 78.2844L28.5411 80.6406C28.5411 80.6406 28.9697 83.4742 31.131 83.8135C33.2922 84.1527 27.3203 84.5711 27.5296 86.0783C27.7388 87.5855 31.0477 88.1989 31.0477 88.1989C31.0477 88.1989 27.948 89.0906 30.9502 91.3595C31.945 92.0295 33.0667 92.4882 34.2458 92.7072C35.425 92.9263 36.6366 92.9011 37.8056 92.6331L36.2721 94.3049C36.2721 94.3049 38.7563 96.7241 39.5972 96.1452C40.4381 95.5663 40.946 98.1074 42.3191 98.6091C43.6922 99.1108 45.366 96.7281 45.366 96.7281C45.366 96.7281 48.4717 99.7506 50.4075 99.8644C52.3433 99.9781 52.7069 97.1811 52.7069 97.1811C52.7069 97.1811 53.7713 97.5549 55.4958 96.1655C57.2203 94.7761 59.3694 97.1811 59.9524 92.9866C60.5353 88.792 57.7322 90.7116 57.7322 90.7116C57.7322 90.7116 61.5753 91.4834 61.4006 89.5883C61.226 87.6931 57.8663 86.4906 57.8663 86.4906C57.8663 86.4906 62.2822 86.7344 60.9375 83.5474C60.6672 82.6976 60.169 81.9383 59.4971 81.352C58.8252 80.7657 58.0054 80.3749 57.1269 80.2222C57.1269 80.2222 57.456 78.9222 57.6631 77.8639C57.8703 76.8056 54.793 75.658 54.793 75.658C54.793 75.658 55.5181 76.7325 54.1572 73.9741C53.1419 72.2162 51.4836 70.9213 49.5321 70.3625C49.5321 70.3625 51.3886 68.2622 50.2349 66.5824C49.0811 64.9025 45.4635 65.9385 45.4635 65.9385C45.4635 65.9385 49.8814 61.8699 43.6719 63.6533Z" fill="#009C08"/>
<path d="M40.0299 65.4916C40.0725 65.6518 40.083 65.8188 40.0609 65.9831C40.0388 66.1474 39.9845 66.3056 39.9011 66.4489C39.8177 66.5921 39.7068 66.7175 39.5748 66.8178C39.4429 66.918 39.2924 66.9913 39.1321 67.0333C38.9718 67.0756 38.8047 67.0858 38.6404 67.0635C38.4761 67.0411 38.3179 66.9866 38.1747 66.903C38.0315 66.8194 37.9062 66.7085 37.8059 66.5764C37.7057 66.4444 37.6324 66.2939 37.5904 66.1335L36.6276 62.4772C36.5853 62.3171 36.5751 62.1501 36.5975 61.986C36.6199 61.8218 36.6744 61.6637 36.758 61.5207C36.8416 61.3777 36.9526 61.2525 37.0846 61.1525C37.2166 61.0524 37.3671 60.9794 37.5274 60.9376C37.6876 60.8953 37.8545 60.8849 38.0187 60.9072C38.1829 60.9294 38.3411 60.9837 38.4842 61.0671C38.6274 61.1505 38.7527 61.2612 38.8531 61.3931C38.9535 61.5249 39.0269 61.6752 39.0691 61.8354L40.0299 65.4916Z" fill="#00C40A"/>
<path d="M43.0483 66.3162C42.8594 66.6331 42.2216 66.6006 41.6265 66.2431C41.0293 65.8856 40.6962 65.3392 40.8851 65.0244L41.9129 63.3019C42.1018 62.985 42.7416 63.0175 43.3347 63.375C43.9441 63.7325 44.2651 64.2789 44.0762 64.5937L43.0483 66.3162Z" fill="#00C40A"/>
<path d="M39.3657 65.9344C39.6082 66.0918 39.7813 66.3362 39.8493 66.6172C39.9173 66.8983 39.8751 67.1947 39.7314 67.4456C39.4673 68.0915 38.8782 68.4612 38.4131 68.2703L35.8882 67.2344C35.6449 67.0776 35.4713 66.8332 35.4032 66.5518C35.3351 66.2705 35.3779 65.9738 35.5226 65.7231C35.7846 65.0772 36.3757 64.7075 36.8409 64.8984L39.3657 65.9344Z" fill="#1CFF28"/>
<path d="M30.7409 79.1863C31.0384 79.3398 31.2627 79.605 31.3648 79.9238C31.4669 80.2425 31.4383 80.5888 31.2853 80.8865C31.2097 81.0339 31.1058 81.1649 30.9795 81.2721C30.8532 81.3792 30.7069 81.4604 30.5492 81.511C30.3915 81.5615 30.2253 81.5805 30.0602 81.5667C29.8951 81.553 29.7344 81.5068 29.5872 81.4308L26.2214 79.7022C25.9238 79.5495 25.699 79.2848 25.5965 78.9663C25.4941 78.6479 25.5223 78.3018 25.675 78.0041C25.8277 77.7065 26.0924 77.4817 26.4109 77.3792C26.7294 77.2768 27.0755 77.305 27.3731 77.4577L30.7409 79.1863Z" fill="#00C40A"/>
<path d="M33.3695 77.4923C33.4792 77.8457 33.0282 78.3048 32.3538 78.5079C31.6896 78.711 31.062 78.5973 30.9523 78.2438L30.3571 76.3304C30.2474 75.9769 30.6984 75.5179 31.3727 75.3148C32.039 75.1116 32.6667 75.2274 32.7763 75.5788L33.3695 77.4923Z" fill="#00C40A"/>
<path d="M30.6252 79.9784C31.0782 79.759 31.6896 80.0901 31.9943 80.7157C32.1547 80.9566 32.2164 81.25 32.1665 81.5351C32.1166 81.8203 31.9589 82.0752 31.7261 82.2473L29.2724 83.4376C28.8215 83.657 28.208 83.3279 27.9054 82.7003C27.7452 82.4595 27.6835 82.1664 27.733 81.8814C27.7825 81.5965 27.9394 81.3414 28.1715 81.1687L30.6252 79.9784Z" fill="#1CFF28"/>
<path d="M39.0529 84.7254C39.0951 84.8857 39.1054 85.0528 39.083 85.2171C39.0606 85.3814 39.0061 85.5396 38.9225 85.6828C38.839 85.826 38.728 85.9513 38.596 86.0516C38.4639 86.1518 38.3134 86.2251 38.153 86.2671C37.8293 86.3519 37.4851 86.3048 37.196 86.1361C36.907 85.9674 36.6967 85.6909 36.6113 85.3673L35.6505 81.7111C35.6082 81.551 35.5979 81.3842 35.6202 81.2201C35.6425 81.0561 35.6968 80.8981 35.7802 80.7551C35.8636 80.6121 35.9744 80.4869 36.1062 80.3867C36.238 80.2866 36.3882 80.2134 36.5483 80.1714C36.8718 80.0865 37.2157 80.1333 37.5047 80.3016C37.7937 80.4699 38.0042 80.7459 38.0901 81.0692L39.0529 84.7254Z" fill="#00C40A"/>
<path d="M42.0693 85.5501C41.8804 85.867 41.2426 85.8345 40.6475 85.477C40.0503 85.1195 39.7192 84.5731 39.9081 84.2582L40.9359 82.5378C41.1248 82.2209 41.7626 82.2534 42.3578 82.6089C42.957 82.9664 43.2881 83.5128 43.0992 83.8276L42.0693 85.5501Z" fill="#00C40A"/>
<path d="M38.3907 85.1704C38.634 85.3272 38.8076 85.5715 38.8757 85.8529C38.9438 86.1342 38.901 86.4309 38.7563 86.6816C38.4922 87.3255 37.9032 87.6972 37.438 87.5063L34.9132 86.4744C34.6703 86.3173 34.4969 86.0729 34.4289 85.7917C34.3609 85.5106 34.4033 85.214 34.5475 84.9632C34.8116 84.3193 35.4007 83.9476 35.8658 84.1385L38.3907 85.1704Z" fill="#1CFF28"/>
<path d="M37.503 72.0261C37.5879 72.3495 37.541 72.6935 37.3727 72.9825C37.2044 73.2715 36.9284 73.4819 36.6052 73.5678C36.4449 73.61 36.2778 73.6203 36.1135 73.5979C35.9493 73.5756 35.791 73.521 35.6478 73.4375C35.5046 73.3539 35.3793 73.2429 35.279 73.1109C35.1788 72.9788 35.1055 72.8283 35.0635 72.6679L34.1007 69.0117C34.0159 68.6879 34.063 68.3438 34.2317 68.0547C34.4004 67.7657 34.6769 67.5554 35.0005 67.47C35.1607 67.4277 35.3276 67.4175 35.4918 67.4399C35.6559 67.4623 35.814 67.5168 35.9571 67.6004C36.1001 67.684 36.2252 67.795 36.3253 67.927C36.4254 68.059 36.4984 68.2095 36.5402 68.3698L37.503 72.0261Z" fill="#00C40A"/>
<path d="M40.5214 72.8508C40.3325 73.1677 39.6927 73.1352 39.0995 72.7777C38.5003 72.4202 38.1692 71.8738 38.3581 71.5589L39.386 69.8364C39.5749 69.5195 40.2127 69.552 40.8078 69.9095C41.4172 70.267 41.7381 70.8134 41.5492 71.1283L40.5214 72.8508Z" fill="#00C40A"/>
<path d="M36.8389 72.4689C37.0814 72.6264 37.2544 72.8707 37.3224 73.1518C37.3904 73.4328 37.3482 73.7293 37.2045 73.9802C36.9404 74.6261 36.3493 74.9958 35.8862 74.8049L33.3593 73.775C33.1168 73.6176 32.9438 73.3731 32.8762 73.0919C32.8085 72.8107 32.8513 72.5143 32.9957 72.2638C33.2578 71.6178 33.8489 71.2481 34.314 71.4391L36.8389 72.4689Z" fill="#1CFF28"/>
<path d="M53.6088 73.8867C53.4004 74.1485 53.0966 74.3169 52.7642 74.355C52.4317 74.3931 52.0978 74.2977 51.8355 74.0898C51.7057 73.987 51.5975 73.8595 51.5171 73.7148C51.4366 73.5701 51.3855 73.4109 51.3666 73.2464C51.3477 73.0818 51.3615 72.9152 51.4071 72.756C51.4527 72.5968 51.5293 72.4482 51.6324 72.3186L53.9724 69.3448C54.1805 69.0832 54.4839 68.9148 54.816 68.8767C55.1481 68.8387 55.4818 68.934 55.7437 69.1417C56.0053 69.3498 56.1737 69.6532 56.2118 69.9853C56.2498 70.3174 56.1545 70.6511 55.9468 70.913L53.6088 73.8867Z" fill="#00C40A"/>
<path d="M54.7686 76.7813C54.4009 76.8219 54.0434 76.2938 53.9683 75.6011C53.8911 74.9085 54.1288 74.3133 54.4944 74.2747L56.4891 74.0574C56.8547 74.0167 57.2142 74.5449 57.2894 75.2375C57.3645 75.9302 57.1289 76.5253 56.7633 76.5639L54.7686 76.7813Z" fill="#00C40A"/>
<path d="M52.8531 73.6227C52.9831 74.1081 52.5403 74.6383 51.868 74.8252C51.6007 74.9362 51.301 74.9403 51.0307 74.8367C50.7605 74.7332 50.5403 74.5298 50.4156 74.2686L49.7148 71.628C49.5869 71.1445 50.0277 70.6124 50.702 70.4275C50.9691 70.3164 51.2686 70.3119 51.5388 70.4151C51.809 70.5183 52.0294 70.7212 52.1544 70.982L52.8531 73.6227Z" fill="#1CFF28"/>
<path d="M49.2152 84.9652C49.1252 85.1043 49.0086 85.2244 48.8722 85.3185C48.7358 85.4126 48.5822 85.4789 48.4202 85.5136C48.2582 85.5483 48.0909 85.5507 47.9279 85.5208C47.7649 85.4908 47.6094 85.429 47.4703 85.3389C47.3313 85.2488 47.2115 85.1321 47.1176 84.9957C47.0237 84.8592 46.9576 84.7055 46.9231 84.5435C46.8886 84.3815 46.8863 84.2142 46.9164 84.0513C46.9465 83.8884 47.0084 83.7331 47.0986 83.5941L49.1563 80.4172C49.2464 80.2782 49.3631 80.1584 49.4996 80.0645C49.636 79.9706 49.7897 79.9045 49.9517 79.87C50.1137 79.8354 50.281 79.8332 50.4439 79.8633C50.6068 79.8934 50.7621 79.9553 50.9011 80.0455C51.0402 80.1353 51.1602 80.2517 51.2543 80.3879C51.3483 80.5241 51.4146 80.6775 51.4493 80.8394C51.4841 81.0013 51.4865 81.1684 51.4566 81.3312C51.4266 81.4941 51.3649 81.6494 51.2749 81.7883L49.2152 84.9652Z" fill="#00C40A"/>
<path d="M50.6392 87.75C50.2776 87.8232 49.8713 87.3296 49.7332 86.6471C49.5931 85.9646 49.7738 85.3511 50.1395 85.276L52.1057 84.8697C52.4673 84.7966 52.8735 85.2902 53.0117 85.9727C53.1518 86.6552 52.971 87.2686 52.6054 87.3418L50.6392 87.75Z" fill="#00C40A"/>
<path d="M48.4393 84.7721C48.614 85.2434 48.224 85.8203 47.5699 86.062C47.3136 86.1966 47.0155 86.228 46.7368 86.1499C46.458 86.0717 46.2198 85.8898 46.0709 85.6415L45.1324 83.0821C44.9598 82.6109 45.3498 82.034 46.0038 81.7943C46.2595 81.6591 46.5573 81.6272 46.8358 81.705C47.1143 81.7829 47.3524 81.9646 47.5009 82.2128L48.4393 84.7721Z" fill="#1CFF28"/>
<path d="M52.2824 94.963C52.3247 95.1232 52.335 95.2901 52.3128 95.4543C52.2906 95.6184 52.2362 95.7766 52.1528 95.9198C52.0695 96.063 51.9587 96.1883 51.8269 96.2887C51.6951 96.389 51.5448 96.4624 51.3846 96.5047C51.2243 96.547 51.0572 96.5572 50.8929 96.5348C50.7286 96.5125 50.5704 96.458 50.4272 96.3744C50.284 96.2908 50.1587 96.1798 50.0584 96.0478C49.9581 95.9157 49.8849 95.7652 49.8429 95.6049L48.88 91.9486C48.7953 91.6251 48.8425 91.2812 49.0112 90.9925C49.18 90.7038 49.4564 90.4938 49.7799 90.4089C50.1034 90.324 50.4473 90.3709 50.7363 90.5392C51.0253 90.7075 51.2358 90.9835 51.3216 91.3067L52.2824 94.963Z" fill="#00C40A"/>
<path d="M55.3008 95.7877C55.1119 96.1046 54.4741 96.072 53.879 95.7145C53.2797 95.357 52.9487 94.8106 53.1376 94.4958L54.1654 92.7753C54.3543 92.4585 54.9941 92.491 55.5872 92.8464C56.1966 93.2039 56.5176 93.7503 56.3287 94.0652L55.3008 95.7877Z" fill="#00C40A"/>
<path d="M51.6182 95.4078C51.8611 95.5649 52.0344 95.8093 52.1025 96.0905C52.1705 96.3717 52.128 96.6683 51.9838 96.919C51.7197 97.563 51.1307 97.9347 50.6655 97.7437L48.1407 96.7119C47.8974 96.5551 47.7237 96.3107 47.6556 96.0294C47.5876 95.748 47.6303 95.4513 47.775 95.2006C48.0371 94.5567 48.6282 94.185 49.0933 94.3759L51.6182 95.4078Z" fill="#1CFF28"/>
<path d="M42.1932 93.6061C42.0953 93.7398 41.9721 93.8529 41.8304 93.9389C41.6887 94.0248 41.5315 94.082 41.3677 94.1071C41.2039 94.1322 41.0368 94.1247 40.8759 94.0851C40.715 94.0455 40.5635 93.9745 40.4301 93.8762C40.2964 93.7784 40.1833 93.6551 40.0973 93.5134C40.0114 93.3718 39.9542 93.2145 39.9291 93.0508C39.904 92.887 39.9115 92.7198 39.9511 92.5589C39.9907 92.398 40.0617 92.2465 40.1599 92.1131L42.3943 89.0662C42.5923 88.7966 42.8893 88.6167 43.2199 88.5661C43.5506 88.5154 43.8878 88.5981 44.1574 88.7961C44.427 88.9941 44.6069 89.2911 44.6576 89.6217C44.7083 89.9523 44.6255 90.2896 44.4276 90.5592L42.1932 93.6061Z" fill="#00C40A"/>
<path d="M43.4525 96.4701C43.0869 96.5229 42.7091 96.005 42.6116 95.3164C42.512 94.6257 42.7274 94.0245 43.093 93.9717L45.0775 93.6873C45.4431 93.6345 45.8209 94.1504 45.9184 94.8411C46.018 95.5297 45.8027 96.1329 45.437 96.1837L43.4525 96.4701Z" fill="#00C40A"/>
<path d="M41.4376 93.3684C41.5838 93.8478 41.1613 94.4023 40.493 94.6034C40.2298 94.7236 39.9304 94.7381 39.6568 94.644C39.3831 94.5499 39.1561 94.3543 39.0224 94.0976L38.2343 91.4875C38.0901 91.0061 38.5126 90.4536 39.1788 90.2525C39.442 90.1318 39.7415 90.117 40.0153 90.2112C40.2891 90.3054 40.5162 90.5012 40.6494 90.7583L41.4376 93.3684Z" fill="#1CFF28"/>
<path d="M31.6368 90.1652C31.802 90.153 31.9681 90.1735 32.1254 90.2255C32.2827 90.2775 32.4283 90.36 32.5537 90.4683C32.6792 90.5765 32.782 90.7085 32.8565 90.8565C32.9309 91.0046 32.9755 91.1658 32.9875 91.3311C32.9997 91.4964 32.9792 91.6624 32.9272 91.8197C32.8752 91.9771 32.7927 92.1226 32.6844 92.2481C32.5762 92.3735 32.4442 92.4764 32.2962 92.5508C32.1481 92.6252 31.9869 92.6698 31.8216 92.6819L28.0475 92.9581C27.8823 92.9703 27.7162 92.9498 27.5589 92.8978C27.4016 92.8458 27.256 92.7633 27.1306 92.655C27.0052 92.5467 26.9023 92.4148 26.8278 92.2668C26.7534 92.1187 26.7089 91.9575 26.6968 91.7922C26.6846 91.627 26.7051 91.4611 26.7571 91.3039C26.8092 91.1467 26.8917 91.0013 27 90.876C27.1083 90.7507 27.2402 90.648 27.3883 90.5738C27.5363 90.4996 27.6975 90.4553 27.8627 90.4434L31.6368 90.1652Z" fill="#00C40A"/>
<path d="M32.9997 87.3437C33.276 87.5875 33.1277 88.209 32.6666 88.731C32.2055 89.2551 31.6083 89.4806 31.3321 89.2368L29.8269 87.9124C29.5487 87.6687 29.699 87.0451 30.158 86.5231C30.6191 86.001 31.2163 85.7735 31.4946 86.0173L32.9997 87.3437Z" fill="#00C40A"/>
<path d="M31.9517 90.9005C32.1505 90.6906 32.4223 90.565 32.711 90.5495C32.9997 90.534 33.2834 90.6298 33.5036 90.8172C33.7658 90.9393 33.9712 91.1574 34.0774 91.4265C34.1836 91.6956 34.1825 91.9952 34.0743 92.2635L32.5996 94.5588C32.4008 94.7687 32.129 94.8943 31.8403 94.9098C31.5516 94.9253 31.2679 94.8294 31.0478 94.642C30.7839 94.521 30.5766 94.3032 30.4689 94.0336C30.3611 93.764 30.3611 93.4634 30.4689 93.1938L31.9517 90.9005Z" fill="#1CFF28"/>
<path d="M57.653 82.2515C57.423 82.4943 57.1061 82.6359 56.7718 82.6455C56.4375 82.655 56.1131 82.5316 55.8696 82.3023C55.6268 82.0722 55.4851 81.7553 55.4756 81.421C55.4661 81.0867 55.5895 80.7623 55.8188 80.5188L58.4188 77.7685C58.5324 77.6478 58.6688 77.5507 58.82 77.4828C58.9712 77.4149 59.1343 77.3775 59.3 77.3728C59.4657 77.3681 59.6307 77.3961 59.7855 77.4553C59.9403 77.5145 60.082 77.6037 60.2023 77.7177C60.445 77.9477 60.5867 78.2646 60.5962 78.5989C60.6058 78.9333 60.4823 79.2577 60.253 79.5012L57.653 82.2515Z" fill="#00C40A"/>
<path d="M58.5489 85.2475C58.1792 85.2475 57.8704 84.697 57.8562 84.0003C57.844 83.3036 58.1325 82.7328 58.5021 82.7267L60.507 82.6881C60.8746 82.6881 61.1854 83.2406 61.1976 83.9373C61.2118 84.6341 60.9234 85.2048 60.5537 85.2109L58.5489 85.2475Z" fill="#00C40A"/>
<path d="M56.9258 81.9204C57.0111 82.416 56.5196 82.9116 55.835 83.0294C55.1485 83.1472 54.5228 82.8405 54.4396 82.3469L53.9785 79.6575C53.8952 79.1619 54.3847 78.6663 55.0693 78.5485C55.7558 78.4327 56.3814 78.7374 56.4668 79.233L56.9258 81.9204Z" fill="#1CFF28"/>
<path d="M59.0078 90.5755C59.0501 90.7358 59.0603 90.9029 59.038 91.0672C59.0156 91.2315 58.9611 91.3897 58.8775 91.5329C58.7939 91.6761 58.6829 91.8014 58.5509 91.9017C58.4189 92.002 58.2683 92.0752 58.108 92.1172C57.7842 92.202 57.44 92.1549 57.151 91.9862C56.8619 91.8175 56.6516 91.541 56.5663 91.2174L55.6055 87.5611C55.5632 87.4011 55.5529 87.2343 55.5752 87.0702C55.5974 86.9062 55.6518 86.7482 55.7352 86.6052C55.8186 86.4622 55.9293 86.337 56.0611 86.2368C56.1929 86.1367 56.3432 86.0635 56.5033 86.0215C56.8268 85.9366 57.1707 85.9834 57.4597 86.1517C57.7487 86.32 57.9592 86.5961 58.045 86.9193L59.0078 90.5755Z" fill="#00C40A"/>
<path d="M62.0243 91.4062C61.8354 91.7231 61.1976 91.6906 60.6024 91.3331C60.0053 90.9756 59.6721 90.4292 59.8631 90.1143L60.8909 88.3939C61.0798 88.077 61.7176 88.1095 62.3128 88.465C62.9221 88.8225 63.2431 89.3689 63.0542 89.6837L62.0243 91.4062Z" fill="#00C40A"/>
<path d="M58.3416 91.0204C58.5849 91.1772 58.7585 91.4215 58.8266 91.7029C58.8947 91.9842 58.8519 92.2809 58.7072 92.5316C58.4431 93.1755 57.8541 93.5472 57.3889 93.3563L54.8641 92.3244C54.6208 92.1676 54.4471 91.9232 54.379 91.6419C54.311 91.3606 54.3537 91.0638 54.4984 90.8132C54.7625 90.1693 55.3516 89.7975 55.8167 89.9885L58.3416 91.0204Z" fill="#1CFF28"/>
<path d="M42.7092 78.9039C42.6465 79.057 42.5543 79.1963 42.4378 79.3138C42.3213 79.4313 42.1828 79.5247 42.0302 79.5887C41.8776 79.6526 41.7139 79.6859 41.5484 79.6865C41.383 79.6872 41.219 79.6552 41.0659 79.5925C40.9125 79.5298 40.7729 79.4375 40.6552 79.3209C40.5374 79.2043 40.4438 79.0657 40.3797 78.9129C40.3155 78.7601 40.2821 78.5962 40.2814 78.4305C40.2806 78.2647 40.3125 78.1005 40.3753 77.9471L41.8073 74.4453C41.9342 74.1358 42.1788 73.8893 42.4872 73.7598C42.7956 73.6304 43.1428 73.6285 43.4526 73.7546C43.606 73.8173 43.7456 73.9096 43.8633 74.0262C43.981 74.1428 44.0747 74.2814 44.1388 74.4342C44.2029 74.587 44.2363 74.7509 44.2371 74.9166C44.2379 75.0823 44.206 75.2466 44.1432 75.4L42.7092 78.9039Z" fill="#00C40A"/>
<path d="M44.6246 81.376C44.2833 81.5161 43.7938 81.1058 43.5297 80.4619C43.2657 79.816 43.3266 79.1802 43.6719 79.04L45.5285 78.2824C45.8697 78.1442 46.3613 78.5546 46.6233 79.1985C46.8874 79.8444 46.8264 80.4802 46.4811 80.6203L44.6246 81.376Z" fill="#00C40A"/>
<path d="M41.9128 78.8572C42.0103 79.1273 42.0015 79.4244 41.8884 79.6883C41.7753 79.9522 41.5663 80.1634 41.3035 80.2791C41.0767 80.4589 40.7897 80.545 40.5014 80.5197C40.2132 80.4944 39.9455 80.3596 39.7536 80.143L38.3561 77.801C38.0982 77.3703 38.3764 76.7325 38.9655 76.3791C39.192 76.199 39.4788 76.1126 39.7671 76.1375C40.0554 76.1624 40.3231 76.2969 40.5153 76.5132L41.9128 78.8572Z" fill="#1CFF28"/>
<path d="M45.8413 70.3991C45.718 70.5098 45.5742 70.5951 45.418 70.6502C45.2617 70.7054 45.0962 70.7292 44.9308 70.7203C44.7654 70.7114 44.6033 70.6701 44.4539 70.5986C44.3044 70.5271 44.1705 70.4268 44.0599 70.3036C43.9491 70.1804 43.8638 70.0365 43.8087 69.8803C43.7536 69.7241 43.7298 69.5585 43.7386 69.3931C43.7475 69.2277 43.7889 69.0656 43.8603 68.9162C43.9318 68.7668 44.0321 68.6329 44.1553 68.5222L46.9706 65.9912C47.0939 65.8805 47.2377 65.7952 47.3939 65.7401C47.5501 65.685 47.7157 65.6612 47.8811 65.67C48.0465 65.6789 48.2086 65.7202 48.358 65.7917C48.5075 65.8632 48.6413 65.9635 48.752 66.0867C48.8627 66.21 48.9481 66.3538 49.0032 66.51C49.0583 66.6662 49.0821 66.8318 49.0733 66.9972C49.0644 67.1626 49.023 67.3247 48.9515 67.4741C48.88 67.6235 48.7798 67.7574 48.6566 67.8681L45.8413 70.3991Z" fill="#00C40A"/>
<path d="M46.4893 73.4581C46.1216 73.4358 45.8576 72.8488 45.9023 72.1581C45.947 71.4614 46.2801 70.917 46.6477 70.9394L48.6506 71.0653C49.0182 71.0877 49.2823 71.6747 49.2376 72.3653C49.1929 73.062 48.8598 73.6064 48.4901 73.5841L46.4893 73.4581Z" fill="#00C40A"/>
<path d="M45.1446 70.0091C45.1873 70.5088 44.6612 70.9638 43.9665 71.0247C43.2718 71.0856 42.6746 70.7302 42.6299 70.2305L42.3923 67.5127C42.3476 67.013 42.8757 66.558 43.5684 66.497C44.2631 66.4361 44.8623 66.7916 44.9049 67.2933L45.1446 70.0091Z" fill="#1CFF28"/>
<path d="M53.5215 108.905C53.5215 108.905 52.1748 111.081 55.6523 110.467C59.1298 109.854 57.8562 108.471 57.8562 108.471C57.8562 108.471 56.9726 111.635 59.1318 109.854C60.486 108.532 61.2653 106.731 61.3012 104.839C61.3012 104.839 62.2721 108.723 65.1281 105.745C65.5246 105.432 65.8487 105.036 66.0782 104.586C66.3078 104.136 66.4373 103.642 66.4579 103.137C66.4786 102.632 66.3898 102.129 66.1978 101.661C66.0058 101.194 65.715 100.774 65.3454 100.429C65.3454 100.429 66.2188 98.3774 67.1207 98.3429C68.0226 98.3084 67.1837 95.9054 67.1837 95.9054L67.6306 93.7645C67.6306 93.7645 67.2995 91.1807 65.3413 90.8293C63.3832 90.4779 68.8188 90.2199 68.6604 88.8428C68.502 87.4656 65.5039 86.842 65.5039 86.842C65.5039 86.842 68.3476 86.0945 65.6562 83.9698C64.7649 83.3413 63.7542 82.9021 62.6866 82.6792C61.619 82.4563 60.517 82.4545 59.4487 82.6738L60.8706 81.1849C60.8706 81.1849 58.6606 78.9363 57.8846 79.4442C57.1087 79.952 56.6984 77.6323 55.4593 77.1509C54.2203 76.6695 52.6582 78.8003 52.6582 78.8003C52.6582 78.8003 49.8937 75.989 48.1367 75.8448C46.3796 75.7006 45.9917 78.2396 45.9917 78.2396C45.9917 78.2396 45.0329 77.876 43.4343 79.107C41.8357 80.3379 39.9324 78.0914 39.319 81.906C38.7056 85.7207 41.2913 84.0206 41.2913 84.0206C41.2913 84.0206 37.8138 83.2406 37.9337 84.9671C38.0535 86.6937 41.0842 87.8556 41.0842 87.8556C41.0842 87.8556 37.0684 87.5509 38.2404 90.4738C38.4695 91.2514 38.9078 91.9512 39.5074 92.4967C40.1071 93.0422 40.845 93.4126 41.6407 93.5674C41.6407 93.5674 41.3157 94.7456 41.1045 95.7023C40.8932 96.659 43.672 97.766 43.672 97.766C43.672 97.766 43.0362 96.7748 44.2163 99.3098C45.1021 100.928 46.5821 102.139 48.3438 102.686C48.3438 102.686 46.6112 104.559 47.6288 106.11C48.6465 107.662 51.9534 106.791 51.9534 106.791C51.9534 106.791 47.8482 110.4 53.5215 108.905Z" fill="#009C08"/>
<path d="M56.8751 107.307C56.8048 107.011 56.8547 106.699 57.0139 106.44C57.173 106.181 57.4284 105.995 57.7242 105.924C58.0202 105.853 58.3319 105.903 58.5912 106.062C58.8505 106.221 59.0361 106.477 59.1075 106.773L59.9078 110.12C59.9787 110.416 59.9293 110.728 59.7705 110.987C59.6117 111.246 59.3564 111.432 59.0607 111.503C58.7647 111.574 58.453 111.524 58.1937 111.365C57.9344 111.206 57.7488 110.95 57.6775 110.654L56.8751 107.307Z" fill="#00C40A"/>
<path d="M54.1512 106.496C54.3299 106.212 54.9088 106.255 55.4451 106.592C55.9833 106.929 56.2738 107.433 56.0951 107.717L55.1262 109.261C54.9474 109.545 54.3685 109.503 53.8302 109.168C53.294 108.83 53.0035 108.327 53.1822 108.042L54.1512 106.496Z" fill="#00C40A"/>
<path d="M57.4844 106.917C57.2643 106.771 57.1097 106.545 57.0532 106.288C56.9967 106.03 57.0428 105.76 57.1817 105.536C57.4336 104.955 57.978 104.63 58.4005 104.813L60.6755 105.8C60.8935 105.947 61.0465 106.173 61.1028 106.43C61.1592 106.687 61.1145 106.956 60.9781 107.181C60.7263 107.764 60.1819 108.087 59.7594 107.904L57.4844 106.917Z" fill="#1CFF28"/>
<path d="M65.6094 95.0422C65.342 94.897 65.1432 94.6515 65.0567 94.3597C64.9702 94.0679 65.0032 93.7537 65.1483 93.4863C65.22 93.3539 65.3171 93.237 65.434 93.1422C65.551 93.0474 65.6854 92.9765 65.8297 92.9337C65.9741 92.8909 66.1254 92.8769 66.2751 92.8926C66.4248 92.9083 66.57 92.9533 66.7022 93.0252L69.7288 94.6644C69.9963 94.8096 70.1951 95.0551 70.2815 95.3469C70.368 95.6387 70.335 95.9528 70.1899 96.2203C70.1182 96.3527 70.0211 96.4696 69.9042 96.5644C69.7873 96.6592 69.6528 96.7301 69.5085 96.7729C69.3642 96.8157 69.2129 96.8297 69.0631 96.814C68.9134 96.7983 68.7683 96.7532 68.636 96.6814L65.6094 95.0422Z" fill="#00C40A"/>
<path d="M63.172 96.5311C63.0805 96.2081 63.499 95.8039 64.1084 95.6292C64.7177 95.4546 65.2865 95.5764 65.3779 95.8994L65.8816 97.6524C65.973 97.9753 65.5546 98.3775 64.9452 98.5522C64.3359 98.7269 63.7671 98.6071 63.6757 98.2841L63.172 96.5311Z" fill="#00C40A"/>
<path d="M65.7212 94.3251C65.3149 94.5161 64.7563 94.2032 64.5024 93.6264C64.3614 93.4041 64.3112 93.1361 64.3622 92.8779C64.4133 92.6197 64.5617 92.3909 64.7766 92.239L67.0313 91.2072C67.4376 91.0162 67.9962 91.329 68.2602 91.9059C68.4013 92.1282 68.4514 92.3961 68.4004 92.6544C68.3494 92.9126 68.201 93.1414 67.986 93.2932L65.7212 94.3251Z" fill="#1CFF28"/>
<path d="M58.1568 89.8381C58.0858 89.5424 58.1352 89.2306 58.294 88.9712C58.4529 88.7118 58.7081 88.5261 59.0038 88.4548C59.2998 88.3845 59.6116 88.4344 59.8708 88.5936C60.1301 88.7527 60.3158 89.0081 60.3871 89.3039L61.1894 92.6514C61.2597 92.9474 61.2098 93.2592 61.0507 93.5184C60.8915 93.7777 60.6361 93.9633 60.3404 94.0347C60.0444 94.1049 59.7326 94.0551 59.4733 93.8959C59.214 93.7368 59.0284 93.4813 58.9571 93.1856L58.1568 89.8381Z" fill="#00C40A"/>
<path d="M55.4289 89.0277C55.6076 88.7433 56.1865 88.786 56.7228 89.1232C57.261 89.4604 57.5515 89.9641 57.3728 90.2485L56.4039 91.7922C56.2251 92.0766 55.6462 92.034 55.1079 91.6988C54.5717 91.3616 54.2812 90.8579 54.46 90.5735L55.4289 89.0277Z" fill="#00C40A"/>
<path d="M58.7703 89.4481C58.5502 89.3024 58.3956 89.0767 58.3391 88.8188C58.2826 88.561 58.3287 88.2913 58.4676 88.0669C58.7195 87.4859 59.2639 87.163 59.6864 87.3438L61.9634 88.3309C62.1808 88.4794 62.3331 88.7055 62.3891 88.9627C62.445 89.22 62.4002 89.4889 62.264 89.7142C62.0121 90.2952 61.4678 90.6181 61.0453 90.4374L58.7703 89.4481Z" fill="#1CFF28"/>
<path d="M59.3125 101.416C59.2416 101.121 59.291 100.809 59.4498 100.549C59.6086 100.29 59.8639 100.104 60.1596 100.033C60.3061 99.9979 60.4582 99.992 60.607 100.016C60.7559 100.039 60.8986 100.092 61.027 100.171C61.1555 100.25 61.2672 100.353 61.3557 100.475C61.4442 100.597 61.5078 100.735 61.5428 100.882L62.3452 104.23C62.4155 104.526 62.3656 104.837 62.2064 105.097C62.0473 105.356 61.7919 105.542 61.4961 105.613C61.2001 105.683 60.8883 105.633 60.6291 105.474C60.3698 105.315 60.1841 105.06 60.1128 104.764L59.3125 101.416Z" fill="#00C40A"/>
<path d="M56.5806 100.608C56.7593 100.323 57.3382 100.364 57.8765 100.701C58.4128 101.038 58.7032 101.542 58.5245 101.827L57.5556 103.37C57.3768 103.655 56.7979 103.612 56.2617 103.277C55.7234 102.94 55.4329 102.436 55.6117 102.152L56.5806 100.608Z" fill="#00C40A"/>
<path d="M59.922 101.026C59.7044 100.878 59.5517 100.653 59.4954 100.396C59.4391 100.139 59.4834 99.8702 59.6193 99.645C59.8732 99.0641 60.4156 98.7411 60.8381 98.9219L63.1131 99.9111C63.3303 100.059 63.4826 100.285 63.5385 100.542C63.5945 100.799 63.5498 101.067 63.4137 101.292C63.1618 101.873 62.6174 102.196 62.1949 102.015L59.922 101.026Z" fill="#1CFF28"/>
<path d="M44.7018 99.4012C44.7978 99.2837 44.9162 99.1864 45.0501 99.1149C45.1839 99.0434 45.3306 98.9991 45.4817 98.9845C45.6328 98.97 45.7852 98.9855 45.9303 99.0302C46.0753 99.0749 46.2101 99.1478 46.3268 99.2448C46.4444 99.3409 46.5417 99.4593 46.6132 99.5932C46.6847 99.7272 46.7289 99.874 46.7433 100.025C46.7576 100.176 46.7418 100.329 46.6969 100.474C46.6519 100.619 46.5786 100.753 46.4812 100.87L44.2813 103.517C44.0878 103.751 43.8091 103.9 43.5063 103.929C43.2035 103.958 42.9014 103.866 42.6665 103.673C42.5487 103.577 42.4512 103.459 42.3796 103.325C42.3079 103.191 42.2635 103.044 42.2489 102.893C42.2344 102.742 42.25 102.589 42.2948 102.444C42.3396 102.299 42.4128 102.165 42.5101 102.048L44.7018 99.4012Z" fill="#00C40A"/>
<path d="M43.7064 96.7363C44.0395 96.7079 44.3564 97.1954 44.4113 97.8271C44.4661 98.4588 44.2386 98.993 43.9035 99.0235L42.0875 99.1799C41.7524 99.2083 41.4375 98.7208 41.3827 98.0891C41.3278 97.4594 41.5553 96.9232 41.8885 96.8947L43.7064 96.7363Z" fill="#00C40A"/>
<path d="M45.3843 99.6552C45.2766 99.2124 45.689 98.731 46.3044 98.5827C46.5497 98.4875 46.8221 98.4898 47.0658 98.5892C47.3094 98.6885 47.5058 98.8773 47.6146 99.1169L48.1955 101.528C48.3032 101.971 47.8908 102.452 47.2754 102.6C47.0302 102.697 46.7573 102.695 46.5134 102.595C46.2695 102.496 46.0732 102.306 45.9652 102.066L45.3843 99.6552Z" fill="#1CFF28"/>
<path d="M48.9187 89.4156C49.0901 89.1642 49.3541 88.9909 49.653 88.9338C49.9519 88.8767 50.2612 88.9404 50.5132 89.1109C50.7647 89.2823 50.938 89.5464 50.9951 89.8452C51.0522 90.1441 50.9885 90.4535 50.8179 90.7055L48.8842 93.5492C48.7128 93.8007 48.4488 93.974 48.1499 94.0311C47.851 94.0882 47.5416 94.0245 47.2896 93.8539C47.0382 93.6826 46.8649 93.4185 46.8078 93.1196C46.7507 92.8207 46.8144 92.5114 46.985 92.2594L48.9187 89.4156Z" fill="#00C40A"/>
<path d="M47.6816 86.8543C48.0106 86.7954 48.3702 87.2605 48.4839 87.8699C48.5956 88.4935 48.4189 89.046 48.0899 89.1069L46.2942 89.4299C45.9652 89.4908 45.6056 89.0237 45.4919 88.4143C45.3802 87.7907 45.5569 87.2362 45.886 87.1772L47.6816 86.8543Z" fill="#00C40A"/>
<path d="M49.6215 89.6065C49.4732 89.1739 49.8388 88.6579 50.434 88.4528C50.669 88.3347 50.9403 88.311 51.1922 88.3865C51.4441 88.4621 51.6576 88.6311 51.7888 88.859L52.5912 91.2072C52.7374 91.6378 52.3718 92.1558 51.7787 92.3609C51.544 92.4789 51.273 92.5025 51.0214 92.427C50.7699 92.3514 50.5567 92.1824 50.4259 91.9547L49.6215 89.6065Z" fill="#1CFF28"/>
<path d="M46.3329 80.2629C46.2978 80.1163 46.292 79.9642 46.3156 79.8154C46.3393 79.6665 46.3921 79.5238 46.4709 79.3954C46.5498 79.2669 46.6532 79.1553 46.7752 79.0668C46.8972 78.9783 47.0354 78.9147 47.182 78.8796C47.4777 78.8093 47.7892 78.8593 48.0482 79.0185C48.3071 79.1776 48.4924 79.433 48.5632 79.7286L49.3595 83.0782C49.4298 83.3742 49.3799 83.686 49.2207 83.9452C49.0616 84.2045 48.8062 84.3901 48.5104 84.4615C48.2144 84.5317 47.9026 84.4818 47.6434 84.3227C47.3841 84.1636 47.1985 83.9081 47.1271 83.6124L46.3329 80.2629Z" fill="#00C40A"/>
<path d="M43.6049 79.4543C43.7836 79.17 44.3625 79.2106 44.9008 79.5478C45.4371 79.885 45.7275 80.3887 45.5488 80.6731L44.5799 82.2168C44.4011 82.5012 43.8222 82.4606 43.286 82.1234C42.7477 81.7862 42.4572 81.2825 42.636 80.9981L43.6049 79.4543Z" fill="#00C40A"/>
<path d="M46.9463 79.8728C46.7287 79.725 46.576 79.4995 46.5197 79.2425C46.4634 78.9856 46.5077 78.7168 46.6436 78.4916C46.8975 77.9106 47.4399 77.5877 47.8624 77.7684L50.1374 78.7577C50.3546 78.9057 50.5069 79.1315 50.5628 79.3884C50.6187 79.6453 50.5741 79.9139 50.438 80.1389C50.1861 80.7198 49.6417 81.0428 49.2192 80.862L46.9463 79.8728Z" fill="#1CFF28"/>
<path d="M55.4795 81.7009C55.6661 81.4609 55.9403 81.3047 56.2419 81.2666C56.5435 81.2285 56.8479 81.3117 57.0883 81.4978C57.3283 81.6844 57.4845 81.9585 57.5226 82.2602C57.5607 82.5618 57.4775 82.8662 57.2914 83.1065L55.1952 85.8365C55.0086 86.0766 54.7344 86.2328 54.4328 86.2709C54.1312 86.3089 53.8268 86.2258 53.5864 86.0397C53.3464 85.8531 53.1902 85.5789 53.1521 85.2773C53.114 84.9757 53.1972 84.6713 53.3833 84.4309L55.4795 81.7009Z" fill="#00C40A"/>
<path d="M54.3929 79.0725C54.726 79.0319 55.0571 79.5092 55.1343 80.1389C55.2095 80.7665 55.0002 81.3089 54.6671 81.3576L52.8573 81.577C52.5241 81.6176 52.193 81.1403 52.1159 80.5106C52.0407 79.8829 52.2479 79.3406 52.581 79.2919L54.3929 79.0725Z" fill="#00C40A"/>
<path d="M56.1681 81.9325C56.0463 81.4938 56.4424 80.9981 57.0517 80.8296C57.2931 80.7228 57.5665 80.7142 57.8141 80.8056C58.0617 80.897 58.264 81.0812 58.3781 81.3191L59.0424 83.7078C59.1642 84.1486 58.7702 84.6422 58.1588 84.8128C57.917 84.9164 57.6448 84.9234 57.398 84.8324C57.1513 84.7413 56.9488 84.5591 56.8324 84.3233L56.1681 81.9325Z" fill="#1CFF28"/>
<path d="M65.0001 85.0423C64.6963 85.0578 64.3987 84.952 64.1729 84.7483C63.947 84.5445 63.8113 84.2594 63.7955 83.9556C63.7876 83.8051 63.8094 83.6545 63.8598 83.5125C63.9101 83.3705 63.988 83.2397 64.089 83.1279C64.1899 83.016 64.3119 82.9251 64.4481 82.8604C64.5842 82.7958 64.7317 82.7586 64.8823 82.7511L68.3191 82.5744C68.4697 82.5667 68.6204 82.5888 68.7624 82.6394C68.9045 82.6899 69.0351 82.768 69.147 82.8691C69.2589 82.9702 69.3497 83.0924 69.4143 83.2286C69.479 83.3649 69.5161 83.5125 69.5237 83.6631C69.5313 83.8134 69.5093 83.9638 69.4588 84.1056C69.4083 84.2474 69.3304 84.3779 69.2295 84.4895C69.1286 84.6012 69.0066 84.6919 68.8706 84.7564C68.7346 84.821 68.5873 84.8581 68.4369 84.8656L65.0001 85.0423Z" fill="#00C40A"/>
<path d="M63.7123 87.5753C63.4665 87.3478 63.6127 86.7851 64.0434 86.32C64.4719 85.8528 65.0204 85.6598 65.2621 85.8873L66.6048 87.1223C66.8505 87.3498 66.7043 87.9125 66.2737 88.3776C65.8451 88.8448 65.2966 89.0378 65.0549 88.8103L63.7123 87.5753Z" fill="#00C40A"/>
<path d="M64.736 84.368C64.5503 84.5569 64.2988 84.667 64.034 84.6753C63.7692 84.6836 63.5114 84.5896 63.3141 84.4127C63.0785 84.2955 62.8967 84.0925 62.8061 83.8455C62.7154 83.5984 62.7228 83.3261 62.8266 83.0843L64.214 81.0286C64.3988 80.8418 64.6482 80.733 64.9109 80.7246C65.1736 80.7163 65.4294 80.8091 65.6257 80.984C65.862 81.1005 66.0445 81.3032 66.1356 81.5505C66.2267 81.7977 66.2194 82.0704 66.1152 82.3124L64.736 84.368Z" fill="#1CFF28"/>
<path d="M41.1938 91.713C41.2995 91.6052 41.4256 91.5194 41.5647 91.4605C41.7038 91.4016 41.8531 91.3708 42.0041 91.3699C42.1552 91.369 42.3049 91.3979 42.4447 91.455C42.5845 91.5121 42.7116 91.5964 42.8187 91.7028C42.9259 91.8093 43.0109 91.9359 43.0689 92.0753C43.1269 92.2147 43.1567 92.3643 43.1567 92.5153C43.1567 92.6663 43.1269 92.8159 43.0689 92.9553C43.0109 93.0947 42.9259 93.2213 42.8187 93.3278L40.4016 95.7775C40.186 95.9928 39.8938 96.1138 39.5891 96.1138C39.2844 96.1138 38.9921 95.9928 38.7766 95.7775C38.669 95.6716 38.5834 95.5454 38.5247 95.4064C38.466 95.2673 38.4353 95.118 38.4343 94.9671C38.4334 94.8161 38.4622 94.6665 38.5192 94.5267C38.5762 94.3869 38.6602 94.2598 38.7664 94.1525L41.1938 91.713Z" fill="#00C40A"/>
<path d="M40.4402 88.9688C40.7753 88.9688 41.0496 89.4847 41.0496 90.1184C41.0496 90.7502 40.7733 91.2641 40.4402 91.262H38.6121C38.2769 91.262 38.0027 90.7461 38.0027 90.1123C38.0027 89.4786 38.2789 88.9667 38.6121 88.9688H40.4402Z" fill="#00C40A"/>
<path d="M41.8438 92.0278C41.7768 91.5768 42.2318 91.1361 42.8595 91.0426C43.4871 90.9492 44.0498 91.2457 44.1168 91.6926L44.4804 94.1464C44.5474 94.5973 44.0924 95.0381 43.4648 95.1315C42.8371 95.225 42.2745 94.9284 42.2074 94.4815L41.8438 92.0278Z" fill="#1CFF28"/>
<path d="M40.1295 84.1161C40.0592 83.8203 40.1092 83.5088 40.2683 83.2499C40.4275 82.9909 40.6829 82.8057 40.9785 82.7348C41.125 82.6994 41.277 82.6933 41.4258 82.7167C41.5746 82.7401 41.7174 82.7927 41.8459 82.8714C41.9744 82.9501 42.0861 83.0533 42.1746 83.1752C42.2631 83.2971 42.3267 83.4353 42.3618 83.5818L43.1621 86.9293C43.1975 87.0758 43.2037 87.2278 43.1802 87.3766C43.1568 87.5255 43.1042 87.6682 43.0255 87.7967C42.9469 87.9252 42.8436 88.0369 42.7217 88.1254C42.5998 88.214 42.4616 88.2776 42.3151 88.3126C42.1685 88.348 42.0164 88.3541 41.8674 88.3305C41.7185 88.3069 41.5757 88.2542 41.4471 88.1753C41.3186 88.0964 41.207 87.9929 41.1185 87.8708C41.0301 87.7487 40.9666 87.6103 40.9318 87.4636L40.1295 84.1161Z" fill="#00C40A"/>
<path d="M37.4035 83.3077C37.5822 83.0233 38.1611 83.0659 38.6974 83.4011C39.2357 83.7383 39.5261 84.242 39.3474 84.5264L38.3785 86.0702C38.1997 86.3545 37.6188 86.3139 37.0825 85.9767C36.5463 85.6395 36.2558 85.1358 36.4346 84.8514L37.4035 83.3077Z" fill="#00C40A"/>
<path d="M40.7428 83.7281C40.5254 83.5797 40.3731 83.3536 40.3172 83.0963C40.2613 82.8391 40.306 82.5701 40.4422 82.3448C40.6941 81.7639 41.2385 81.4409 41.661 81.6217L43.936 82.6109C44.156 82.7567 44.3107 82.9824 44.3672 83.2402C44.4237 83.4981 44.3776 83.7678 44.2386 83.9922C43.9868 84.5731 43.4424 84.8961 43.0199 84.7153L40.7428 83.7281Z" fill="#1CFF28"/>
<path d="M54.7118 95.0625C54.7721 94.9243 54.859 94.7994 54.9675 94.6948C55.0761 94.5901 55.2042 94.5079 55.3446 94.4529C55.4849 94.3978 55.6347 94.3709 55.7855 94.3737C55.9362 94.3766 56.0849 94.4091 56.2231 94.4694C56.3612 94.5295 56.4861 94.6162 56.5907 94.7245C56.6953 94.8329 56.7775 94.9609 56.8326 95.101C56.8877 95.2412 56.9146 95.3909 56.9118 95.5415C56.909 95.6921 56.8765 95.8406 56.8162 95.9786L55.4532 99.125C55.3932 99.2632 55.3065 99.3881 55.1981 99.4927C55.0897 99.5973 54.9618 99.6795 54.8216 99.7346C54.6814 99.7897 54.5318 99.8166 54.3812 99.8138C54.2306 99.8109 54.082 99.7785 53.944 99.7182C53.665 99.5969 53.4456 99.3697 53.334 99.0867C53.2224 98.8038 53.2278 98.488 53.3488 98.2089L54.7118 95.0625Z" fill="#00C40A"/>
<path d="M53.0156 92.7713C53.3285 92.6514 53.7672 93.0333 53.9927 93.6264C54.2181 94.2175 54.147 94.7944 53.8342 94.9142L52.13 95.5663C51.8172 95.6861 51.3805 95.3022 51.153 94.7111C50.9275 94.12 50.9986 93.5431 51.3114 93.4233L53.0156 92.7713Z" fill="#00C40A"/>
<path d="M55.437 95.1173C55.2115 94.7111 55.4756 94.1444 56.0281 93.8316C56.2374 93.672 56.5001 93.5991 56.7617 93.6278C57.0234 93.6566 57.2639 93.7848 57.4337 93.9859L58.6524 96.1431C58.8779 96.5494 58.6139 97.1161 58.0614 97.4269C57.8522 97.5866 57.5897 97.6599 57.3281 97.6315C57.0665 97.6032 56.8258 97.4754 56.6557 97.2745L55.437 95.1173Z" fill="#1CFF28"/>
<path d="M51.6933 102.729C51.8077 102.629 51.9407 102.554 52.0845 102.506C52.2283 102.458 52.3801 102.44 52.5312 102.451C52.6823 102.462 52.8296 102.503 52.9647 102.572C53.0998 102.641 53.22 102.735 53.3183 102.85C53.4178 102.965 53.4937 103.098 53.5415 103.241C53.5893 103.385 53.608 103.537 53.5967 103.688C53.5854 103.839 53.5441 103.987 53.4754 104.122C53.4067 104.257 53.3119 104.377 53.1964 104.475L50.5863 106.71C50.4721 106.81 50.3392 106.886 50.1953 106.934C50.0515 106.981 49.8995 107 49.7483 106.989C49.597 106.978 49.4496 106.936 49.3145 106.867C49.1794 106.799 49.0593 106.704 48.9613 106.588C48.8618 106.474 48.7859 106.341 48.7381 106.197C48.6903 106.053 48.6716 105.901 48.6829 105.75C48.6942 105.599 48.7354 105.451 48.8042 105.316C48.8729 105.181 48.9677 105.061 49.0832 104.963L51.6933 102.729Z" fill="#00C40A"/>
<path d="M51.1652 99.9375C51.5004 99.9659 51.7279 100.5 51.6751 101.132C51.6202 101.764 51.3054 102.251 50.9702 102.223L49.1543 102.068C48.8191 102.04 48.5916 101.506 48.6465 100.874C48.6993 100.242 49.0141 99.7526 49.3493 99.7811L51.1652 99.9375Z" fill="#00C40A"/>
<path d="M52.3211 103.096C52.2906 102.641 52.7781 102.237 53.4118 102.196C54.0436 102.156 54.5798 102.491 54.6103 102.946L54.7728 105.422C54.8012 105.877 54.3137 106.279 53.682 106.322C53.0482 106.362 52.512 106.027 52.4815 105.572L52.3211 103.096Z" fill="#1CFF28"/>
<path d="M63.5051 57.7546L61.6769 58.9733C61.4377 59.1342 61.2448 59.3551 61.1175 59.6137C60.9903 59.8724 60.933 60.16 60.9515 60.4477C60.97 60.7354 61.0636 61.0133 61.223 61.2535C61.3823 61.4938 61.6019 61.6881 61.8597 61.8171L61.9105 61.8435C62.1696 61.9725 62.458 62.0311 62.7468 62.0135C63.0357 61.996 63.3149 61.9028 63.5564 61.7434C63.7979 61.5839 63.9933 61.3638 64.1229 61.1051C64.2526 60.8464 64.312 60.5582 64.2952 60.2693L64.1693 58.0755C64.163 58.0013 64.1375 57.93 64.0953 57.8687C64.0531 57.8074 63.9957 57.7581 63.9287 57.7257C63.8616 57.6933 63.7873 57.6789 63.713 57.684C63.6387 57.689 63.5671 57.7134 63.5051 57.7546Z" fill="white"/>
<path d="M62.3594 65.2662L60.5313 66.4849C60.2926 66.6462 60.1002 66.8671 59.9733 67.1257C59.8464 67.3844 59.7894 67.6717 59.8078 67.9592C59.8263 68.2467 59.9197 68.5243 60.0787 68.7645C60.2376 69.0048 60.4567 69.1993 60.7141 69.3287L60.7669 69.3551C61.0257 69.4841 61.3138 69.5429 61.6024 69.5254C61.8911 69.508 62.17 69.415 62.4114 69.2557C62.6527 69.0965 62.848 68.8766 62.9775 68.6181C63.1071 68.3596 63.1664 68.0715 63.1495 67.7829L63.0236 65.5871C63.0179 65.5126 62.9928 65.441 62.9507 65.3793C62.9086 65.3175 62.8511 65.268 62.7839 65.2355C62.7166 65.203 62.642 65.1887 62.5675 65.1941C62.493 65.1995 62.4213 65.2243 62.3594 65.2662Z" fill="white"/>
<path d="M72.3004 63.2369L71.7174 65.3555C71.6422 65.6338 71.6412 65.927 71.7145 66.2059C71.7878 66.4848 71.9328 66.7396 72.1352 66.945C72.3375 67.1504 72.5901 67.2993 72.8678 67.3768C73.1456 67.4543 73.4387 67.4577 73.7182 67.3867L73.7751 67.3725C74.0553 67.3009 74.3118 67.1569 74.5188 66.9549C74.7258 66.7529 74.8761 66.5 74.9545 66.2215C75.0329 65.9431 75.0367 65.649 74.9655 65.3686C74.8943 65.0883 74.7507 64.8315 74.549 64.6242L73.0195 63.046C72.9667 62.9916 72.9004 62.9523 72.8273 62.9321C72.7543 62.9119 72.6772 62.9115 72.604 62.9309C72.5308 62.9504 72.4641 62.9889 72.4107 63.0427C72.3573 63.0965 72.3193 63.1635 72.3004 63.2369Z" fill="white"/>
<path d="M59.152 59.1093L58.175 61.0797C58.0469 61.3387 57.989 61.6269 58.0072 61.9153C58.0253 62.2038 58.1188 62.4824 58.2784 62.7234C58.4379 62.9643 58.6579 63.1592 58.9164 63.2885C59.1749 63.4179 59.4627 63.4771 59.7513 63.4603H59.8081C60.0969 63.4437 60.3762 63.3514 60.6181 63.1928C60.8599 63.0341 61.0558 62.8147 61.1861 62.5564C61.3163 62.2982 61.3764 62.0102 61.3602 61.7214C61.344 61.4326 61.2522 61.1532 61.0939 60.9111L59.8934 59.0687C59.8523 59.0057 59.7953 58.9546 59.7282 58.9206C59.6611 58.8865 59.5862 58.8708 59.511 58.8749C59.4359 58.879 59.3631 58.9029 59.3001 58.944C59.2371 58.9852 59.186 59.0422 59.152 59.1093Z" fill="white"/>
<path d="M66.0867 56.8283L64.5653 55.2419C64.3656 55.0327 64.1143 54.8798 63.8368 54.7984C63.5593 54.717 63.2652 54.71 62.9842 54.7781C62.7031 54.8462 62.4448 54.987 62.2354 55.1864C62.0259 55.3858 61.8725 55.6368 61.7907 55.9142L61.7744 55.9691C61.6923 56.2464 61.6846 56.5405 61.7518 56.8218C61.8191 57.1031 61.9591 57.3618 62.1578 57.572C62.3565 57.7822 62.6069 57.9365 62.884 58.0195C63.161 58.1025 63.4551 58.1113 63.7366 58.045L65.8755 57.5412C65.9489 57.5239 66.0164 57.4874 66.0712 57.4355C66.1261 57.3837 66.1662 57.3183 66.1876 57.246C66.2091 57.1736 66.211 57.0969 66.1933 57.0236C66.1756 56.9502 66.1388 56.8829 66.0867 56.8283Z" fill="white"/>
<path d="M67.4558 69.4688L69.6252 69.1072C69.9108 69.0606 70.1792 68.9397 70.4034 68.7566C70.6276 68.5736 70.7998 68.3349 70.9026 68.0643C71.0055 67.7938 71.0355 67.501 70.9895 67.2152C70.9436 66.9294 70.8233 66.6608 70.6408 66.4361L70.6042 66.3914C70.4215 66.1676 70.1832 65.9957 69.9131 65.8928C69.6431 65.7899 69.3508 65.7597 69.0655 65.8051C68.7801 65.8505 68.5116 65.97 68.2869 66.1517C68.0622 66.3334 67.8891 66.5708 67.7849 66.8403L66.9927 68.8919C66.966 68.9618 66.9581 69.0374 66.9697 69.1113C66.9813 69.1852 67.012 69.2548 67.0589 69.3131C67.1057 69.3715 67.167 69.4165 67.2366 69.4438C67.3062 69.4711 67.3818 69.4797 67.4558 69.4688Z" fill="white"/>
<path d="M69.6719 58.3639L70.6469 60.3342C70.7749 60.5927 70.9684 60.8131 71.2082 60.9734C71.448 61.1337 71.7256 61.2284 72.0133 61.2479C72.3011 61.2674 72.589 61.2111 72.8482 61.0847C73.1074 60.9582 73.3289 60.766 73.4907 60.5272L73.5232 60.4805C73.6847 60.2406 73.7805 59.9626 73.8009 59.6741C73.8212 59.3856 73.7655 59.0969 73.6392 58.8367C73.5129 58.5765 73.3206 58.3541 73.0813 58.1916C72.8421 58.0292 72.5644 57.9324 72.276 57.9109L70.0782 57.7484C70.0038 57.7448 69.9299 57.7606 69.8635 57.7943C69.7971 57.8279 69.7407 57.8783 69.6997 57.9404C69.6587 58.0025 69.6346 58.0742 69.6297 58.1485C69.6248 58.2227 69.6394 58.297 69.6719 58.3639Z" fill="white"/>
<path d="M66.6067 60.9376L64.7786 62.1563C64.5394 62.3172 64.3465 62.538 64.2192 62.7967C64.092 63.0554 64.0347 63.343 64.0532 63.6307C64.0717 63.9184 64.1653 64.1963 64.3246 64.4365C64.484 64.6768 64.7036 64.8711 64.9614 65.0001L65.0122 65.0265C65.2713 65.1555 65.5597 65.2141 65.8485 65.1965C66.1374 65.179 66.4166 65.0858 66.6581 64.9264C66.8996 64.7669 67.095 64.5468 67.2246 64.2881C67.3543 64.0294 67.4137 63.7411 67.3969 63.4522L67.271 61.2585C67.2647 61.1843 67.2392 61.113 67.197 61.0517C67.1548 60.9903 67.0974 60.941 67.0303 60.9087C66.9633 60.8763 66.889 60.8619 66.8147 60.867C66.7404 60.872 66.6688 60.8964 66.6067 60.9376Z" fill="white"/>
<path d="M68.3435 54.271L66.5154 55.4897C66.2762 55.6506 66.0833 55.8715 65.956 56.1302C65.8288 56.3888 65.7715 56.6764 65.79 56.9641C65.8085 57.2518 65.9021 57.5297 66.0615 57.7699C66.2208 58.0102 66.4404 58.2045 66.6982 58.3335L66.749 58.3578C67.0079 58.4867 67.2961 58.5454 67.5848 58.5279C67.8735 58.5104 68.1525 58.4174 68.3939 58.2582C68.6354 58.099 68.8308 57.8792 68.9606 57.6208C69.0905 57.3624 69.1501 57.0744 69.1337 56.7857L69.0078 54.5899C69.0006 54.5161 68.9746 54.4455 68.9321 54.3848C68.8897 54.324 68.8323 54.2753 68.7655 54.2432C68.6988 54.2112 68.6248 54.1969 68.5509 54.2017C68.477 54.2066 68.4056 54.2304 68.3435 54.271Z" fill="white"/>
<path opacity="0.24" d="M87.3438 94.7091C91.9018 94.7091 95.5968 91.0141 95.5968 86.4561C95.5968 81.8981 91.9018 78.2031 87.3438 78.2031C82.7858 78.2031 79.0908 81.8981 79.0908 86.4561C79.0908 91.0141 82.7858 94.7091 87.3438 94.7091Z" fill="#FFF276"/>
<defs>
<linearGradient id="paint0_linear_4_2280" x1="31.7302" y1="42.6136" x2="45.9104" y2="63.6553" gradientUnits="userSpaceOnUse">
<stop offset="0.102" stop-color="#FFD59E"/>
<stop offset="0.301" stop-color="#FFB76C"/>
</linearGradient>
<linearGradient id="paint1_linear_4_2280" x1="47.9085" y1="48.3039" x2="58.9559" y2="25.4682" gradientUnits="userSpaceOnUse">
<stop offset="0.102" stop-color="#FFD59E"/>
<stop offset="0.301" stop-color="#FFB76C"/>
</linearGradient>
<linearGradient id="paint2_linear_4_2280" x1="73.5374" y1="23.0926" x2="70.1624" y2="48.2409" gradientUnits="userSpaceOnUse">
<stop offset="0.102" stop-color="#FFD59E"/>
<stop offset="0.301" stop-color="#FFB76C"/>
</linearGradient>
</defs>
</svg>
