<svg width="157" height="157" viewBox="0 0 157 157" fill="none" xmlns="http://www.w3.org/2000/svg">
<path d="M64.2089 88.6414H59.2273V121.569H64.2089V88.6414Z" fill="#BD8D5A"/>
<path d="M64.2089 122.205H59.2273C59.0592 122.203 58.8986 122.135 58.7797 122.017C58.6608 121.898 58.593 121.737 58.5908 121.569V88.6414C58.593 88.4732 58.6608 88.3126 58.7797 88.1937C58.8986 88.0748 59.0592 88.0071 59.2273 88.0049H64.2089C64.3777 88.0049 64.5396 88.0719 64.6589 88.1913C64.7783 88.3107 64.8454 88.4726 64.8454 88.6414V121.569C64.8454 121.738 64.7783 121.9 64.6589 122.019C64.5396 122.138 64.3777 122.205 64.2089 122.205ZM59.8638 120.932H63.5724V89.2779H59.8638V120.932Z" fill="#00063C"/>
<path d="M119.685 88.6414H114.703V121.569H119.685V88.6414Z" fill="#BD8D5A"/>
<path d="M119.66 122.205H114.678C114.509 122.205 114.347 122.138 114.228 122.019C114.109 121.9 114.042 121.738 114.042 121.569V88.6414C114.042 88.4726 114.109 88.3107 114.228 88.1913C114.347 88.0719 114.509 88.0049 114.678 88.0049H119.66C119.828 88.0071 119.988 88.0748 120.107 88.1937C120.226 88.3126 120.294 88.4732 120.296 88.6414V121.569C120.294 121.737 120.226 121.898 120.107 122.017C119.988 122.135 119.828 122.203 119.66 122.205ZM115.314 120.932H119.023V89.2779H115.314V120.932Z" fill="#00063C"/>
<path d="M67.544 73.3487L58.4974 70.4803C58.4974 70.4803 35.3632 66.3898 35.6857 77.9484L43.5272 113.447L49.5696 113.906C49.5696 113.906 51.5045 94.6413 46.8794 82.9554C46.8794 82.9554 61.264 86.2312 67.8325 79.7221C69.5892 78.0078 66.4153 76.5821 67.544 73.3487Z" fill="#E8C79C"/>
<path d="M49.5697 114.568H49.5188L43.4764 114.109C43.3409 114.097 43.2129 114.041 43.1108 113.951C43.0087 113.861 42.9376 113.741 42.9078 113.609L35.0663 78.0757C35.0621 78.0334 35.0621 77.9908 35.0663 77.9484C35.0017 76.8806 35.1867 75.8124 35.6065 74.8285C36.0263 73.8445 36.6694 72.9718 37.4849 72.2795C43.366 67.1876 58.0052 69.7335 58.6248 69.8438L67.7477 72.7208C67.8301 72.7455 67.9064 72.7869 67.9721 72.8424C68.0378 72.8978 68.0914 72.9662 68.1296 73.0432C68.1929 73.2012 68.1929 73.3775 68.1296 73.5355C67.9503 74.0822 67.8893 74.6608 67.9508 75.2329C68.0122 75.805 68.1947 76.3575 68.486 76.8537C68.9358 77.8551 69.4365 79.0008 68.2654 80.1634C62.5455 85.8239 51.4537 84.4066 47.8978 83.7871C52.0223 95.5155 50.2995 113.184 50.2231 113.948C50.2209 114.032 50.2023 114.114 50.1682 114.19C50.1342 114.267 50.0855 114.336 50.0248 114.393C49.9641 114.451 49.8927 114.496 49.8146 114.526C49.7365 114.556 49.6533 114.57 49.5697 114.568ZM44.045 112.87L48.9841 113.252C49.2642 109.858 50.3419 93.4532 46.2854 83.2185C46.2439 83.1097 46.2322 82.9917 46.2516 82.8768C46.271 82.7619 46.3207 82.6543 46.3957 82.5651C46.4655 82.47 46.5606 82.3966 46.6701 82.353C46.7797 82.3095 46.8993 82.2977 47.0152 82.319C47.1595 82.319 61.1368 85.442 67.3828 79.2553C67.909 78.7377 67.7817 78.4067 67.3404 77.3629C66.7447 76.2577 66.5412 74.9833 66.7633 73.7476L58.2768 71.0744C58.2089 71.0744 43.6885 68.5284 38.2657 73.2469C37.5996 73.8077 37.074 74.5164 36.7306 75.3166C36.3873 76.1167 36.2358 76.986 36.2883 77.8551L44.045 112.87Z" fill="#00063C"/>
<path d="M30.9926 119.549V117.113C30.9926 117.224 31.3321 118.047 39.5979 117.818L46.1919 117.343C46.2767 117.338 46.3589 117.311 46.4302 117.265C46.5016 117.219 46.5599 117.155 46.5993 117.08L47.2612 115.832L51.4535 115.62V115.815C51.528 117.123 51.3817 118.434 51.0207 119.693C50.9698 119.821 44.3673 120.746 35.4989 120.601C35.4989 120.601 31.4085 120.703 30.9841 119.524L30.9926 119.549Z" fill="#2F3A5A"/>
<path d="M37.3915 121.28H35.499C34.1496 121.28 30.9163 121.28 30.4071 119.778C30.3949 119.708 30.3949 119.636 30.4071 119.566V117.113C30.406 117.031 30.4211 116.949 30.4516 116.873C30.4822 116.796 30.5275 116.726 30.585 116.667C30.6425 116.608 30.7112 116.561 30.7869 116.528C30.8627 116.495 30.9441 116.478 31.0266 116.477C31.1372 116.471 31.2476 116.494 31.3461 116.545C31.4446 116.596 31.5277 116.672 31.5867 116.766C31.8668 116.901 33.284 117.36 39.6319 117.181L46.1241 116.715L46.7521 115.535C46.8031 115.436 46.8795 115.353 46.9735 115.293C47.0674 115.233 47.1755 115.2 47.2867 115.196L51.479 114.983C51.5615 114.979 51.6441 114.991 51.7221 115.018C51.8 115.045 51.8718 115.088 51.9333 115.143C51.9948 115.198 52.0448 115.265 52.0804 115.34C52.1161 115.414 52.1366 115.495 52.141 115.577V115.773C52.2216 117.17 52.0608 118.571 51.6657 119.914C51.53 120.287 51.4536 120.483 46.6672 120.881C44.5032 121.085 41.2783 121.28 37.3915 121.28ZM35.4905 119.99C40.5138 120.121 45.5396 119.852 50.5201 119.184C50.7474 118.245 50.8558 117.282 50.8426 116.316L47.6516 116.469L47.1509 117.402C47.0626 117.574 46.9307 117.721 46.7685 117.826C46.6063 117.932 46.4192 117.993 46.2259 118.005L39.6404 118.48C35.1171 118.607 32.8088 118.437 31.6292 118.157V119.379C31.9347 119.71 33.6235 120.033 35.4905 119.99Z" fill="#00063C"/>
<path d="M30.9841 117.114C30.9841 117.114 30.9077 116.57 31.6969 116.121C31.8985 115.997 32.1153 115.9 32.3419 115.832L32.8935 115.654L33.1481 115.569L33.3263 115.51L33.5215 115.442L33.6403 115.391L33.8185 115.331L34.0392 115.255L34.4975 115.085L34.6842 115.017L35.2018 114.822H35.3037H35.397H35.4989H35.5668H35.6516L35.8553 114.746H35.8977C35.8977 114.746 41.7025 111.071 42.2626 110.961C42.5681 110.893 43.1876 111.241 43.8411 111.597L44.0532 111.716C44.5115 111.962 46.6925 113.464 48.7378 111.937C49.0388 111.714 49.283 111.423 49.4506 111.088C49.4926 110.966 49.5755 110.862 49.6853 110.794C49.7951 110.726 49.9251 110.698 50.0532 110.715C50.3587 110.774 50.7066 111.886 50.9697 113.15V113.252C50.9697 113.371 50.9697 113.498 51.0376 113.617C51.1055 113.736 51.0376 113.719 51.0376 113.77C51.0376 113.821 51.097 114.092 51.1225 114.254V114.44V114.559C51.1225 114.78 51.1819 114.992 51.2073 115.187C51.2328 115.382 51.2668 115.662 51.2837 115.858L47.4648 116.053C47.3526 116.057 47.2434 116.091 47.1481 116.15C47.0529 116.21 46.9748 116.293 46.9217 116.392L46.4719 117.241C46.419 117.336 46.3433 117.417 46.2515 117.477C46.1597 117.536 46.0546 117.572 45.9457 117.58L39.4366 118.047C31.1708 118.285 30.8398 117.453 30.8313 117.343L30.9841 117.114Z" fill="#8FB6F8"/>
<path d="M36.8398 118.514C30.4495 118.514 30.3816 117.665 30.3477 117.181V117.113C30.3595 116.784 30.4647 116.465 30.651 116.193C30.8373 115.921 31.0971 115.707 31.4 115.577C31.6423 115.43 31.9016 115.314 32.1723 115.229L32.7069 115.06L35.0322 114.211L35.1425 114.169H35.2444H35.3292H35.4141L35.6857 114.067C38.308 112.37 41.6262 110.341 42.1948 110.231C42.7634 110.121 43.2301 110.409 44.1467 110.91L44.5625 111.139C45.5554 111.716 47.0236 112.361 48.4154 111.326C48.6427 111.153 48.8259 110.929 48.95 110.672C49.0518 110.426 49.2339 110.222 49.4665 110.092C49.6992 109.963 49.9688 109.916 50.2315 109.959C50.6728 110.053 51.0801 110.333 51.6487 112.887L51.7845 113.532C51.7845 113.693 51.8439 113.863 51.8694 114.024V114.22L51.2584 114.432L51.8864 114.33C51.8864 114.559 51.9543 114.771 51.9797 114.975C52.0052 115.179 52.0391 115.467 52.0561 115.679C52.0642 115.764 52.0549 115.85 52.0286 115.932C52.0023 116.013 51.9596 116.089 51.9032 116.153C51.8468 116.217 51.7778 116.27 51.7004 116.306C51.6231 116.343 51.5391 116.364 51.4536 116.367L47.6346 116.562L47.1679 117.411C47.066 117.603 46.9166 117.766 46.734 117.885C46.5513 118.004 46.3414 118.074 46.124 118.089L39.6149 118.556C38.588 118.505 37.663 118.514 36.8398 118.514ZM31.7479 116.876C32.3759 117.054 34.243 117.351 39.564 117.198L46.0392 116.732L46.5059 115.883C46.6107 115.687 46.7642 115.522 46.9515 115.403C47.1388 115.284 47.3537 115.216 47.5752 115.204L50.7237 115.043C50.7237 114.856 50.6643 114.652 50.6388 114.449V114.321V114.16C50.6388 113.99 50.5794 113.829 50.554 113.676L50.4521 113.176V113.065C50.3374 112.49 50.1843 111.923 49.9939 111.368C49.7941 111.699 49.5317 111.987 49.2216 112.217C47.7365 113.312 45.9713 113.278 43.9685 112.106L43.629 111.92C43.2617 111.697 42.8754 111.507 42.4748 111.351C41.8893 111.606 38.9445 113.396 36.3391 115.043L36.2373 115.094L35.9742 115.196L35.8724 115.238L35.6263 115.331L35.3038 114.771L35.5244 115.365L34.0393 115.917H33.9544L33.0973 116.265L32.5202 116.443C32.3564 116.498 32.1997 116.572 32.0534 116.664C31.9453 116.721 31.8454 116.792 31.7564 116.876H31.7479Z" fill="#00063C"/>
<path d="M30.9842 117.767C30.8283 117.766 30.678 117.709 30.5609 117.606C30.4439 117.503 30.3682 117.361 30.3477 117.207C30.3365 117.098 30.351 116.987 30.3901 116.884C30.4484 116.745 30.554 116.632 30.6883 116.563C30.8225 116.495 30.9767 116.476 31.1233 116.511C31.27 116.546 31.3996 116.631 31.4891 116.752C31.5786 116.874 31.6222 117.023 31.6122 117.173C31.6033 117.32 31.5432 117.459 31.4424 117.566C31.3416 117.673 31.2065 117.741 31.0605 117.759L30.9842 117.767Z" fill="#00063C"/>
<path d="M99.0967 51.8864C99.4446 46.4805 97.8746 35.6008 97.8746 35.6008C97.8746 35.6008 102.585 27.4877 101.329 25.7565C100.548 24.6872 98.7827 24.4326 97.5776 24.3902C97.4554 24.389 97.3344 24.4142 97.2228 24.464C97.1113 24.5139 97.0118 24.5873 96.9313 24.6792C96.8507 24.771 96.7909 24.8792 96.756 24.9963C96.7211 25.1134 96.7118 25.2366 96.7289 25.3576C96.9581 27.0549 96.067 30.1525 96.067 30.1525C95.7785 29.6348 95.0486 28.5825 94.5225 27.8272C94.364 27.6047 94.1276 27.45 93.8603 27.394C93.5929 27.338 93.3143 27.3847 93.0799 27.5249C92.8455 27.6652 92.6725 27.8886 92.5954 28.1506C92.5183 28.4126 92.5428 28.6941 92.6639 28.9389C93.392 30.6609 93.8831 32.4738 94.1236 34.3279C91.1448 38.9615 92.0444 48.059 92.4263 50.257C88.6922 70.4548 90.5593 57.6487 92.4857 67.23L102.296 72.5086C102.797 68.8084 99.0967 51.8864 99.0967 51.8864Z" fill="#E8C79C"/>
<path d="M102.33 73.1111C102.226 73.111 102.124 73.0847 102.033 73.0348L92.2142 67.7562C92.1343 67.7091 92.0647 67.6466 92.0093 67.5723C91.9539 67.498 91.9139 67.4133 91.8917 67.3234C91.2213 63.9288 90.5933 63.6402 90.3557 63.5214C89.4137 63.0377 89.4137 63.0377 90.6612 56.3843C90.9667 54.7888 91.3401 52.786 91.8069 50.257C91.3825 47.8723 90.5254 39.0294 93.4532 34.1921C93.2225 32.4835 92.763 30.8136 92.0869 29.2275C91.8528 28.8348 91.7844 28.3651 91.8966 27.9219C92.0088 27.4786 92.2924 27.0981 92.6852 26.864C93.078 26.63 93.5476 26.5615 93.9909 26.6737C94.4341 26.7859 94.8146 27.0696 95.0487 27.4623L95.8125 28.5656C96.0603 27.547 96.1604 26.4981 96.1095 25.451C96.0752 25.2343 96.0902 25.0127 96.1534 24.8026C96.2166 24.5925 96.3263 24.3993 96.4744 24.2375C96.6192 24.0865 96.7932 23.9666 96.9858 23.8849C97.1783 23.8032 97.3855 23.7615 97.5946 23.7622C99.0289 23.8046 100.93 24.1271 101.838 25.3916C103.136 27.1908 100.039 33.0804 98.5282 35.7367C98.7488 37.3321 100.039 46.7691 99.7248 51.861C100.047 53.3207 103.416 68.9358 102.958 72.5765C102.942 72.6787 102.902 72.7757 102.842 72.8597C102.781 72.9437 102.702 73.0124 102.61 73.0602C102.523 73.101 102.426 73.1186 102.33 73.1111ZM93.0798 66.7717L101.736 71.4308C101.634 66.5426 98.5112 52.1835 98.4772 52.0222C98.468 51.9632 98.468 51.903 98.4772 51.844C98.8252 46.5654 97.2722 35.7961 97.2552 35.7197V35.6433C97.253 35.53 97.2824 35.4184 97.34 35.3208C99.8096 31.0776 101.38 26.9277 100.836 26.1724C100.183 25.2813 98.5112 25.0946 97.5692 25.0691C97.542 25.0642 97.5139 25.0671 97.4883 25.0777C97.4627 25.0882 97.4407 25.1059 97.4249 25.1285C97.4032 25.1542 97.3867 25.1839 97.3765 25.216C97.3663 25.248 97.3626 25.2817 97.3655 25.3152C97.6116 27.1314 96.729 30.2459 96.6866 30.4071C96.6525 30.5277 96.5835 30.6354 96.4884 30.7169C96.3933 30.7985 96.2763 30.8501 96.1519 30.8654C96.0269 30.882 95.8997 30.86 95.7875 30.8024C95.6753 30.7447 95.5833 30.6542 95.5239 30.5429C95.3033 30.161 94.7686 29.3548 94.0049 28.277C93.974 28.2286 93.9337 28.1869 93.8863 28.1545C93.8388 28.1222 93.7854 28.0997 93.729 28.0886C93.6727 28.0775 93.6147 28.078 93.5585 28.0899C93.5024 28.1019 93.4492 28.1251 93.4023 28.1582C93.3084 28.2149 93.2395 28.3052 93.2095 28.4107C93.1796 28.5163 93.1909 28.6292 93.2411 28.7268C94.0147 30.5381 94.5289 32.4494 94.7686 34.4043C94.766 34.5272 94.7309 34.6473 94.6668 34.7522C91.7899 39.2161 92.7149 48.2203 93.0968 50.2146C93.1139 50.29 93.1139 50.3683 93.0968 50.4437C92.6216 52.9897 92.2482 55.0774 91.9342 56.6983C91.5098 58.6038 91.1841 60.53 90.9582 62.4691C91.6541 62.8001 92.3924 63.5044 93.0798 66.7717Z" fill="#00063C"/>
<path d="M101.558 61.1197L89.838 59.5836L88.8196 74.6641L103.026 81.0544L101.558 61.1197Z" fill="#6C95F8"/>
<path d="M103.026 81.6909C102.936 81.6905 102.847 81.6732 102.763 81.64L88.5564 75.2412C88.4394 75.1871 88.3413 75.0991 88.2747 74.9887C88.2081 74.8783 88.1762 74.7504 88.183 74.6217L89.2099 59.5412C89.2149 59.4547 89.2378 59.3702 89.2771 59.2929C89.3164 59.2157 89.3713 59.1474 89.4382 59.0924C89.5052 59.0374 89.5828 58.9969 89.6662 58.9733C89.7496 58.9498 89.8369 58.9438 89.9228 58.9556L101.643 60.4832C101.787 60.5038 101.921 60.573 102.021 60.6794C102.121 60.7858 102.182 60.9231 102.194 61.0687L103.662 81.012C103.67 81.0994 103.658 81.1873 103.629 81.27C103.6 81.3528 103.555 81.4286 103.495 81.4925C103.435 81.5565 103.362 81.6072 103.281 81.6413C103.201 81.6755 103.114 81.6924 103.026 81.6909ZM89.4475 74.2652L102.279 80.036L100.989 61.6798L90.4574 60.305L89.4475 74.2652Z" fill="#00063C"/>
<path d="M70.0136 74.2738L62.0787 71.0489C62.0787 71.0489 37.8413 67.3148 38.1893 78.9243L46.0308 114.415L52.0731 114.873C52.0731 114.873 54.0166 95.6088 49.3829 83.9229C49.3829 83.9229 63.7675 87.1987 70.3361 80.698C72.0334 78.9243 68.8849 77.5071 70.0136 74.2738Z" fill="#E8C79C"/>
<path d="M70.3107 80.6216C63.7336 87.1307 49.349 83.8549 49.349 83.8549C53.9827 95.5408 52.0393 114.805 52.0393 114.805L46.0054 114.347L45.4368 111.801L48.3731 112.022C48.3731 112.022 50.3165 92.7572 45.6914 81.0713C45.6914 81.0713 60.076 84.3471 66.6445 77.8465C68.1381 76.3614 65.9995 75.0969 66.1014 72.6952L70.0051 74.2737C68.8849 77.507 72.0419 78.9243 70.3107 80.6216Z" fill="#D0AA79"/>
<path d="M52.0391 115.467H51.9882L45.9543 115.009C45.8178 114.996 45.6886 114.941 45.585 114.852C45.4814 114.762 45.4087 114.642 45.3773 114.508L37.5357 79.0177C37.5357 79.0177 37.5357 78.9328 37.5357 78.8988C37.4762 77.8505 37.6571 76.8024 38.0645 75.8346C38.4719 74.8668 39.0951 74.0049 39.8865 73.3147C45.9289 67.9852 61.5101 70.319 62.1635 70.4208H62.3078L70.2427 73.6542C70.3942 73.715 70.5166 73.8317 70.5845 73.9802C70.6524 74.1286 70.6607 74.2975 70.6076 74.4519C70.4306 74.9976 70.3709 75.5745 70.4323 76.1449C70.4937 76.7152 70.6749 77.2662 70.964 77.7617C71.4138 78.7715 71.9145 79.9087 70.7434 81.0714C65.0235 86.7319 53.9316 85.3146 50.3334 84.6951C54.4578 96.4234 52.7435 114.092 52.6671 114.856C52.6586 115.018 52.5893 115.171 52.4728 115.285C52.3564 115.398 52.2015 115.463 52.0391 115.467ZM46.5229 113.77L51.4621 114.152C51.7336 110.757 52.8114 94.3612 48.7549 84.118C48.7133 84.0092 48.7017 83.8912 48.7211 83.7763C48.7404 83.6614 48.7902 83.5538 48.8652 83.4646C48.9405 83.3779 49.0378 83.3132 49.1469 83.2774C49.2559 83.2415 49.3727 83.2358 49.4847 83.2609C49.629 83.2609 63.6147 86.3839 69.8523 80.1973C70.3699 79.6796 70.2427 79.3486 69.8014 78.3133C69.2115 77.2 69.0141 75.9203 69.2412 74.6811L61.9514 71.6684C60.7972 71.4986 46.1835 69.5128 40.7861 74.2737C40.1355 74.8274 39.621 75.5233 39.2825 76.3077C38.9441 77.0921 38.7907 77.9438 38.8342 78.797L46.5229 113.77Z" fill="#00063C"/>
<path d="M33.4621 120.508V118.098C33.4621 118.208 33.7931 119.032 42.0674 118.802L48.6529 118.327C48.7382 118.324 48.821 118.298 48.8927 118.251C48.9643 118.205 49.0222 118.14 49.0603 118.064L49.7307 116.817L53.923 116.604V116.8C53.9981 118.107 53.8518 119.419 53.4902 120.678C53.4393 120.805 46.8368 121.73 37.9769 121.586C37.9769 121.586 33.8864 121.696 33.4536 120.508H33.4621Z" fill="#2F3A5A"/>
<path d="M39.8865 122.205H37.9856C36.6362 122.205 33.4113 122.205 32.8937 120.703C32.8815 120.633 32.8815 120.561 32.8937 120.491V118.081C32.8914 117.916 32.9542 117.757 33.0686 117.637C33.1829 117.518 33.3396 117.449 33.5047 117.445C33.6149 117.441 33.7243 117.465 33.8224 117.516C33.9204 117.566 34.0039 117.641 34.0648 117.733C34.3449 117.869 35.7621 118.327 42.1185 118.149L48.6022 117.682L49.2302 116.503C49.2819 116.404 49.3585 116.321 49.4523 116.262C49.5461 116.202 49.6538 116.168 49.7648 116.163L53.9571 115.951C54.0396 115.946 54.1222 115.958 54.2002 115.985C54.2781 116.013 54.3499 116.055 54.4114 116.111C54.4729 116.166 54.5229 116.233 54.5585 116.307C54.5942 116.382 54.6147 116.462 54.6191 116.545V116.74C54.6997 118.138 54.5389 119.539 54.1438 120.882C54.0081 121.255 53.9317 121.459 49.1453 121.849C46.9728 122.01 43.7564 122.205 39.8865 122.205ZM37.9856 120.916C43.0058 121.047 48.0286 120.78 53.0066 120.118C53.2327 119.176 53.3438 118.21 53.3376 117.241L50.1382 117.402L49.646 118.327C49.5549 118.499 49.4213 118.645 49.2578 118.75C49.0944 118.856 48.9066 118.917 48.7125 118.93L42.127 119.405C37.6122 119.532 35.3378 119.405 34.1157 119.082V120.313C34.4043 120.635 36.0931 120.966 37.9686 120.916H37.9856Z" fill="#00063C"/>
<path d="M33.4538 118.047C33.4538 118.047 33.3859 117.504 34.1666 117.063C34.3659 116.932 34.5832 116.832 34.8116 116.766L35.3632 116.587L35.6178 116.503H35.6603L35.8385 116.443L36.0337 116.375L36.161 116.333L36.3307 116.265L36.5598 116.189L37.0096 116.019L37.1963 115.951L37.714 115.756H37.8158L37.9177 115.713H38.0195H38.0789H38.1638L38.3675 115.637C38.3675 115.637 44.1722 111.962 44.7323 111.852C45.0378 111.784 45.6573 112.132 46.3108 112.497L46.523 112.607C46.9812 112.862 49.1623 114.355 51.2075 112.836C51.5103 112.613 51.7572 112.323 51.9289 111.988C51.9722 111.866 52.0554 111.763 52.1648 111.696C52.2743 111.628 52.4035 111.599 52.5314 111.614C52.8369 111.674 53.1764 112.794 53.4395 114.05V114.152C53.4395 114.271 53.4904 114.398 53.5073 114.517C53.5113 114.568 53.5113 114.619 53.5073 114.669C53.5073 114.831 53.5668 114.992 53.5922 115.153C53.6177 115.314 53.5922 115.28 53.5922 115.34C53.5922 115.399 53.5922 115.425 53.5922 115.459C53.5922 115.679 53.6601 115.892 53.6856 116.087C53.711 116.282 53.7365 116.562 53.7619 116.766L49.9345 116.952C49.8235 116.957 49.7158 116.991 49.622 117.051C49.5282 117.11 49.4516 117.193 49.3999 117.292L48.9416 118.14C48.8893 118.237 48.8138 118.318 48.7218 118.377C48.6299 118.437 48.5246 118.472 48.4155 118.48L41.9063 118.947C33.6405 119.184 33.3095 118.353 33.301 118.242L33.4538 118.047Z" fill="#5E54DD"/>
<path d="M39.3178 119.439C32.919 119.439 32.8596 118.59 32.8171 118.106V118.047C32.8259 117.718 32.9279 117.398 33.1112 117.125C33.2944 116.851 33.5515 116.636 33.8525 116.502C34.0987 116.357 34.3606 116.24 34.6332 116.155L35.1594 115.985L37.4847 115.136L37.595 115.094H37.6969H37.7902H37.8836L38.1382 114.992C40.2302 113.581 42.4069 112.3 44.6558 111.156C45.148 111.063 45.6827 111.334 46.5907 111.826L47.0235 112.073C48.0079 112.641 49.4761 113.295 50.8764 112.251C51.0989 112.075 51.2787 111.852 51.4025 111.597C51.5036 111.349 51.6871 111.144 51.9221 111.015C52.1571 110.887 52.4292 110.844 52.6925 110.893C53.1253 110.978 53.5411 111.266 54.1097 113.812L54.237 114.457C54.237 114.618 54.2964 114.788 54.3219 114.949V115.145L53.7109 115.357L54.3389 115.263C54.3389 115.484 54.4068 115.705 54.4322 115.908C54.4577 116.112 54.4916 116.392 54.5086 116.604C54.516 116.69 54.5063 116.776 54.4801 116.857C54.4538 116.939 54.4116 117.014 54.3558 117.08C54.2993 117.144 54.2302 117.196 54.1528 117.232C54.0755 117.269 53.9915 117.289 53.9061 117.292L50.0871 117.487L49.6204 118.336C49.5194 118.526 49.3712 118.688 49.19 118.806C49.0088 118.923 48.8005 118.992 48.585 119.006L42.0674 119.473C41.0575 119.43 40.1325 119.439 39.3178 119.439ZM34.2259 117.801C34.8624 117.979 36.7209 118.276 42.042 118.123L48.5256 117.665L48.9924 116.816C49.0965 116.62 49.2498 116.455 49.4373 116.336C49.6247 116.217 49.8399 116.148 50.0617 116.138L53.2017 115.985C53.2017 115.79 53.1508 115.586 53.1168 115.382V115.255V115.094C53.1168 114.924 53.0659 114.763 53.032 114.61L52.9386 114.109C52.9347 114.073 52.9347 114.036 52.9386 113.999C52.8254 113.424 52.6752 112.857 52.4888 112.302C52.286 112.632 52.0208 112.921 51.7081 113.15C50.2229 114.245 48.4577 114.211 46.4549 113.04L46.1239 112.853C45.7559 112.629 45.3664 112.441 44.9613 112.293C44.3757 112.539 41.4394 114.33 38.8256 115.985C38.7857 116.01 38.7429 116.03 38.6983 116.044L38.4607 116.138L38.1551 115.569L38.3503 116.18L36.5342 116.85H36.4409H36.3221L35.6347 117.08L35.0661 117.266C34.9025 117.318 34.7457 117.389 34.5993 117.478C34.4589 117.566 34.3329 117.675 34.2259 117.801Z" fill="#00063C"/>
<path d="M33.4538 118.692C33.3002 118.691 33.152 118.635 33.0365 118.534C32.9211 118.432 32.8463 118.293 32.8258 118.14C32.8003 118.043 32.8003 117.941 32.8258 117.843C32.8644 117.737 32.9306 117.643 33.0175 117.571C33.1045 117.499 33.2091 117.451 33.3206 117.433C33.4322 117.414 33.5466 117.426 33.6521 117.466C33.7576 117.507 33.8504 117.575 33.921 117.663C33.9917 117.751 34.0375 117.857 34.0538 117.969C34.0702 118.08 34.0564 118.195 34.0141 118.299C33.9717 118.404 33.9021 118.496 33.8126 118.565C33.7231 118.634 33.6168 118.678 33.5047 118.692H33.4538Z" fill="#00063C"/>
<path d="M121.586 68.8763L117.979 67.179L116.749 67.5524C115.986 66.9235 115.19 66.3371 114.364 65.7957C113.32 65.1507 113.023 65.8721 112.667 66.865C112.667 66.865 111.444 66.6698 111.122 67.3742C111.122 67.3742 110.443 65.923 109.561 67.3063C109.561 67.3063 109.06 67.6882 108.288 67.0517C107.515 66.4152 106.293 67.476 106.081 69.1733C105.958 70.0675 105.898 70.9694 105.903 71.872L100.37 70.7603L100.989 82.862C100.989 82.862 108.381 81.0968 109.654 81.0374C110.745 80.9291 111.846 81.0773 112.87 81.4702C114.635 82.4122 116.757 83.3033 118.522 83.0148C120.287 82.7262 122.036 83.3712 123.937 81.0205C125.838 78.6697 124.93 71.4307 125.405 70.0559C125.88 68.6811 121.586 68.8763 121.586 68.8763Z" fill="#E8C79C"/>
<path d="M117.86 83.7362C116.002 83.5839 114.204 83.0029 112.607 82.0389C111.665 81.6753 110.649 81.5443 109.645 81.657C108.653 81.6994 103.136 82.9809 101.1 83.4646C101.008 83.487 100.912 83.4887 100.82 83.4697C100.727 83.4506 100.64 83.4112 100.565 83.3543C100.49 83.2989 100.428 83.2276 100.384 83.1454C100.34 83.0632 100.315 82.9722 100.31 82.879L99.7587 70.8028C99.7553 70.7068 99.7733 70.6113 99.8115 70.5232C99.8496 70.4351 99.907 70.3567 99.9794 70.2936C100.053 70.2296 100.14 70.1833 100.234 70.1582C100.328 70.1332 100.427 70.1302 100.522 70.1493L105.309 71.1168C105.309 70.6415 105.377 69.9626 105.479 69.1139C105.515 68.5435 105.696 67.9916 106.003 67.5094C106.31 67.0273 106.734 66.6305 107.235 66.3558C107.479 66.2508 107.747 66.2158 108.009 66.2548C108.272 66.2938 108.518 66.4052 108.72 66.5765C108.844 66.6967 109.001 66.7766 109.17 66.8056C109.301 66.5874 109.487 66.407 109.708 66.282C109.93 66.157 110.18 66.0918 110.435 66.0928C110.733 66.1172 111.015 66.243 111.232 66.4492C111.551 66.2996 111.899 66.2214 112.251 66.2201C112.319 65.9568 112.444 65.7118 112.617 65.5021C112.79 65.2924 113.007 65.1232 113.252 65.0065C113.498 64.9383 113.757 64.9266 114.008 64.9722C114.259 65.0177 114.497 65.1194 114.703 65.2696C115.501 65.7703 116.401 66.5001 116.884 66.8565L117.792 66.585C117.937 66.5294 118.097 66.5294 118.242 66.585L121.713 68.1804C122.842 68.1804 125.176 68.1804 125.88 69.1479C125.995 69.3013 126.07 69.481 126.098 69.6706C126.126 69.8603 126.107 70.054 126.041 70.2342C125.913 71.1305 125.868 72.0367 125.906 72.9413C125.906 75.7758 125.906 79.6542 124.471 81.4278C123.938 82.1413 123.235 82.71 122.425 83.082C121.616 83.4541 120.726 83.6177 119.838 83.5579C119.443 83.5669 119.049 83.5981 118.658 83.6513C118.395 83.7014 118.128 83.7297 117.86 83.7362ZM110.265 80.3416C111.274 80.2905 112.28 80.4796 113.201 80.8932C114.644 81.657 116.766 82.6414 118.454 82.3698C118.899 82.3073 119.347 82.2733 119.795 82.268C120.503 82.3255 121.214 82.1995 121.859 81.9022C122.505 81.6049 123.062 81.1463 123.478 80.5707C124.607 79.1704 124.624 75.4109 124.633 72.9329C124.575 71.9051 124.637 70.874 124.819 69.8608C123.791 69.4881 122.692 69.3489 121.603 69.4534C121.503 69.4585 121.404 69.4381 121.314 69.394L117.962 67.8919L116.961 68.1974C116.86 68.2259 116.754 68.2292 116.652 68.207C116.55 68.1848 116.455 68.1378 116.375 68.0701C116.375 68.0701 115.06 66.9923 114.067 66.3728C113.965 66.2888 113.847 66.228 113.719 66.1946C113.556 66.4598 113.427 66.7451 113.337 67.0432C113.289 67.1859 113.192 67.3067 113.063 67.3844C112.934 67.4621 112.781 67.4916 112.633 67.4676C112.302 67.4166 111.835 67.4676 111.784 67.6203C111.732 67.7297 111.651 67.8221 111.549 67.8867C111.446 67.9513 111.328 67.9855 111.207 67.9852C111.086 67.9855 110.968 67.9513 110.865 67.8867C110.763 67.8221 110.681 67.7297 110.63 67.6203C110.574 67.5093 110.499 67.4088 110.409 67.3233C110.327 67.4208 110.251 67.5228 110.18 67.6288C110.138 67.6905 110.087 67.7449 110.027 67.7901C109.702 67.98 109.323 68.0563 108.95 68.0072C108.576 67.958 108.23 67.7861 107.965 67.5185C107.965 67.5185 107.889 67.4506 107.761 67.5185C107.48 67.7071 107.247 67.9589 107.081 68.2535C106.914 68.5482 106.819 68.8777 106.802 69.2158C106.684 70.0763 106.624 70.944 106.624 71.8127C106.629 71.9083 106.61 72.0036 106.57 72.0907C106.53 72.1778 106.47 72.2541 106.395 72.3134C106.322 72.3756 106.237 72.4208 106.144 72.4458C106.052 72.4707 105.955 72.4748 105.86 72.4576L101.125 71.4986L101.609 81.9879C103.586 81.5212 108.551 80.3755 109.645 80.2906L110.265 80.3416Z" fill="#00063C"/>
<path d="M121.586 68.8764C121.586 68.8764 122.299 69.9966 121.297 72.1521C120.296 74.3077 118.845 74.9782 117.232 74.6302C116.456 74.446 115.668 74.3183 114.873 74.2483L114.567 75.411C114.567 75.411 116.969 76.1663 116.816 77.558C116.664 78.9498 115.229 79.3996 113.286 79.2044C111.343 79.0092 110.205 78.814 109.713 80.3671C109.646 80.5855 109.601 80.8101 109.577 81.0375C110.694 80.9169 111.823 81.0653 112.87 81.4703C114.635 82.4123 116.757 83.3034 118.522 83.0149C120.287 82.7263 122.036 83.3713 123.937 81.0205C125.837 78.6698 124.929 71.4308 125.405 70.056C125.88 68.6812 121.586 68.8764 121.586 68.8764Z" fill="#39476B"/>
<path d="M125.439 70.0814C124.963 71.4562 125.871 78.7036 123.979 81.0459C122.086 83.3882 120.33 82.7432 118.565 83.0487C116.799 83.3542 114.669 82.4377 112.87 81.4702C111.825 81.0566 110.696 80.8995 109.577 81.0119C109.593 80.7807 109.639 80.5525 109.713 80.333C109.785 79.9692 109.982 79.6423 110.271 79.4095C110.56 79.1768 110.921 79.0531 111.292 79.0601C112.989 79.9681 115.06 80.7574 116.765 80.5112C118.471 80.2651 120.287 80.8677 122.18 78.5169C123.724 76.6159 123.427 71.541 123.504 68.9187C124.615 69.063 125.676 69.36 125.439 70.0814Z" fill="#2F3A5A"/>
<path d="M117.86 83.7362C116.002 83.5839 114.204 83.0029 112.607 82.0389C111.665 81.6753 110.649 81.5443 109.645 81.657C109.554 81.6641 109.462 81.6502 109.377 81.6163C109.291 81.5825 109.215 81.5296 109.153 81.4618C109.091 81.3954 109.043 81.3163 109.014 81.2299C108.985 81.1435 108.974 81.0518 108.983 80.9611C109.004 80.6735 109.055 80.389 109.136 80.1124C109.764 78.1521 111.3 78.3048 113.074 78.483H113.38C114.602 78.6018 116.095 78.483 116.222 77.3967C116.29 76.7518 115.009 76.1153 114.415 75.9286C114.26 75.8812 114.13 75.7768 114.049 75.6365C113.969 75.4962 113.945 75.3306 113.982 75.1733L114.254 74.0106C114.282 73.8646 114.364 73.7343 114.483 73.645C114.602 73.5557 114.75 73.5136 114.899 73.5269C115.728 73.5917 116.551 73.7223 117.36 73.9173C118.828 74.2313 119.906 73.5354 120.754 71.7957C121.603 70.0559 121.094 69.1479 121.068 69.1139C121.014 69.0166 120.986 68.9071 120.986 68.7957C120.986 68.6843 121.014 68.5748 121.068 68.4775C121.118 68.3803 121.194 68.2983 121.286 68.2401C121.379 68.1818 121.485 68.1495 121.594 68.1465C122.647 68.1465 125.176 68.1465 125.914 69.1055C126.029 69.2589 126.104 69.4385 126.132 69.6282C126.16 69.8178 126.141 70.0115 126.075 70.1917C125.947 71.0881 125.902 71.9943 125.939 72.8989C125.939 75.7334 125.94 79.6117 124.505 81.3854C123.972 82.0989 123.269 82.6675 122.459 83.0396C121.65 83.4116 120.76 83.5753 119.872 83.5155C119.477 83.5245 119.083 83.5557 118.692 83.6089C118.419 83.6751 118.141 83.7177 117.86 83.7362ZM110.409 80.3416C111.37 80.3056 112.326 80.4945 113.201 80.8932C114.644 81.657 116.766 82.6499 118.454 82.3698C118.899 82.3073 119.347 82.2733 119.795 82.268C120.503 82.3255 121.214 82.1995 121.859 81.9022C122.504 81.6048 123.062 81.1463 123.478 80.5707C124.607 79.1704 124.624 75.4109 124.633 72.9329C124.575 71.905 124.637 70.874 124.819 69.8608C124.064 69.5508 123.25 69.4089 122.435 69.4449C122.536 70.4518 122.341 71.4663 121.874 72.3643C120.831 74.6217 119.133 75.6316 117.097 75.1903C116.307 75.0205 115.739 74.9357 115.399 74.8847V74.9611C116.248 75.3261 117.691 76.1662 117.538 77.575C117.453 78.3557 116.859 80.1209 113.295 79.7815H112.989C111.173 79.6372 110.698 79.6626 110.409 80.384V80.3416Z" fill="#00063C"/>
<path d="M102.95 71.558C101.609 69.3431 99.207 67.0432 94.2424 65.6175C92.3304 65.0619 90.343 64.8099 88.3528 64.8707C81.1223 65.0913 73.425 66.0248 73.425 66.0248L68.6132 66.6613L67.8918 81.8776C68.138 81.8776 70.5906 84.0247 70.8451 84.0332C72.7291 84.5593 85.391 85.5098 93.0543 85.2213C97.2975 85.3146 101.295 84.9921 103.552 82.4717L102.95 71.558Z" fill="#5E54DD"/>
<path d="M103.578 82.4717C101.32 85.0177 97.3655 85.3147 93.0799 85.2129C85.442 85.5014 72.7123 84.5594 70.8707 84.0332C70.6161 84.0332 68.1635 81.9116 67.9089 81.8777L68.1211 77.3968C68.6924 77.8945 69.3025 78.3457 69.9457 78.7462C71.8382 79.2723 84.4915 80.2143 92.1633 79.9343C96.449 80.0191 100.404 79.6966 102.661 77.1846L102.279 70.5822C102.525 70.9046 102.746 71.2441 102.95 71.5666L103.578 82.4717Z" fill="#4439CC"/>
<path d="M89.9567 85.9087C82.4122 85.9087 72.6443 85.1449 70.7857 84.6612C70.5226 84.6188 70.2341 84.4066 68.9781 83.4137C68.5538 83.0827 67.9258 82.565 67.7391 82.4717C67.6104 82.4272 67.4999 82.3417 67.4248 82.2281C67.3496 82.1146 67.3139 81.9795 67.3232 81.8437L68.0191 66.6274C68.028 66.4784 68.089 66.3373 68.1914 66.2287C68.2938 66.1202 68.431 66.051 68.5792 66.0334L73.3911 65.3969C73.4674 65.3969 81.1986 64.4549 88.3697 64.2342C90.4251 64.1771 92.4771 64.4347 94.4545 64.998C98.7911 66.2455 101.753 68.2823 103.535 71.2356C103.589 71.3224 103.618 71.4221 103.62 71.5241L104.256 82.4377C104.264 82.6057 104.207 82.7701 104.095 82.896C101.626 85.6541 97.3569 85.9427 93.1137 85.8578C92.0868 85.8917 91.0175 85.9087 89.9567 85.9087ZM71.0573 83.4307C72.8225 83.8974 85.2127 84.8734 93.0543 84.5848C96.9326 84.6612 100.768 84.4321 102.924 82.2341L102.321 71.7533C100.709 69.2073 98.0019 67.3573 94.0641 66.2285C92.2143 65.6971 90.2936 65.4538 88.3697 65.5072C81.258 65.7278 73.5778 66.6529 73.5014 66.6614L69.2581 67.2215L68.5707 81.5297C68.8084 81.6994 69.1563 81.971 69.7249 82.4208C70.2935 82.8706 70.8536 83.3034 71.0573 83.4307Z" fill="#00063C"/>
<path d="M96.466 50.1805C96.8224 44.7662 95.2439 33.8865 95.2439 33.8865C95.2439 33.8865 99.9539 25.7734 98.7064 24.0506C97.9256 22.9729 96.1604 22.7183 94.9469 22.6758C94.8239 22.6744 94.702 22.6998 94.5898 22.7502C94.4775 22.8006 94.3776 22.8747 94.2969 22.9676C94.2161 23.0604 94.1566 23.1697 94.1223 23.2878C94.088 23.406 94.0798 23.5302 94.0982 23.6518C94.3359 25.3491 93.4363 28.4466 93.4363 28.4466C93.1477 27.929 92.4179 26.8682 91.8917 26.1214C91.74 25.8875 91.5035 25.7215 91.232 25.6582C90.9605 25.595 90.675 25.6394 90.4356 25.7822C90.1961 25.925 90.0213 26.1551 89.9478 26.424C89.8744 26.693 89.908 26.9799 90.0417 27.2246C90.7682 28.9495 91.2564 30.7653 91.4929 32.622C88.5226 37.2471 89.4137 46.3531 89.7956 48.5426C86.07 68.749 87.937 55.9429 89.855 65.5156L99.6739 70.8027C100.141 67.1026 96.466 50.1805 96.466 50.1805Z" fill="#E8C79C"/>
<path d="M99.7076 71.4053C99.6009 71.4062 99.4958 71.3799 99.4021 71.329L89.5917 66.0419C89.508 65.9998 89.4353 65.9387 89.3793 65.8636C89.3233 65.7885 89.2856 65.7013 89.2692 65.6091C88.5903 62.2145 87.9623 61.9344 87.7247 61.8071C86.7827 61.3319 86.7827 61.3319 88.0387 54.6785C88.3357 53.083 88.7176 51.0802 89.1844 48.5427C88.7516 46.158 87.9029 37.3151 90.8223 32.4778C90.5901 30.7704 90.1335 29.1011 89.4644 27.5132C89.3491 27.3204 89.2728 27.1068 89.24 26.8845C89.2073 26.6622 89.2186 26.4357 89.2733 26.2178C89.3281 25.9999 89.4253 25.7949 89.5593 25.6146C89.6932 25.4342 89.8614 25.2821 90.0542 25.1667C90.247 25.0514 90.4607 24.9751 90.6829 24.9423C90.9052 24.9095 91.1318 24.9209 91.3496 24.9756C91.5675 25.0304 91.7725 25.1275 91.9529 25.2615C92.1332 25.3955 92.2854 25.5637 92.4007 25.7565L93.1645 26.8513C93.4215 25.8343 93.5217 24.784 93.4616 23.7367C93.432 23.5195 93.4501 23.2984 93.5146 23.0888C93.579 22.8792 93.6884 22.6862 93.835 22.5232C93.9819 22.3698 94.1585 22.2478 94.354 22.1647C94.5494 22.0816 94.7597 22.0389 94.9722 22.0394C96.3979 22.0904 98.2989 22.4128 99.2154 23.6773C100.616 25.6207 96.8392 32.3929 95.8972 33.9969C96.1093 35.5414 97.4078 45.0293 97.1023 50.1212C97.4163 51.5809 100.785 67.2045 100.327 70.8367C100.314 70.9401 100.277 71.0388 100.218 71.1246C100.159 71.2103 100.08 71.2804 99.9877 71.329C99.9005 71.3733 99.8052 71.3993 99.7076 71.4053ZM90.4573 65.0659L99.1051 69.725C99.0117 64.8368 95.8802 50.4692 95.8463 50.3164C95.8378 50.2573 95.8378 50.1973 95.8463 50.1382C96.1857 44.8511 94.6412 34.0902 94.6242 34.0139C94.6014 33.8733 94.6284 33.7293 94.7006 33.6065C96.8392 29.9404 98.7996 25.2898 98.197 24.4581C97.5945 23.6264 95.8717 23.3803 94.9382 23.3464C94.8703 23.3464 94.8279 23.3464 94.7855 23.4142C94.7643 23.4401 94.7489 23.47 94.7401 23.5022C94.7313 23.5343 94.7294 23.568 94.7345 23.6009C94.9806 25.4171 94.0896 28.5231 94.0471 28.6928C94.0136 28.8129 93.9446 28.92 93.8493 29.0003C93.7539 29.0805 93.6365 29.1301 93.5125 29.1426C93.3887 29.1565 93.2635 29.1343 93.152 29.0786C93.0406 29.0228 92.9476 28.936 92.8845 28.8286C92.6723 28.4467 92.1292 27.6405 91.3739 26.5542C91.3057 26.4612 91.2049 26.3972 91.0916 26.3752C90.9784 26.3532 90.861 26.3747 90.7629 26.4354C90.6704 26.4935 90.6032 26.5843 90.5749 26.6898C90.5466 26.7952 90.5591 26.9075 90.6101 27.004C91.3703 28.7922 91.8787 30.6772 92.1207 32.6051C92.146 32.7533 92.1125 32.9056 92.0273 33.0294C89.1589 37.5018 90.0839 46.506 90.4658 48.4918C90.4785 48.5705 90.4785 48.6507 90.4658 48.7294C89.9906 51.2754 89.6172 53.3631 89.2947 54.984C88.8718 56.8865 88.5488 58.8099 88.3272 60.7463C89.0571 61.1027 89.7614 61.7901 90.4573 65.0659Z" fill="#00063C"/>
<path d="M100.404 79.3486L98.9354 59.4054L87.2156 57.8778L86.1887 72.9498" fill="#5E54DD"/>
<path d="M100.395 79.9851C100.235 79.9833 100.081 79.9211 99.9648 79.811C99.8484 79.7009 99.7778 79.5509 99.7671 79.391L98.3414 59.9739L87.8012 58.5567L86.8252 72.9837C86.8276 73.0723 86.8115 73.1605 86.7779 73.2425C86.7443 73.3245 86.6939 73.3985 86.63 73.46C86.5661 73.5214 86.49 73.5688 86.4068 73.5991C86.3235 73.6294 86.2348 73.642 86.1464 73.6361C86.0579 73.6301 85.9717 73.6058 85.8932 73.5646C85.8147 73.5234 85.7457 73.4663 85.6906 73.3969C85.6355 73.3275 85.5954 73.2474 85.5731 73.1616C85.5507 73.0758 85.5465 72.9863 85.5607 72.8989L86.5621 57.8354C86.5666 57.7485 86.5893 57.6636 86.6288 57.5861C86.6683 57.5086 86.7237 57.4403 86.7913 57.3856C86.9297 57.2741 87.1068 57.2222 87.2835 57.2413L99.0033 58.7774C99.1486 58.7965 99.2829 58.8652 99.3834 58.9719C99.4839 59.0786 99.5445 59.2167 99.555 59.3629L101.015 79.2977C101.022 79.3813 101.012 79.4655 100.986 79.5454C100.961 79.6253 100.919 79.6993 100.865 79.7632C100.81 79.8271 100.744 79.8796 100.669 79.9177C100.594 79.9557 100.513 79.9787 100.429 79.9851H100.395Z" fill="#00063C"/>
<path d="M68.9782 66.9923L49.3999 69.1818L52.5229 86.002L71.4902 85.0091L68.9782 66.9923Z" fill="#FC3133"/>
<path d="M71.49 85.0091L52.5312 86.002L49.4082 69.1733H49.4252L51.3007 79.2892L70.2765 78.2878L68.698 67.0263L68.978 66.9923L71.49 85.0091Z" fill="#E51B3A"/>
<path d="M52.5229 86.6385C52.3743 86.6391 52.2301 86.5877 52.1154 86.4931C52.0007 86.3986 51.9227 86.2669 51.8949 86.1208L48.7804 69.2921C48.7643 69.2069 48.7657 69.1192 48.7847 69.0346C48.8037 68.95 48.8397 68.8701 48.8907 68.7999C48.9416 68.7282 49.0074 68.6683 49.0836 68.6244C49.1597 68.5805 49.2445 68.5535 49.332 68.5453L68.9103 66.3558C69.075 66.3386 69.24 66.3854 69.3711 66.4865C69.5022 66.5876 69.5895 66.7353 69.6147 66.8989L72.1606 84.9157C72.1788 85.0923 72.127 85.269 72.0164 85.4079C71.96 85.4758 71.8902 85.5312 71.8113 85.5707C71.7324 85.6101 71.6462 85.6327 71.5581 85.6371L52.5908 86.6385H52.5229ZM50.1552 69.7334L53.0491 85.34L70.7689 84.4065L68.4351 67.6882L50.1552 69.7334Z" fill="#00063C"/>
<path d="M125.617 86.0021H53.2952V91.8408H125.617V86.0021Z" fill="#BD8D5A"/>
<path d="M125.6 92.5027H53.2952C53.1264 92.5027 52.9645 92.4356 52.8451 92.3162C52.7257 92.1969 52.6587 92.035 52.6587 91.8662V86.0275C52.6587 85.8587 52.7257 85.6968 52.8451 85.5774C52.9645 85.458 53.1264 85.391 53.2952 85.391H125.6C125.768 85.3932 125.929 85.461 126.048 85.5798C126.167 85.6987 126.234 85.8594 126.237 86.0275V91.8662C126.234 92.0343 126.167 92.1949 126.048 92.3138C125.929 92.4327 125.768 92.5005 125.6 92.5027ZM53.9147 91.2297H124.964V86.664H53.9317L53.9147 91.2297Z" fill="#00063C"/>
<path d="M95.4764 36.4715C99.9547 35.7446 102.996 31.5249 102.269 27.0465C101.542 22.5681 97.3223 19.527 92.8439 20.2539C88.3655 20.9809 85.3244 25.2006 86.0513 29.679C86.7783 34.1573 90.998 37.1985 95.4764 36.4715Z" fill="#39476B"/>
<path d="M102.373 28.3788C102.364 30.1746 101.767 31.9181 100.673 33.3424C99.5789 34.7667 98.0484 35.7932 96.3155 36.2649C94.5827 36.7366 92.7431 36.6275 91.0782 35.9543C89.4132 35.281 88.0148 34.0807 87.0969 32.5372C87.446 32.5812 87.7974 32.6038 88.1493 32.605C89.5969 32.6047 91.0188 32.2218 92.2709 31.4951C93.523 30.7684 94.5608 29.7238 95.2792 28.4669C95.9977 27.2101 96.3712 25.7857 96.362 24.3381C96.3529 22.8904 95.9613 21.4709 95.227 20.2233C97.2039 20.4864 99.018 21.4583 100.332 22.9583C101.647 24.4583 102.372 26.3845 102.373 28.3788Z" fill="#2F3A5A"/>
<path d="M94.1999 37.2302C92.4472 37.2318 90.7334 36.7136 89.2753 35.7411C87.8172 34.7686 86.6803 33.3855 86.0084 31.7667C85.3365 30.1479 85.1599 28.3662 85.5008 26.647C85.8417 24.9278 86.6848 23.3483 87.9236 22.1084C89.1623 20.8685 90.741 20.0238 92.4598 19.6812C94.1787 19.3387 95.9606 19.5137 97.58 20.184C99.1994 20.8543 100.584 21.9899 101.558 23.4471C102.531 24.9043 103.051 26.6176 103.051 28.3703C103.049 30.7179 102.116 32.9689 100.457 34.6297C98.7976 36.2905 96.5476 37.2257 94.1999 37.2302ZM94.1999 20.7918C92.6987 20.7902 91.2306 21.2339 89.9817 22.0669C88.7327 22.8999 87.759 24.0848 87.1837 25.4714C86.6084 26.8581 86.4574 28.3843 86.7499 29.8568C87.0424 31.3293 87.7651 32.6819 88.8267 33.7435C89.8882 34.8051 91.2409 35.5278 92.7134 35.8203C94.1859 36.1128 95.7121 35.9618 97.0987 35.3865C98.4854 34.8112 99.6703 33.8375 100.503 32.5885C101.336 31.3396 101.78 29.8715 101.778 28.3703C101.774 26.3617 100.974 24.4367 99.5537 23.0165C98.1335 21.5962 96.2085 20.7963 94.1999 20.7918Z" fill="#00063C"/>
<path d="M94.6128 31.1522C96.1534 30.9021 97.1996 29.4505 96.9495 27.9099C96.6994 26.3693 95.2478 25.3231 93.7072 25.5732C92.1666 25.8233 91.1204 27.2749 91.3705 28.8155C91.6206 30.3561 93.0722 31.4023 94.6128 31.1522Z" fill="#2F3A5A"/>
<path d="M94.2001 31.8328C93.5125 31.8462 92.8365 31.6547 92.2583 31.2825C91.68 30.9103 91.2257 30.3744 90.9531 29.743C90.6806 29.1116 90.6023 28.4134 90.7281 27.7374C90.854 27.0613 91.1783 26.438 91.6597 25.9469C92.1411 25.4559 92.7579 25.1193 93.4313 24.9801C94.1047 24.8409 94.8044 24.9054 95.441 25.1654C96.0777 25.4253 96.6225 25.869 97.0061 26.4397C97.3896 27.0105 97.5945 27.6826 97.5947 28.3703C97.5948 29.2769 97.2394 30.1475 96.6046 30.7949C95.9699 31.4423 95.1065 31.815 94.2001 31.8328ZM94.2001 26.1808C93.767 26.1808 93.3437 26.3092 92.9836 26.5498C92.6236 26.7903 92.3429 27.1323 92.1772 27.5324C92.0115 27.9325 91.9681 28.3727 92.0526 28.7974C92.1371 29.2221 92.3456 29.6123 92.6518 29.9185C92.958 30.2247 93.3482 30.4332 93.7729 30.5177C94.1976 30.6022 94.6379 30.5588 95.0379 30.3931C95.438 30.2274 95.78 29.9468 96.0206 29.5867C96.2612 29.2266 96.3896 28.8033 96.3896 28.3703C96.3896 27.7896 96.1589 27.2327 95.7483 26.822C95.3377 26.4114 94.7808 26.1808 94.2001 26.1808Z" fill="#00063C"/>
<path d="M127.009 122.418H106.641C106.416 122.418 106.2 122.328 106.041 122.169C105.882 122.01 105.792 121.794 105.792 121.569C105.792 121.344 105.882 121.128 106.041 120.969C106.2 120.81 106.416 120.72 106.641 120.72H127.009C127.234 120.72 127.45 120.81 127.609 120.969C127.768 121.128 127.857 121.344 127.857 121.569C127.857 121.794 127.768 122.01 127.609 122.169C127.45 122.328 127.234 122.418 127.009 122.418Z" fill="#00063C"/>
<path d="M102.373 122.418H26.5967C26.3716 122.418 26.1558 122.328 25.9966 122.169C25.8375 122.01 25.748 121.794 25.748 121.569C25.748 121.344 25.8375 121.128 25.9966 120.969C26.1558 120.81 26.3716 120.72 26.5967 120.72H102.373C102.598 120.72 102.813 120.81 102.973 120.969C103.132 121.128 103.221 121.344 103.221 121.569C103.221 121.794 103.132 122.01 102.973 122.169C102.813 122.328 102.598 122.418 102.373 122.418Z" fill="#00063C"/>
</svg>
