<svg width="22" height="20" viewBox="0 0 22 20" fill="none" xmlns="http://www.w3.org/2000/svg">
<path d="M16.25 0.25H5.41667C2.42667 0.25 0 2.67667 0 5.66667V6.75V14.3333C0 17.3233 2.42667 19.75 5.41667 19.75H15.1667H16.25C19.24 19.75 21.6667 17.3233 21.6667 14.3333V5.66667C21.6667 2.67667 19.24 0.25 16.25 0.25ZM9.1975 15.2108C9.165 15.2108 9.1325 15.2217 9.08917 15.2217C8.68833 15.2217 8.34167 14.9183 8.2875 14.5175C8.14667 13.4125 7.345 12.6108 6.24 12.47C5.79583 12.4158 5.48167 12.0042 5.53583 11.56C5.59 11.1158 6.00167 10.8017 6.44583 10.8558C8.27667 11.0942 9.66333 12.4808 9.90167 14.3117C9.95583 14.745 9.64167 15.1567 9.1975 15.2108ZM12.5017 14.6583C12.4692 14.6583 12.4367 14.6692 12.3933 14.6692C11.9925 14.6692 11.6458 14.3658 11.5917 13.965C11.2558 11.3867 9.38167 9.50167 6.7925 9.16583C6.34833 9.11167 6.03417 8.7 6.08833 8.25583C6.1425 7.81167 6.55417 7.4975 6.99833 7.55167C10.335 7.985 12.7725 10.4117 13.2058 13.7592C13.26 14.1925 12.9458 14.5933 12.5017 14.6583ZM15.4267 13.7158C15.3942 13.7158 15.3617 13.7267 15.3183 13.7267C14.9175 13.7267 14.5708 13.4233 14.5167 13.0225C14.0508 9.36083 11.3858 6.69583 7.72417 6.23C7.28 6.17583 6.96583 5.76417 7.02 5.32C7.07417 4.87583 7.48583 4.56167 7.93 4.61583C12.3392 5.17917 15.5567 8.39667 16.1308 12.8167C16.185 13.2608 15.8708 13.6617 15.4267 13.7158Z" fill="#5E54DD"/>
</svg>
