<svg width="352" height="323" viewBox="0 0 352 323" fill="none" xmlns="http://www.w3.org/2000/svg">
<path d="M335.126 1.05115L6.62582 134.051C-5.37418 141.651 1.62582 149.884 6.62582 153.051L87.1258 182.551C153.126 139.218 286.507 49.8509 295.626 46.0511C301.626 43.5511 304.459 48.2178 303.626 52.5511L145.126 215.051L270.626 314.051C289.026 329.651 294.959 320.551 295.626 314.051C313.459 222.384 349.626 34.3512 351.626 15.5512C353.168 1.05117 341.459 -1.94885 335.126 1.05115Z" fill="url(#paint0_linear_24_1288)"/>
<path d="M91.626 190.051L272.126 72.0511L133.626 212.051L127.626 293.051L91.626 190.051Z" fill="url(#paint1_linear_24_1288)"/>
<path d="M140.126 223.051L133.626 305.051L180.626 254.551L140.126 223.051Z" fill="url(#paint2_linear_24_1288)"/>
<defs>
<linearGradient id="paint0_linear_24_1288" x1="345" y1="-6.99998" x2="95" y2="253" gradientUnits="userSpaceOnUse">
<stop stop-color="#555EEB"/>
<stop offset="1" stop-color="#B953FE"/>
</linearGradient>
<linearGradient id="paint1_linear_24_1288" x1="268.655" y1="67.2567" x2="102.494" y2="196.72" gradientUnits="userSpaceOnUse">
<stop stop-color="#555EEB"/>
<stop offset="1" stop-color="#B953FE"/>
</linearGradient>
<linearGradient id="paint2_linear_24_1288" x1="179.722" y1="221.272" x2="126.194" y2="250.541" gradientUnits="userSpaceOnUse">
<stop stop-color="#555EEB"/>
<stop offset="1" stop-color="#B953FE"/>
</linearGradient>
</defs>
</svg>
