<svg width="25" height="24" viewBox="0 0 25 24" fill="none" xmlns="http://www.w3.org/2000/svg">
<path d="M20.8767 7.82L13.1767 12.28C12.8667 12.46 12.4767 12.46 12.1567 12.28L4.45672 7.82C3.90672 7.5 3.76672 6.75 4.18672 6.28C4.47672 5.95 4.80672 5.68 5.15672 5.49L10.5767 2.49C11.7367 1.84 13.6167 1.84 14.7767 2.49L20.1967 5.49C20.5467 5.68 20.8767 5.96 21.1667 6.28C21.5667 6.75 21.4267 7.5 20.8767 7.82Z" fill="#ADAFBB"/>
<path d="M12.0967 14.14V20.96C12.0967 21.72 11.3267 22.22 10.6467 21.89C8.58673 20.88 5.11673 18.99 5.11673 18.99C3.89673 18.3 2.89673 16.56 2.89673 15.13V9.97C2.89673 9.18 3.72673 8.68 4.40673 9.07L11.5967 13.24C11.8967 13.43 12.0967 13.77 12.0967 14.14Z" fill="#ADAFBB"/>
<path d="M13.2368 14.14V20.96C13.2368 21.72 14.0068 22.22 14.6868 21.89C16.7468 20.88 20.2168 18.99 20.2168 18.99C21.4368 18.3 22.4368 16.56 22.4368 15.13V9.97C22.4368 9.18 21.6068 8.68 20.9268 9.07L13.7368 13.24C13.4368 13.43 13.2368 13.77 13.2368 14.14Z" fill="#ADAFBB"/>
</svg>
