<svg width="74" height="84" viewBox="0 0 74 84" fill="none" xmlns="http://www.w3.org/2000/svg">
<path d="M25.9 67.5609L31.0568 62.4389L21.1395 53.7288L12.5023 62.306C10.1799 64.6078 9.92224 68.2664 11.8928 70.875L19.8214 81.375C21.1263 83.0977 23.1084 84 25.1071 84C26.4855 84 27.8788 83.572 29.0664 82.6875C31.9884 80.5137 32.5765 76.399 30.3879 73.5L25.9 67.5609ZM37 26.1023C44.3091 26.1023 50.2126 20.2371 50.2126 13.125C50.2126 6.01289 44.3174 0 37 0C29.6826 0 23.7857 5.86523 23.7857 12.9773C23.7857 20.0895 29.6991 26.1023 37 26.1023ZM67.5084 23.7891C65.4024 20.8162 61.2928 20.1173 58.2981 22.1895L51.5869 26.8652C42.8935 32.9355 31.0882 32.9355 22.3833 26.8652L15.6721 22.1895C12.6923 20.1141 8.58429 20.8359 6.47827 23.7891C4.39206 26.7586 5.11554 30.8438 8.08876 32.9438L14.8 37.6195C16.7986 38.9977 18.9459 40.0805 21.1428 41.0484V47.25H52.8571L52.8571 41.0632C55.0458 40.1006 57.1881 39.0157 59.1901 37.6113L65.9013 32.9355C68.8959 30.8438 69.6062 26.7586 67.5084 23.7891ZM52.8571 53.7141L42.9398 62.4241L48.0967 67.5462L43.6071 73.5C41.4185 76.399 42.0067 80.5137 44.9285 82.6875C46.1178 83.5734 47.5053 84 48.7442 84C50.7527 84 52.7398 83.095 54.0348 81.375L61.9634 70.875C63.9356 68.2631 63.678 64.6078 61.3491 62.2978L52.8571 53.7141Z" fill="#5E54DD"/>
</svg>
