<svg width="15" height="18" viewBox="0 0 15 18" fill="none" xmlns="http://www.w3.org/2000/svg">
<path d="M12.518 2.11275C9.65433 -0.704168 5.01142 -0.704168 2.14775 2.11275C-0.715917 4.93058 -0.715917 9.49833 2.14775 12.3152L7.33242 17.4165L12.518 12.3152C15.3817 9.49833 15.3817 4.93058 12.518 2.11275ZM7.33242 9.62483C6.72008 9.62483 6.14533 9.3865 5.71175 8.95383C4.818 8.06008 4.818 6.60625 5.71175 5.7125C6.14442 5.27983 6.72008 5.0415 7.33242 5.0415C7.94475 5.0415 8.52042 5.27983 8.95308 5.7125C9.84683 6.60625 9.84683 8.061 8.95308 8.95383C8.52042 9.3865 7.94475 9.62483 7.33242 9.62483Z" fill="#5E54DD"/>
</svg>
