<svg width="16" height="20" viewBox="0 0 16 20" fill="none" xmlns="http://www.w3.org/2000/svg">
<path d="M11.75 9.99998V4.58331C11.75 2.51225 10.071 0.833313 7.99996 0.833313C5.92888 0.833313 4.24996 2.51225 4.24996 4.58331V9.99998C4.24996 12.0711 5.92888 13.75 7.99996 13.75C10.071 13.75 11.75 12.0711 11.75 9.99998Z" fill="#5E54DD"/>
<path d="M1.74996 8.74998C2.2102 8.74998 2.58329 9.12307 2.58329 9.58331C2.58329 12.5749 5.00841 15 7.99996 15C10.9915 15 13.4166 12.5749 13.4166 9.58331C13.4166 9.12307 13.7897 8.74998 14.25 8.74998C14.7102 8.74998 15.0833 9.12307 15.0833 9.58331C15.0833 13.2134 12.3526 16.2057 8.83329 16.6181V18.3333C8.83329 18.7935 8.4602 19.1666 7.99996 19.1666C7.53972 19.1666 7.16663 18.7935 7.16663 18.3333V16.6181C3.64731 16.2057 0.916626 13.2134 0.916626 9.58331C0.916626 9.12307 1.28972 8.74998 1.74996 8.74998Z" fill="#5E54DD"/>
</svg>
