<svg width="86" height="86" viewBox="0 0 86 86" fill="none" xmlns="http://www.w3.org/2000/svg">
<g clip-path="url(#clip0_24_1362)">
<path d="M51.5496 20.593C51.5664 20.3578 51.6168 20.1227 51.6168 19.8875C51.6168 15.7723 48.2742 12.4297 44.159 12.4297C40.0437 12.4297 36.7012 15.7723 36.7012 19.8875C36.7012 20.1395 36.7516 20.3578 36.7684 20.593H51.5496Z" fill="#5E54DD"/>
<path d="M76.8625 -0.134399H65.9613C64.6343 -0.134399 63.425 0.655054 62.8875 1.88123L53.7668 22.8437H8.80152C6.11402 22.8437 4.77027 26.0855 6.66831 28.0004L35.3742 56.7062V80.9273H23.8179C22.3902 80.9273 21.2144 82.1031 21.2144 83.5308C21.2144 84.9586 22.3902 86.1343 23.8179 86.1343H52.0367C53.4644 86.1343 54.6402 84.9586 54.6402 83.5308C54.6402 82.1031 53.4644 80.9273 52.0367 80.9273H40.4804V56.6894L69.2031 27.9836C71.1011 26.0855 69.7574 22.8269 67.0699 22.8269H61.0734L68.1617 6.56755H76.8625C78.7101 6.56755 80.2218 5.07263 80.2218 3.20818C80.2218 1.37732 78.7269 -0.134399 76.8625 -0.134399Z" fill="#5E54DD"/>
</g>
<defs>
<clipPath id="clip0_24_1362">
<rect width="86" height="86" fill="white"/>
</clipPath>
</defs>
</svg>
