<svg width="19" height="19" viewBox="0 0 19 19" fill="none" xmlns="http://www.w3.org/2000/svg">
<path fill-rule="evenodd" clip-rule="evenodd" d="M6.41675 2.021C6.55085 1.75279 6.82498 1.58337 7.12484 1.58337H11.8748C12.1747 1.58337 12.4488 1.75279 12.5829 2.021L13.5516 3.95837H16.229C17.3221 3.95837 18.2082 4.84448 18.2082 5.93754V15.4375C18.2082 16.5306 17.3221 17.4167 16.229 17.4167H2.77067C1.67761 17.4167 0.791504 16.5306 0.791504 15.4375V5.93754C0.791504 4.84448 1.67761 3.95837 2.77067 3.95837H5.44806L6.41675 2.021ZM7.21828 3.95837H11.7814L11.3856 3.16671H7.61412L7.21828 3.95837ZM2.77067 5.54171C2.55206 5.54171 2.37484 5.71893 2.37484 5.93754V15.4375C2.37484 15.6562 2.55206 15.8334 2.77067 15.8334H16.229C16.4476 15.8334 16.6248 15.6562 16.6248 15.4375V5.93754C16.6248 5.71893 16.4476 5.54171 16.229 5.54171H2.77067ZM5.5415 10.6875C5.5415 8.5014 7.3137 6.72921 9.49984 6.72921C11.686 6.72921 13.4582 8.5014 13.4582 10.6875C13.4582 12.8737 11.686 14.6459 9.49984 14.6459C7.3137 14.6459 5.5415 12.8737 5.5415 10.6875ZM9.49984 8.31254C8.18815 8.31254 7.12484 9.37586 7.12484 10.6875C7.12484 11.9992 8.18815 13.0625 9.49984 13.0625C10.8115 13.0625 11.8748 11.9992 11.8748 10.6875C11.8748 9.37586 10.8115 8.31254 9.49984 8.31254Z" fill="#5E54DD"/>
</svg>
