<svg width="64" height="64" viewBox="0 0 64 64" fill="none" xmlns="http://www.w3.org/2000/svg">
<path d="M17.6542 15.2438C17.5512 15.1546 17.4311 15.0874 17.3013 15.0463C17.1714 15.0052 17.0345 14.9911 16.899 15.0048C16.7635 15.0185 16.6322 15.0598 16.5132 15.1261C16.3942 15.1923 16.29 15.2822 16.2069 15.3902L11.2069 21.8902C11.0542 22.0886 10.9816 22.3371 11.0033 22.5866C11.025 22.836 11.1395 23.0683 11.3241 23.2374L17.3241 28.7374C17.5185 28.9156 17.7755 29.0098 18.0391 28.9995C18.3026 28.9891 18.5515 28.8751 18.7313 28.6822L24.4813 22.5222C24.5731 22.4239 24.6442 22.308 24.6901 22.1816C24.7361 22.0552 24.7561 21.9208 24.7489 21.7865C24.7417 21.6522 24.7075 21.5207 24.6482 21.3999C24.589 21.2792 24.506 21.1716 24.4042 21.0837L17.6542 15.2438Z" fill="#F37121"/>
<path d="M52.7929 21.89L47.7929 15.39C47.7099 15.2821 47.6057 15.1922 47.4867 15.1259C47.3677 15.0597 47.2364 15.0184 47.1009 15.0047C46.9653 14.991 46.8284 15.0051 46.6986 15.0462C46.5687 15.0873 46.4486 15.1545 46.3456 15.2436L39.5956 21.0836C39.4938 21.1716 39.4108 21.2791 39.3516 21.3999C39.2924 21.5207 39.2581 21.6522 39.2509 21.7865C39.2437 21.9208 39.2637 22.0552 39.3097 22.1816C39.3557 22.308 39.4267 22.4238 39.5185 22.5221L45.2685 28.6821C45.4484 28.8751 45.6972 28.9891 45.9608 28.9995C46.2243 29.0098 46.4813 28.9156 46.6757 28.7373L52.6757 23.2373C52.8604 23.0682 52.9749 22.836 52.9966 22.5865C53.0183 22.337 52.9456 22.0885 52.7929 21.89Z" fill="#F37121"/>
<path d="M58.7311 19.3184C58.6376 19.2179 58.5244 19.1377 58.3986 19.0829C58.2727 19.0281 58.1369 18.9999 57.9997 19C57.7234 19.0005 57.45 18.943 57.1974 18.8312C56.9447 18.7194 56.7183 18.5559 56.5329 18.3511C56.4444 18.253 56.3375 18.1733 56.2181 18.1167C56.0988 18.06 55.9695 18.0276 55.8376 18.0211C55.5718 18.0134 55.3131 18.1071 55.114 18.2833L46.0539 26.5933L34.7701 14.5073C34.6805 14.411 34.5726 14.3334 34.4527 14.279C34.3329 14.2246 34.2035 14.1945 34.0719 14.1904C33.9401 14.185 33.8086 14.2063 33.6853 14.2531C33.5619 14.2998 33.4493 14.371 33.3541 14.4624C32.9824 14.7972 32.4999 14.9824 31.9996 14.9824C31.4994 14.9824 31.0169 14.7972 30.6451 14.4624C30.5494 14.372 30.4367 14.3015 30.3136 14.2548C30.1905 14.2081 30.0594 14.1862 29.9278 14.1904C29.7962 14.1946 29.6667 14.2247 29.5468 14.2791C29.4269 14.3335 29.319 14.411 29.2291 14.5073L17.9449 26.5933L8.88635 18.2833C8.78897 18.1939 8.67483 18.1246 8.55053 18.0796C8.42623 18.0346 8.29423 18.0146 8.16218 18.021C8.03012 18.0273 7.90063 18.0597 7.78119 18.1164C7.66175 18.1731 7.55474 18.2529 7.46635 18.3512C7.28088 18.5559 7.0545 18.7195 6.80185 18.8312C6.5492 18.943 6.27591 19.0005 5.99965 19C5.86235 19 5.72653 19.0284 5.60065 19.0832C5.47478 19.138 5.36154 19.2182 5.268 19.3187C5.17446 19.4192 5.10261 19.5379 5.05694 19.6674C5.01127 19.7968 4.99276 19.9343 5.00255 20.0713L7.00255 48.0713C7.02057 48.3235 7.13344 48.5594 7.31844 48.7317C7.50344 48.904 7.74683 48.9999 7.99965 49H55.9997C56.2525 48.9999 56.4959 48.904 56.6809 48.7317C56.8659 48.5594 56.9787 48.3235 56.9968 48.0713L58.9968 20.0713C59.0068 19.9343 58.9883 19.7966 58.9426 19.6671C58.8969 19.5375 58.8249 19.4188 58.7311 19.3184Z" fill="#FFBD69"/>
<path d="M38.9259 34.8276C38.8438 34.5758 38.6959 34.3504 38.4977 34.1748C38.2994 33.9992 38.0579 33.8797 37.798 33.8286L34.7901 33.24L33.3001 30.562C33.1716 30.3298 32.9833 30.1363 32.7547 30.0015C32.5262 29.8668 32.2657 29.7956 32.0004 29.7955C31.735 29.7954 31.4745 29.8664 31.2459 30.001C31.0172 30.1356 30.8288 30.3289 30.7001 30.561L29.2101 33.24L26.2032 33.8284C25.943 33.8793 25.7011 33.9988 25.5025 34.1746C25.304 34.3504 25.1561 34.576 25.074 34.8282C24.992 35.0803 24.9788 35.3498 25.0358 35.6088C25.0929 35.8677 25.2181 36.1067 25.3985 36.3011L27.4864 38.5457L27.1164 41.5892C27.0846 41.8524 27.1238 42.1194 27.2298 42.3625C27.3359 42.6056 27.5049 42.8159 27.7195 42.9717C27.9341 43.1275 28.1865 43.2231 28.4504 43.2486C28.7144 43.2742 28.9804 43.2287 29.2209 43.117L32.0001 41.8252L34.7794 43.1172C35.0199 43.229 35.286 43.2744 35.55 43.2489C35.814 43.2233 36.0664 43.1276 36.281 42.9718C36.4956 42.8159 36.6647 42.6055 36.7707 42.3624C36.8767 42.1192 36.9158 41.8522 36.8839 41.5889L36.5139 38.5459L38.6017 36.3C38.782 36.1057 38.9071 35.8667 38.9641 35.6079C39.0211 35.349 39.0079 35.0796 38.9259 34.8276Z" fill="#F37121"/>
<path d="M5.99988 13C5.33419 12.9987 4.6787 13.1636 4.09284 13.4797C3.50698 13.7958 3.00928 14.2531 2.64484 14.8102C2.2804 15.3673 2.06076 16.0065 2.00583 16.6699C1.9509 17.3333 2.06241 18 2.33025 18.6094C2.5981 19.2189 3.01381 19.7518 3.5397 20.16C4.06559 20.5681 4.68503 20.8386 5.34187 20.9468C5.99871 21.055 6.67217 20.9976 7.30121 20.7797C7.93025 20.5619 8.49497 20.1905 8.94418 19.6992C9.62429 18.9651 10.0014 18.0008 9.99988 17C9.99877 15.9395 9.57699 14.9227 8.82708 14.1728C8.07718 13.4229 7.06041 13.0011 5.99988 13Z" fill="#D9455F"/>
<path d="M32.0001 9.00001C31.1973 8.99857 30.4128 9.23913 29.7488 9.6903C29.0848 10.1415 28.5722 10.7823 28.278 11.5292C27.9837 12.276 27.9214 13.0943 28.0991 13.8771C28.2769 14.6599 28.6865 15.371 29.2745 15.9175C29.844 16.4477 30.5557 16.8003 31.3226 16.9321C32.0894 17.0639 32.8781 16.9691 33.5919 16.6595C34.3057 16.3498 34.9138 15.8387 35.3415 15.1887C35.7692 14.5387 35.9981 13.7781 36.0001 13C35.9989 11.9395 35.5772 10.9227 34.8273 10.1728C34.0774 9.4229 33.0606 9.00112 32.0001 9.00001Z" fill="#D9455F"/>
<path d="M58 13C56.9395 13.0011 55.9227 13.4229 55.1728 14.1728C54.4229 14.9227 54.0011 15.9395 54 17C54.0039 18.0597 54.4266 19.0748 55.1759 19.8241C55.9252 20.5734 56.9403 20.9961 58 21C59.0609 21 60.0783 20.5786 60.8284 19.8284C61.5786 19.0783 62 18.0609 62 17C62 15.9391 61.5786 14.9217 60.8284 14.1716C60.0783 13.4214 59.0609 13 58 13Z" fill="#D9455F"/>
<path d="M16 42C18.2091 42 20 40.2091 20 38C20 35.7909 18.2091 34 16 34C13.7909 34 12 35.7909 12 38C12 40.2091 13.7909 42 16 42Z" fill="#F37121"/>
<path d="M48 42C50.2091 42 52 40.2091 52 38C52 35.7909 50.2091 34 48 34C45.7909 34 44 35.7909 44 38C44 40.2091 45.7909 42 48 42Z" fill="#F37121"/>
<path d="M58.948 53.6836L56.948 47.6836C56.8818 47.4845 56.7546 47.3113 56.5844 47.1886C56.4142 47.0659 56.2096 46.9999 55.9998 47H7.99981C7.78998 46.9999 7.58546 47.0659 7.41526 47.1886C7.24506 47.3113 7.11782 47.4845 7.05161 47.6836L5.05161 53.6836C5.00134 53.8339 4.98753 53.994 5.01133 54.1507C5.03513 54.3073 5.09584 54.4561 5.18847 54.5847C5.28109 54.7133 5.40297 54.818 5.54404 54.8902C5.68511 54.9624 5.84133 55.0001 5.99981 55H57.9998C58.1583 55.0001 58.3145 54.9624 58.4556 54.8902C58.5966 54.818 58.7185 54.7133 58.8111 54.5847C58.9038 54.4561 58.9645 54.3073 58.9883 54.1507C59.0121 53.994 58.9983 53.8339 58.948 53.6836Z" fill="#5C2A9D"/>
</svg>
