<svg width="22" height="22" viewBox="0 0 22 22" fill="none" xmlns="http://www.w3.org/2000/svg">
<path d="M19.3316 1.71705L17.2477 3.80232C15.5762 2.28552 13.3805 1.37502 11 1.37502C6.93945 1.37502 3.37691 3.96775 2.13039 7.82892C1.89673 8.55123 2.29354 9.32767 3.01598 9.5597C3.74516 9.79603 4.51387 9.39591 4.74762 8.67498C5.62461 5.95119 8.13828 4.12502 11 4.12502C12.6311 4.12502 14.1367 4.73431 15.3055 5.74924L13.3676 7.64845C12.6801 8.37033 13.1828 9.59923 14.1969 9.62502H20.509C20.9559 9.61213 21.3125 9.25119 21.3125 8.80431V2.53689C21.3125 1.50349 20.0621 0.98615 19.3316 1.71705ZM18.9836 12.4438C18.2557 12.2101 17.4848 12.6076 17.252 13.3285C16.3754 16.0488 13.8617 17.875 11 17.875C9.36891 17.875 7.86328 17.2657 6.69453 16.2508L8.59375 14.3516C9.31992 13.6297 8.81719 12.4008 7.80313 12.375H1.4893C1.045 12.3879 0.6875 12.7488 0.6875 13.1957V19.4649C0.6875 20.4978 1.9366 21.0152 2.66707 20.2843L4.75105 18.199C6.42383 19.7141 8.61953 20.625 10.9613 20.625C15.0197 20.625 18.584 18.0323 19.8301 14.1711C20.1051 13.4492 19.7055 12.6371 18.9836 12.4438Z" fill="#23BEE0"/>
</svg>
