<svg width="100" height="100" viewBox="0 0 100 100" fill="none" xmlns="http://www.w3.org/2000/svg">
<path d="M97.9167 12.5C70.8089 12.5 56.4763 31.4466 52.5533 37.5623C52.2906 37.502 52.0159 37.487 51.7415 37.5285C51.18 37.6221 50.6836 37.9395 50.3621 38.4094C48.6125 40.977 46.9157 44.043 45.1213 47.288C43.9982 49.3144 42.8589 51.3753 41.6667 53.3875V50C41.6667 45.4041 37.9272 41.6667 33.3333 41.6667H8.33333C3.73942 41.6667 0 45.4041 0 50V66.4632C0 78.0477 9.257 87.4837 20.6299 87.5C20.6624 87.5 20.695 87.5 20.7235 87.5C36.6984 87.5 41.5202 81.2785 45.3979 76.2756C50.7731 69.338 54.5858 61.7981 58.2764 54.5064C59.5947 51.8982 60.8968 49.3225 62.2477 46.8221C62.6795 46.0264 62.5137 45.078 61.9161 44.4349C65.4544 38.8115 79.3772 18.75 97.9167 18.75C99.0682 18.75 100 17.8182 100 16.6667V14.5833C100 13.4318 99.0682 12.5 97.9167 12.5Z" fill="#303C42"/>
<path d="M54.5574 52.6245C50.9563 59.7412 47.2332 67.1 42.1021 73.7243C38.6109 78.2287 34.6599 83.3333 20.7236 83.3333C20.6951 83.3333 20.6666 83.3333 20.6381 83.3333C11.5561 83.3211 4.16675 75.7527 4.16675 66.4632V50C4.16675 47.703 6.03442 45.8333 8.33341 45.8333H33.3334C35.6324 45.8333 37.5001 47.703 37.5001 50V60.4166C37.5001 61.3199 38.0819 62.1195 38.9405 62.3982C39.795 62.681 40.739 62.3738 41.268 61.6414C44.0797 57.7718 46.4641 53.4688 48.7672 49.3062C50.0937 46.9075 51.3632 44.6085 52.6165 42.5883L57.7393 46.4253C56.6651 48.4578 55.6153 50.531 54.5574 52.6245Z" fill="#5E54DD"/>
<path opacity="0.1" d="M55.1514 46.3745C51.5504 53.4912 47.8272 60.85 42.6962 67.4743C39.205 71.9787 35.254 77.0833 21.3176 77.0833C21.2891 77.0833 21.2607 77.0833 21.2322 77.0833C12.1501 77.0711 4.76082 69.5027 4.76082 60.2132V47.9853C4.41648 48.5916 4.16675 49.2546 4.16675 50V66.4632C4.16675 75.7527 11.5561 83.3211 20.6381 83.3333C20.6666 83.3333 20.6951 83.3333 20.7236 83.3333C34.6599 83.3333 38.6109 78.2287 42.1021 73.7243C47.2332 67.1 50.9563 59.7412 54.5574 52.6245C55.6153 50.531 56.6651 48.4578 57.7393 46.4253L55.8513 45.0111C55.6191 45.4694 55.3841 45.9142 55.1514 46.3745Z" fill="black"/>
<path d="M58.5959 41.8635L55.9839 39.905C58.4469 36.0331 66.0567 25.6274 79.6142 20.1477C68.8618 26.7568 61.3977 37.4242 58.5959 41.8635Z" fill="#7269E1"/>
<path d="M31.2501 20.8333H10.4167C6.9703 20.8333 4.16675 23.6369 4.16675 27.0833C4.16675 30.5298 6.9703 33.3333 10.4167 33.3333H16.6667C17.8142 33.3333 18.7501 34.2672 18.7501 35.4167C18.7501 36.5682 19.6819 37.5 20.8334 37.5C21.9849 37.5 22.9167 36.5682 22.9167 35.4167C22.9167 31.9702 20.1132 29.1667 16.6667 29.1667H10.4167C9.26929 29.1667 8.33342 28.2328 8.33342 27.0833C8.33342 25.9338 9.26929 25 10.4167 25H31.2501C34.6965 25 37.5001 22.1965 37.5001 18.75C37.5001 15.3035 34.6965 12.5 31.2501 12.5H6.25008C5.09855 12.5 4.16675 13.4318 4.16675 14.5833C4.16675 15.7349 5.09855 16.6667 6.25008 16.6667H31.2501C32.3975 16.6667 33.3334 17.6005 33.3334 18.75C33.3334 19.8995 32.3975 20.8333 31.2501 20.8333Z" fill="#989DA0"/>
<path d="M97.9167 12.5C70.8089 12.5 56.4763 31.4466 52.5533 37.5623C52.2906 37.502 52.0159 37.487 51.7415 37.5285C51.18 37.6221 50.6836 37.9395 50.3621 38.4094C48.6125 40.977 46.9157 44.043 45.1213 47.288C43.9982 49.3144 42.8589 51.3753 41.6667 53.3875V50C41.6667 45.4041 37.9272 41.6667 33.3333 41.6667H8.33333C3.73942 41.6667 0 45.4041 0 50V66.4632C0 78.0477 9.257 87.4837 20.6299 87.5H20.7235C36.6984 87.5 41.5202 81.2785 45.3979 76.2756C50.7731 69.338 54.5858 61.7981 58.2764 54.5064C59.5947 51.8982 60.8968 49.3225 62.2477 46.8221C62.6795 46.0264 62.5137 45.078 61.9161 44.4349C65.4544 38.8115 79.3772 18.75 97.9167 18.75C99.0682 18.75 100 17.8182 100 16.6667V14.5833C100 13.4318 99.0682 12.5 97.9167 12.5ZM31.25 20.8333H10.4167C6.97021 20.8333 4.16667 23.6369 4.16667 27.0833C4.16667 30.5298 6.97021 33.3333 10.4167 33.3333H16.6667C17.8141 33.3333 18.75 34.2672 18.75 35.4167C18.75 36.5682 19.6818 37.5 20.8333 37.5C21.9849 37.5 22.9167 36.5682 22.9167 35.4167C22.9167 31.9702 20.1131 29.1667 16.6667 29.1667H10.4167C9.26921 29.1667 8.33333 28.2328 8.33333 27.0833C8.33333 25.9338 9.26921 25 10.4167 25H31.25C34.6964 25 37.5 22.1965 37.5 18.75C37.5 15.3035 34.6964 12.5 31.25 12.5H6.25C5.09847 12.5 4.16667 13.4318 4.16667 14.5833C4.16667 15.7349 5.09847 16.6667 6.25 16.6667H31.25C32.3975 16.6667 33.3333 17.6005 33.3333 18.75C33.3333 19.8995 32.3975 20.8333 31.25 20.8333Z" fill="url(#paint0_linear_4_1961)"/>
<defs>
<linearGradient id="paint0_linear_4_1961" x1="-0.0917117" y1="23.2517" x2="79.7784" y2="60.4957" gradientUnits="userSpaceOnUse">
<stop stop-color="white" stop-opacity="0.2"/>
<stop offset="1" stop-color="white" stop-opacity="0"/>
</linearGradient>
</defs>
</svg>
