<svg width="26" height="26" viewBox="0 0 26 26" fill="none" xmlns="http://www.w3.org/2000/svg">
<path d="M9.89312 25.1875C9.75698 25.1876 9.62248 25.1579 9.49905 25.1005C9.37562 25.0431 9.26626 24.9593 9.17866 24.8551C9.09106 24.7509 9.02734 24.6288 8.99198 24.4974C8.95662 24.3659 8.95047 24.2283 8.97398 24.0942V24.0886L10.4014 16.25H4.87491C4.72151 16.25 4.57125 16.2066 4.44151 16.1247C4.31177 16.0429 4.20784 15.926 4.14176 15.7875C4.07568 15.6491 4.05013 15.4948 4.06808 15.3424C4.08603 15.1901 4.14674 15.0459 4.24319 14.9267L15.3729 1.16798C15.4996 1.00717 15.6755 0.892275 15.8736 0.84087C16.0718 0.789465 16.2813 0.804378 16.4702 0.883329C16.6591 0.962279 16.8169 1.10092 16.9196 1.27805C17.0222 1.45519 17.064 1.66106 17.0385 1.86419C17.0385 1.87943 17.0345 1.89415 17.0319 1.90939L15.5994 9.75001H21.1249C21.2783 9.75003 21.4286 9.79347 21.5583 9.87531C21.6881 9.95716 21.792 10.0741 21.8581 10.2125C21.9242 10.3509 21.9497 10.5052 21.9317 10.6576C21.9138 10.8099 21.8531 10.9541 21.7566 11.0734L10.6254 24.832C10.5379 24.9426 10.4267 25.0319 10.2999 25.0935C10.1731 25.155 10.034 25.1872 9.89312 25.1875Z" fill="#C821F2"/>
</svg>
