<svg width="88" height="88" viewBox="0 0 88 88" fill="none" xmlns="http://www.w3.org/2000/svg">
<path d="M77.6337 46.6787H71.0513V54.208H77.6337V46.6787Z" fill="#FAAE3B"/>
<path d="M83.3694 43.2977H77.6335V54.208H83.3694V43.2977Z" fill="#F8E6C5"/>
<path d="M16.9487 30.6011H71.0511V77.5667C71.0511 79.8324 70.1511 82.0054 68.5489 83.6075C66.9468 85.2096 64.7738 86.1097 62.5081 86.1097H25.4918C23.226 86.1097 21.0531 85.2096 19.4509 83.6075C17.8488 82.0054 16.9487 79.8324 16.9487 77.5667V30.6011Z" fill="#5E54DD"/>
<path opacity="0.15" d="M62.7458 30.6011V77.5667C62.7458 79.8317 61.8465 82.004 60.2455 83.6063C58.6446 85.2085 56.473 86.1096 54.208 86.1115H62.5134C64.7794 86.111 66.9523 85.2106 68.5544 83.6081C70.1565 82.0057 71.0565 79.8326 71.0565 77.5667V30.6011H62.7458Z" fill="black"/>
<path d="M71.0511 54.208V77.5667C71.0511 79.8326 70.1511 82.0058 68.549 83.6082C66.9469 85.2106 64.774 86.1111 62.5081 86.1115H76.442C78.7079 86.1111 80.8808 85.2106 82.4829 83.6082C84.085 82.0058 84.985 79.8326 84.985 77.5667V54.208H71.0511Z" fill="#5E54DD"/>
<path opacity="0.15" d="M77.8658 54.208V77.5667C77.8658 79.8326 76.9658 82.0058 75.3637 83.6082C73.7616 85.2106 71.5887 86.1111 69.3228 86.1115H76.442C78.7079 86.1111 80.8808 85.2106 82.4829 83.6082C84.085 82.0058 84.985 79.8326 84.985 77.5667V54.208H77.8658Z" fill="black"/>
<path d="M16.9488 77.5667V54.208H3.01489V77.5667C3.01489 79.8326 3.9149 82.0058 5.51698 83.6082C7.11906 85.2106 9.29202 86.1111 11.5579 86.1115H25.4919C23.2259 86.1111 21.053 85.2106 19.4509 83.6082C17.8488 82.0058 16.9488 79.8326 16.9488 77.5667Z" fill="#5E54DD"/>
<path d="M72.834 8.88623H15.1658C10.4477 8.88623 6.6228 12.7111 6.6228 17.4293V22.0563C6.6228 26.7745 10.4477 30.5993 15.1658 30.5993H72.834C77.5522 30.5993 81.377 26.7745 81.377 22.0563V17.4293C81.377 12.7111 77.5522 8.88623 72.834 8.88623Z" fill="#FAAE3B"/>
<path d="M29.3656 8.88623H23.0366V30.5993H29.3656V8.88623Z" fill="#F8E6C5"/>
<path d="M58.6344 30.6011H64.9634V8.88795H58.6344V30.6011Z" fill="#F8E6C5"/>
<path d="M40.7141 1.88843H47.2859C49.1418 1.88843 50.9217 2.62569 52.2341 3.93802C53.5464 5.25036 54.2837 7.03027 54.2837 8.88619H33.7163C33.7163 7.03027 34.4536 5.25036 35.7659 3.93802C37.0782 2.62569 38.8581 1.88843 40.7141 1.88843Z" stroke="black" stroke-width="2" stroke-linecap="round" stroke-linejoin="round"/>
<path d="M35.2001 49.6039H28.8711V70.5884H35.2001V49.6039Z" fill="#B3814B"/>
<path d="M59.129 49.6039H52.8V70.5884H59.129V49.6039Z" fill="#B3814B"/>
<path d="M8.75952 43.296H12.5506C13.7175 43.296 14.8367 43.7596 15.6618 44.5847C16.487 45.4099 16.9506 46.5291 16.9506 47.696V54.208H4.36304V47.696C4.36304 46.5297 4.82612 45.4111 5.65052 44.586C6.47492 43.7609 7.59317 43.297 8.75952 43.296Z" fill="#F8E6C5"/>
<path d="M16.9487 30.6011V51.5451C16.9487 53.8108 17.8488 55.9838 19.4509 57.5859C21.0531 59.188 23.226 60.0881 25.4918 60.0881H28.8639V49.6038H35.1999V60.0952H52.7999V49.6038H59.1359V60.0952H62.5151C64.7809 60.0952 66.9538 59.1951 68.556 57.593C70.1581 55.9908 71.0582 53.8179 71.0582 51.5521V30.6081L16.9487 30.6011Z" fill="#5E54DD"/>
<g opacity="0.15">
<path d="M63.932 30.6011V51.5451C63.9329 53.1459 63.4837 54.7148 62.6356 56.0726C61.7876 57.4303 60.5749 58.5224 59.136 59.224V60.0952H62.5152C64.7809 60.0952 66.9539 59.1951 68.556 57.593C70.1582 55.9908 71.0582 53.8179 71.0582 51.5521V30.6081L63.932 30.6011Z" fill="black"/>
</g>
<path opacity="0.1" d="M72.834 22.2939H15.1658C13.2202 22.2933 11.333 21.6285 9.81665 20.4095C8.30026 19.1904 7.24552 17.4901 6.82696 15.59C6.69306 16.1922 6.62461 16.8071 6.6228 17.424V22.051C6.6228 24.3168 7.52287 26.4897 9.125 28.0918C10.7271 29.694 12.9001 30.594 15.1658 30.594H72.834C73.9559 30.594 75.0668 30.3731 76.1033 29.9437C77.1398 29.5144 78.0816 28.8851 78.8748 28.0918C79.6681 27.2986 80.2974 26.3568 80.7267 25.3203C81.1561 24.2838 81.377 23.1729 81.377 22.051V17.424C81.3757 16.8047 81.3073 16.1875 81.1729 15.583C80.7557 17.4844 79.7016 19.1863 78.1851 20.4067C76.6685 21.6272 74.7806 22.293 72.834 22.2939Z" fill="black"/>
<path opacity="0.1" d="M16.9488 77.5667V43.5283H9.82959V77.5667C9.82959 79.8326 10.7296 82.0058 12.3317 83.6082C13.9338 85.2106 16.1067 86.1111 18.3726 86.1115H25.4918C23.2259 86.1111 21.053 85.2106 19.4509 83.6082C17.8488 82.0058 16.9488 79.8326 16.9488 77.5667Z" fill="black"/>
<path d="M77.6337 46.6787H71.0513V54.208H77.6337V46.6787Z" stroke="black" stroke-width="2" stroke-linecap="round" stroke-linejoin="round"/>
<path d="M83.3694 43.2977H77.6335V54.208H83.3694V43.2977Z" stroke="black" stroke-width="2" stroke-linecap="round" stroke-linejoin="round"/>
<path d="M16.9487 30.6011H71.0511V77.5667C71.0511 79.8324 70.1511 82.0054 68.5489 83.6075C66.9468 85.2096 64.7738 86.1097 62.5081 86.1097H25.4918C23.226 86.1097 21.0531 85.2096 19.4509 83.6075C17.8488 82.0054 16.9487 79.8324 16.9487 77.5667V30.6011Z" stroke="black" stroke-width="2" stroke-linecap="round" stroke-linejoin="round"/>
<path d="M71.0511 54.208V77.5667C71.0511 79.8326 70.1511 82.0058 68.549 83.6082C66.9469 85.2106 64.774 86.1111 62.5081 86.1115H76.442C78.7079 86.1111 80.8808 85.2106 82.4829 83.6082C84.085 82.0058 84.985 79.8326 84.985 77.5667V54.208H71.0511Z" stroke="black" stroke-width="2" stroke-linecap="round" stroke-linejoin="round"/>
<path d="M16.9488 77.5667V54.208H3.01489V77.5667C3.01489 79.8326 3.9149 82.0058 5.51698 83.6082C7.11906 85.2106 9.29202 86.1111 11.5579 86.1115H25.4919C23.2259 86.1111 21.053 85.2106 19.4509 83.6082C17.8488 82.0058 16.9488 79.8326 16.9488 77.5667Z" stroke="black" stroke-width="2" stroke-linecap="round" stroke-linejoin="round"/>
<path d="M72.834 8.88623H15.1658C10.4477 8.88623 6.6228 12.7111 6.6228 17.4293V22.0563C6.6228 26.7745 10.4477 30.5993 15.1658 30.5993H72.834C77.5522 30.5993 81.377 26.7745 81.377 22.0563V17.4293C81.377 12.7111 77.5522 8.88623 72.834 8.88623Z" stroke="black" stroke-width="2" stroke-linecap="round" stroke-linejoin="round"/>
<path d="M29.3656 8.88623H23.0366V30.5993H29.3656V8.88623Z" stroke="black" stroke-width="2" stroke-linecap="round" stroke-linejoin="round"/>
<path d="M58.6344 30.6011H64.9634V8.88795H58.6344V30.6011Z" stroke="black" stroke-width="2" stroke-linecap="round" stroke-linejoin="round"/>
<path d="M35.2001 49.6039H28.8711V70.5884H35.2001V49.6039Z" stroke="black" stroke-width="2" stroke-linecap="round" stroke-linejoin="round"/>
<path d="M59.129 49.6039H52.8V70.5884H59.129V49.6039Z" stroke="black" stroke-width="2" stroke-linecap="round" stroke-linejoin="round"/>
<path d="M8.75952 43.296H12.5506C13.7175 43.296 14.8367 43.7596 15.6618 44.5847C16.487 45.4099 16.9506 46.5291 16.9506 47.696V54.208H4.36304V47.696C4.36304 46.5297 4.82612 45.4111 5.65052 44.586C6.47492 43.7609 7.59317 43.297 8.75952 43.296Z" stroke="black" stroke-width="2" stroke-linecap="round" stroke-linejoin="round"/>
<path d="M16.9487 30.6011V51.5451C16.9487 53.8108 17.8488 55.9838 19.4509 57.5859C21.0531 59.188 23.226 60.0881 25.4918 60.0881H28.8639V49.6038H35.1999V60.0952H52.7999V49.6038H59.1359V60.0952H62.5151C64.7809 60.0952 66.9538 59.1951 68.556 57.593C70.1581 55.9908 71.0582 53.8179 71.0582 51.5521V30.6081L16.9487 30.6011Z" stroke="black" stroke-width="2" stroke-linecap="round" stroke-linejoin="round"/>
</svg>
