<svg width="132" height="132" viewBox="0 0 132 132" fill="none" xmlns="http://www.w3.org/2000/svg">
<path d="M92.8408 15.7729C107.701 15.7729 119.731 28.38 119.731 43.9158C119.731 72.0586 92.8409 88.0842 65.9845 116.227C39.1282 88.0842 12.2693 72.0586 12.2693 43.9158C12.2693 28.38 24.2988 15.7729 39.1282 15.7729C52.5551 15.7729 59.2711 22.8087 65.9845 36.8801C72.698 22.8087 79.414 15.7729 92.8408 15.7729Z" fill="#5E54DD"/>
<path d="M20.3257 47.9407C20.3257 32.4047 32.3552 19.7979 47.1846 19.7979C49.922 19.7979 52.3767 20.0954 54.6132 20.6804C50.5088 17.4121 45.599 15.7729 39.1282 15.7729C24.2988 15.7729 12.2693 28.38 12.2693 43.9158C12.2693 72.0586 39.1282 88.0842 65.9845 116.227C66.6621 115.517 67.3393 114.817 68.0166 114.122C43.3115 89.6411 20.3257 73.9752 20.3257 47.9407Z" fill="#4F45CC"/>
<path d="M103.061 42.8974C107.165 47.0046 106.425 54.3984 101.408 59.4155C96.3909 64.4351 88.9945 65.175 84.8899 61.068C80.7829 56.9636 81.5229 49.567 86.5399 44.55C91.5595 39.5329 98.9536 38.793 103.061 42.8974Z" fill="#FFD15C"/>
<path d="M87.285 62.7008C83.178 58.5964 83.918 51.2 88.935 46.183C93.044 42.076 98.7432 40.8375 102.929 42.7737C98.7976 38.8121 91.5069 39.5853 86.5399 44.55C81.5229 49.567 80.7829 56.9636 84.8899 61.068C85.6358 61.8141 86.4909 62.3981 87.4198 62.8276C87.3752 62.7848 87.3286 62.7448 87.285 62.7008Z" fill="#EFBE52"/>
<path d="M47.7958 44.55C52.8129 49.567 53.5528 56.9636 49.4458 61.068C45.3415 65.175 37.9448 64.4351 32.9278 59.4155C27.9108 54.3984 27.1708 47.0044 31.2752 42.8974C35.3822 38.793 42.7762 39.5329 47.7958 44.55Z" fill="#FFD15C"/>
<path d="M35.8893 59.4155C30.8723 54.3984 30.1323 47.0044 34.2367 42.8974C35.6771 41.458 37.5225 40.6168 39.5273 40.3445C36.4191 39.9467 33.405 40.7689 31.2752 42.8974C27.1708 47.0044 27.9108 54.3984 32.9278 59.4155C36.185 62.6745 40.4446 64.127 44.1558 63.6227C41.2706 63.2533 38.3045 61.8319 35.8893 59.4155Z" fill="#EFBE52"/>
<path d="M99.33 43.181C101.612 45.4626 101.612 49.1594 99.33 51.4413C97.0509 53.7204 93.3513 53.7204 91.0723 51.4413C88.7906 49.1594 88.7906 45.4626 91.0723 43.181C93.3513 40.8994 97.0509 40.8994 99.33 43.181Z" fill="#743629"/>
<path d="M92.3575 45.7591C94.6365 43.4772 98.3361 43.4772 100.615 45.7591C100.719 45.8625 100.812 45.9718 100.906 46.0809C100.678 45.0187 100.156 44.0068 99.33 43.181C97.0509 40.8994 93.3513 40.8994 91.0723 43.181C88.8943 45.359 88.8007 48.8243 90.7814 51.1193C90.3795 49.2466 90.9018 47.2153 92.3575 45.7591Z" fill="#662C22"/>
<path d="M42.8381 42.8974C45.1198 45.1793 45.1198 48.8761 42.8381 51.1577C40.5591 53.437 36.8594 53.437 34.5804 51.1577C32.2987 48.8761 32.2987 45.1793 34.5804 42.8974C36.8594 40.6183 40.5591 40.6183 42.8381 42.8974Z" fill="#743629"/>
<path d="M36.7287 44.9599C38.6136 43.075 41.4676 42.7538 43.6886 43.9867C43.4522 43.5999 43.1728 43.232 42.8381 42.8974C40.5591 40.6183 36.8594 40.6183 34.5804 42.8974C32.2987 45.1793 32.2987 48.8761 34.5804 51.1577C34.9746 51.5522 35.4136 51.8734 35.8782 52.1312C34.5023 49.8818 34.7817 46.9069 36.7287 44.9599Z" fill="#662C22"/>
<path d="M82.3528 73.0076C82.3528 81.3375 75.4975 88.1925 67.1679 88.1925C58.838 88.1925 51.9827 81.3372 51.9827 73.0076H82.3528Z" fill="#FFC592"/>
<path d="M55.1623 75.5857H82.1264C82.2723 74.7465 82.3528 73.886 82.3528 73.0076H51.9827C51.9827 78.4799 54.9414 83.3149 59.333 85.9892C56.7548 83.2626 55.1623 79.5965 55.1623 75.5857Z" fill="#EFA873"/>
<path d="M109.354 108.17H74.3144C73.6024 108.17 73.0254 107.593 73.0254 106.881C73.0254 106.169 73.6024 105.592 74.3144 105.592H109.354C110.066 105.592 110.643 106.169 110.643 106.881C110.643 107.593 110.066 108.17 109.354 108.17Z" fill="#5E54DD"/>
<path d="M100.284 96.4917H86.2666C85.5545 96.4917 84.9776 95.9147 84.9776 95.2027C84.9776 94.4906 85.5545 93.9136 86.2666 93.9136H100.284C100.996 93.9136 101.573 94.4906 101.573 95.2027C101.573 95.9147 100.996 96.4917 100.284 96.4917Z" fill="#5E54DD"/>
<path d="M58.2012 108.17H20.8261C20.1143 108.17 19.537 107.593 19.537 106.881C19.537 106.169 20.1143 105.592 20.8261 105.592H58.2012C58.913 105.592 59.4902 106.169 59.4902 106.881C59.4902 107.593 58.913 108.17 58.2012 108.17Z" fill="#4F45CC"/>
<path d="M45.7333 96.4917H31.7161C31.0043 96.4917 30.427 95.9147 30.427 95.2027C30.427 94.4906 31.0043 93.9136 31.7161 93.9136H45.7333C46.4452 93.9136 47.0224 94.4906 47.0224 95.2027C47.0224 95.9147 46.4452 96.4917 45.7333 96.4917Z" fill="#4F45CC"/>
</svg>
