<svg width="85" height="85" viewBox="0 0 85 85" fill="none" xmlns="http://www.w3.org/2000/svg">
<path d="M66.0278 31.722C66.0938 31.3395 66.0938 30.9485 66.0278 30.566C66.0444 30.4761 66.0444 30.3839 66.0278 30.294C65.9735 29.8894 65.8468 29.4978 65.6538 29.138C65.4468 28.7894 65.1688 28.4882 64.8378 28.254L64.5998 28.05C64.2806 27.8204 63.924 27.6478 63.5458 27.54C63.252 27.5072 62.9555 27.5072 62.6618 27.54H51.2038L45.4578 17.442C45.3243 17.2814 45.1764 17.1335 45.0158 17C44.6971 16.6494 44.3087 16.3693 43.8754 16.1776C43.4421 15.9859 42.9736 15.8869 42.4998 15.8869C42.026 15.8869 41.5574 15.9859 41.1242 16.1776C40.6909 16.3693 40.3025 16.6494 39.9838 17C39.8181 17.1657 39.67 17.348 39.5418 17.544L33.7958 27.404H22.2698C21.976 27.3712 21.6795 27.3712 21.3858 27.404C21.022 27.5603 20.6883 27.7789 20.3998 28.05L20.1958 28.22C19.8648 28.4542 19.5868 28.7554 19.3798 29.104C19.1867 29.4638 19.06 29.8554 19.0058 30.26C18.9892 30.3499 18.9892 30.4421 19.0058 30.532C18.9398 30.9145 18.9398 31.3055 19.0058 31.688C19.0985 31.9572 19.2122 32.2187 19.3458 32.47L25.1258 42.466L19.3458 52.462C19.2122 52.7134 19.0985 52.9749 19.0058 53.244C18.9398 53.6265 18.9398 54.0175 19.0058 54.4C18.9892 54.4899 18.9892 54.5821 19.0058 54.672C19.06 55.0767 19.1867 55.4683 19.3798 55.828C19.5419 56.0801 19.7238 56.3189 19.9238 56.542L20.2978 56.814L20.6378 57.052C20.7783 57.134 20.9263 57.2023 21.0798 57.256H21.4538C21.702 57.2892 21.9536 57.2892 22.2018 57.256H33.7958L39.5418 67.218C39.6954 67.476 39.8779 67.7155 40.0858 67.932C40.3668 68.1965 40.6882 68.4146 41.0378 68.578H41.3098C41.6869 68.7351 42.0913 68.816 42.4998 68.816C42.9083 68.816 43.3127 68.7351 43.6898 68.578H43.9618C44.3114 68.4146 44.6327 68.1965 44.9138 67.932C45.1217 67.7155 45.3042 67.476 45.4578 67.218L51.2038 57.256H62.8658C63.114 57.2892 63.3656 57.2892 63.6138 57.256H63.9878C64.1966 57.236 64.4022 57.1904 64.5998 57.12L64.9398 56.882L65.3138 56.61C65.5138 56.3869 65.6957 56.1481 65.8578 55.896C66.0509 55.5363 66.1775 55.1447 66.2318 54.74C66.2484 54.6501 66.2484 54.5579 66.2318 54.468C66.2978 54.0855 66.2978 53.6945 66.2318 53.312C66.1391 53.0429 66.0254 52.7814 65.8918 52.53L60.1118 42.534L65.8918 32.538C65.9578 32.2699 66.0032 31.9971 66.0278 31.722ZM53.0398 44.2L53.4478 44.88L49.2998 42.5L53.4478 40.12L53.0398 40.8C52.7414 41.3169 52.5843 41.9032 52.5843 42.5C52.5843 43.0969 52.7414 43.6832 53.0398 44.2ZM31.9598 40.8L31.5518 40.12L35.6998 42.5L31.5518 44.88L31.9598 44.2C32.2582 43.6832 32.4153 43.0969 32.4153 42.5C32.4153 41.9032 32.2582 41.3169 31.9598 40.8ZM49.2318 34.204H50.0478L45.8998 36.618V31.824L46.3078 32.504C46.6045 33.0179 47.0304 33.4452 47.5434 33.7434C48.0564 34.0417 48.6384 34.2005 49.2318 34.204ZM38.6918 32.504L39.0998 31.824V36.618L34.9518 34.204H35.7678C36.3611 34.2005 36.9432 34.0417 37.4562 33.7434C37.9691 33.4452 38.3951 33.0179 38.6918 32.504ZM35.7678 50.796H34.9518L39.0998 48.382V53.176L38.6918 52.496C38.3951 51.9822 37.9691 51.5549 37.4562 51.2567C36.9432 50.9584 36.3611 50.7996 35.7678 50.796ZM46.3078 52.496L45.8998 53.176V48.382L50.0478 50.796H49.2318C48.6384 50.7996 48.0564 50.9584 47.5434 51.2567C47.0304 51.5549 46.6045 51.9822 46.3078 52.496Z" fill="#5E54DD"/>
<path d="M71.3999 3.40002H13.5999C10.8947 3.40002 8.30028 4.47466 6.38741 6.38754C4.47454 8.30041 3.3999 10.8948 3.3999 13.6V71.4C3.3999 74.1052 4.47454 76.6996 6.38741 78.6125C8.30028 80.5254 10.8947 81.6 13.5999 81.6H71.3999C74.1051 81.6 76.6995 80.5254 78.6124 78.6125C80.5253 76.6996 81.5999 74.1052 81.5999 71.4V13.6C81.5999 10.8948 80.5253 8.30041 78.6124 6.38754C76.6995 4.47466 74.1051 3.40002 71.3999 3.40002ZM74.7999 71.4C74.7999 72.3018 74.4417 73.1666 73.8041 73.8042C73.1664 74.4418 72.3016 74.8 71.3999 74.8H13.5999C12.6982 74.8 11.8334 74.4418 11.1957 73.8042C10.5581 73.1666 10.1999 72.3018 10.1999 71.4V13.6C10.1999 12.6983 10.5581 11.8335 11.1957 11.1959C11.8334 10.5582 12.6982 10.2 13.5999 10.2H71.3999C72.3016 10.2 73.1664 10.5582 73.8041 11.1959C74.4417 11.8335 74.7999 12.6983 74.7999 13.6V71.4Z" fill="#5E54DD"/>
</svg>
